<?xml version="1.0" encoding="UTF-8"?>
<!DOCTYPE svg PUBLIC "-//W3C//DTD SVG 1.1//EN" "http://www.w3.org/Graphics/SVG/1.1/DTD/svg11.dtd">
<!-- Creator: CorelDRAW 2020 (64 Bit) -->
<svg xmlns="http://www.w3.org/2000/svg" xml:space="preserve" width="3507px" height="2480px" version="1.1" style="shape-rendering:geometricPrecision; text-rendering:geometricPrecision; image-rendering:optimizeQuality; fill-rule:evenodd; clip-rule:evenodd"
viewBox="0 0 3507 2479.7"
 xmlns:xlink="http://www.w3.org/1999/xlink"
 xmlns:xodm="http://www.corel.com/coreldraw/odm/2003">
 <defs>
  <style type="text/css">
   <![CDATA[
    .fil1 {fill:#3C3C3C}
    .fil0 {fill:#5B96F1}
    .fil2 {fill:#FEFEFD}
   ]]>
  </style>
 </defs>
 <g id="Camada_x0020_1">
  <metadata id="CorelCorpID_0Corel-Layer"/>
  <g id="_2595911771312">
   <path class="fil0" d="M3375.87 764.2c-54.6,32.6 -10.61,12.72 -77.66,38.94 -104.54,40.88 -81.96,18.84 -122.1,3.55 -30.33,-11.56 -72.42,-32.8 -99.34,-37.71l-11.98 -1.93c-11.95,-2.44 -20.43,-9.54 -36.38,-10.49 -18.61,0.15 -28.76,-0.28 -48.87,11.04 0.12,1.42 5.66,10.83 8.28,18.41 17.22,0.25 34.86,-2.26 48.47,-7.53 5.59,7.95 28.19,17.1 36.95,20.68 18.93,9.08 41.41,17.81 61.16,25.22 7.31,2.75 24.18,8.99 29.98,12.28 14.48,8.18 6.61,8.29 20.19,15.98 36.37,10.55 31.65,5.05 66.31,1.76l7.56 -1.28 8.09 -0.9c15.08,-12.73 83.96,-31.44 107.95,-47.93l48.56 -31.1c19.53,-4.21 37.08,20.4 41.05,30.84 -8.46,13.2 -48.15,53.85 -72.66,68.1l-3.47 3.55 -20.24 47.21c10.86,25.78 11.78,4.06 16.8,43.37l-5.53 12.27 -4.22 8.07 -13.25 25.58c-9.76,13.25 -18.56,15.18 -34.95,27.93 -28.23,21.98 -5.68,77.34 -32.52,105.76 -10.04,33.86 -37.45,90.01 -53.67,122.91 -30.29,61.49 -35.66,71.84 -40.53,133.77 -6,76.43 5.47,62.33 -44.45,107.46l-36.68 31.36c-15.96,11.45 -7.22,9.84 -20.43,21.71 -5.86,5.27 -6.9,4.64 -12.75,8.71l-196.05 173.33c-15.18,10.87 -7.74,9.11 -19.98,22.19 -14.6,15.61 -35.83,25.92 -49.03,40.38 -9.31,10.19 -7.05,12.73 -18.6,23.64 -8.24,7.79 -14.28,11.82 -23.3,19.25 -27.88,22.98 -27.87,84.52 -47.42,121.9 -9.17,36.71 -9.36,79.75 22.95,87.69l43.29 0.27 9.01 131.65c-13.41,11.91 -28.17,18.34 -36.73,34.59 2.71,29.14 19.1,44.85 -9.95,63.36 -28.89,18.42 11.48,34.66 -21.47,63.6 -24.03,21.1 -97.6,5.76 -140.14,24.94 -31.08,14.01 -31.49,16.17 -61.71,-3.87 -15.82,-0.22 -31.36,4.1 -40.77,0.03 -2.75,-1.19 -8.95,-7.04 -14.99,-10.38 -7.34,-4.07 -6.99,-3.53 -15.17,-5.68l-11.86 0.2c-4.5,22.74 -12.95,32.35 -22.78,53.14 -9.04,19.12 -1.64,2.35 -7.81,19.47l8.39 -6.59c12.67,-9.94 -5.89,-0.57 9.44,-7.19 17.35,8.61 7.25,18.07 11.63,5.6 13.74,-3.38 11.93,-8.33 19.02,-23.56 20.4,10.23 11.54,15.7 42.77,11.29 25.27,-3.57 26.83,4.82 50.22,9.54 22.57,5.03 32.88,-9.77 54,-15.76 16.04,-4.55 52.82,-6.2 69.34,-7.06 56.37,-2.91 79.05,-17.6 99.09,-50.07l-2.16 -32.62c7.81,-9.45 9.41,-6.94 15.95,-18.46 4.43,-7.79 6.26,-18.77 10.38,-28.21l-2.82 -23.62c-2.45,-14.32 0.66,-11.87 12.27,-20.88 30.14,-23.41 20.94,-18.78 18.55,-39.17l-7.17 -98.62c-2.01,-33.8 -2.66,-29.1 -14.12,-55.11l-56.4 -5.06c-7.87,-18.71 0.98,-54.98 11.96,-69.18 1.16,-17.46 7.15,-32.26 11.92,-49.26 7.77,-27.61 5.51,-22.72 22.01,-36.62 13.64,-11.5 13.36,-18.34 28.06,-31.24l45.46 -39.47c25.66,-33.21 24.34,-19.56 43.72,-41.17l91.15 -82.75c24.43,-18.7 11.27,-4.54 31.89,-27.53 11.97,-13.34 23.07,-15.87 33.66,-26.01 7.19,-6.87 4.75,-7.66 13.6,-15.88l28.77 -26.41c13.26,-12.64 22.07,-13.42 33.48,-26.06 24.57,-27.26 14.3,-12.17 29.48,-25.77 7.4,-6.64 5.9,-8.03 13.96,-15.54 13.93,-12.98 21.23,-8.81 28.32,-26.29l6.74 -121.48c3.56,-28.29 61.54,-138.78 75.38,-175.85 9.85,-26.35 17.79,-35.48 24.98,-68.08 8.05,-36.54 7.21,-55.63 24.91,-67.77 6.15,-4.21 22.1,-13.58 27.62,-19.34 7.3,-7.63 9.78,-20.11 15.53,-31.83 15.44,-31.5 15.44,-33.08 8.06,-72.02l-8.53 -5.49c13.79,-55.55 37.09,-25.95 56.36,-65.56 8.5,-17.47 12.67,-14.78 29.81,-31.17l10.23 -11.49c-0.57,-30.02 0.58,-19.5 -24.76,-53.64 -9.71,-13.09 -12.53,-8.11 -20.27,-17.6 -10.25,-12.56 -4.79,-31.31 -35.56,-11.25 -16.94,11.04 -15.12,6.22 -23.32,10.39 -8.68,4.41 -1.05,-0.56 -7.22,5.39 -8.98,8.67 4.84,1.9 -12.94,14.23z"/>
   <path class="fil0" d="M1669.22 862.42c0.56,-10.16 3.24,-11.97 7.31,-19.42 8.22,-15.05 13.45,-8.11 14.12,-6.81 0.39,0.77 1.73,-2.03 2.29,-2.48 17.02,-13.89 13,-3.37 30.35,-16.87 60.52,-47.12 33.46,-41.16 65.71,-101.06 12.85,-23.88 26.81,-50.11 34.49,-75.61 11.3,-37.49 -3.56,-28.06 56.75,-57.1l28.5 -23.1c60.26,-40.3 56.5,41.5 137.65,91.65 138.19,85.4 162.59,52.06 196.64,57.86l25.93 2.98c8.29,14.23 25.02,38.03 31.41,53.39 22.28,53.48 6.6,17.36 37.23,48.85 7.28,10.5 12.64,12.49 25.35,6.76 32.11,-13.28 53.33,-36.97 91.77,-45.27 6.39,8.54 11.68,17.38 20.7,26.91 16.54,17.48 12.8,9.36 33.85,17.5 18.38,3.78 37.72,11.05 56.08,16.77 21.98,6.84 41.1,6.58 51.75,23.25l2.95 6.2c31,10.32 24.26,3.26 55.35,-5.46 82.79,-23.23 86.99,-5.25 121.63,-18.63 22.12,-8.55 26.41,-18.62 38.6,-28.51 9.56,-3.3 24.66,7.27 47,-4.79 26.9,-14.53 16.18,-4.65 33.81,-12.86 44.24,-20.59 49.72,3.86 83.24,-10.91 4.34,-11.37 4.34,-8.96 0.91,-19.13 -20.83,7.28 -26.05,-1.88 -37.86,-12.28 -34.52,0.87 -32.46,-5.62 -63.52,9.88l-20.09 2.36 -15.47 12.46c-32.37,9.5 -26.65,-16.01 -57.21,17.32 -11.7,12.76 -26.87,19.89 -51.13,18.26 -22.24,-1.49 -69.76,6.58 -90.4,13.46 -9.19,3.06 -13.92,6.26 -24.05,8.79l-13.88 -15.12 -65.97 -22.52 -28.99 -8.4c-30.73,-7.85 -26.88,-6.57 -40.8,-24.89 -67.8,-2.38 -24.41,-8.93 -58.85,-0.17 -4.37,-8.43 -17.47,-4.1 -17.47,-4.1 -11.6,6.94 -16.25,2.34 -32.23,9.25 -11.88,5.14 -14.13,9.76 -26.7,14.83 -30.89,-17.86 -5.41,-8.92 -37.97,-57.68 -31.33,-46.92 -21.2,-46.45 -52.48,-49.36l-3.25 -0.61 -27.42 -6.36c-60.85,6.02 -37.23,9.87 -93.23,-10.8 -32.88,-12.14 -86.77,-38.44 -107.23,-66.01 -17.07,-23 -15.22,-12.32 -27.58,-27.06 -12.47,-14.87 -10.03,-24.81 -24.69,-35.51 -13.79,-10.06 -20.96,-7.71 -35.76,-19.38 -21.69,-0.72 -38.92,5.27 -52.36,15.57l-43.93 31.95c-73.38,37.18 -37.76,23.79 -66.34,88.25 -6.97,15.72 -15.64,32.13 -24.22,45.98 -5.34,16.17 -27.24,67.77 -38.85,80.97 -4.73,5.38 -61.21,49.49 -69.81,53.19 0.99,10 -4.4,11.88 -6.73,31.99 0,0 -1.07,2.49 -1.07,2.49 -32.46,22.47 -48.58,16.61 -68.41,4.7 2.52,0 -6.61,-1.3 -6.61,-1.3 -49.57,7.2 -166.29,-12.11 -183.73,40.62 51.31,-6.67 162.06,-1 171.78,-3.05 9.29,-1.96 15.95,-8.79 26.02,-7.65 23.85,2.72 57.21,27.97 75.29,-11.19 5.44,-11.77 3.24,-12.28 11.83,-22.99z"/>
   <path class="fil0" d="M2539.38 124.48l4.39 0.38c11.2,8.66 21.83,20.73 38.36,23.89 0.39,0.07 17.66,4.87 32.08,2.07 14.84,-2.89 26.86,-13.39 27.28,-13.33 6.26,-15.79 -8.18,-3.98 -10.27,-15.11 -1.45,-0.14 -27.69,-3.81 -29.06,-4 -29.61,-4.03 -43.2,-18.31 -60.39,-36.46 -10.86,-4.26 -5.9,-4.1 -17.82,-10.35 -60.51,5.53 -35.97,8.38 -81.71,-17.19 -12.4,-6.93 -60.33,0.52 -78.75,0.93l-5.24 4.36c-11.96,11.5 -20.2,17.5 -35.48,20.46 -10.49,19.05 -12.82,12.26 -26.77,12.11 -14.74,-0.16 -18.35,1.82 -32.46,7.23 -11.75,4.51 -58.54,26.05 -66.27,15.21 -11.77,-16.52 -8.81,-22.36 -23.54,-36.05 -18.92,-14.06 -15.1,-22.75 -40.62,-36.58l-4.84 -4.05c-24.11,-1.16 -25.63,3.44 -46.68,7.07 -20.81,3.59 -20.87,-3.13 -42.62,-8.39 -45.06,-10.92 -39.29,-10.87 -79.2,11.65 -4.76,11.22 -4.08,9.27 -12.16,15.95l-7.75 8.31c-9.66,18.18 -12.6,17.63 -16.01,42.49 -2.27,16.53 -3.8,22.66 -12.77,36.76 -11.17,17.58 -41.74,33.05 -61.36,40.13l-24.01 0.65c-23.15,0.51 -35.7,-12.87 -52.99,-24.02 7.54,-19.23 11.87,-18.28 10.11,-40.15 -12.88,-8.84 -17.39,-7.18 -34.53,-11.87 -22.16,-3.16 -35.09,-25.66 -48.33,-40.79 -16.7,-1.48 -4.98,-0.91 -21.8,-7.89 -0.91,-0.38 -2,-0.86 -2.94,-1.23 -51.79,-20.52 -55.5,-9.95 -73.14,11.62 -18.78,-0.96 -34.24,-4.44 -50.79,0.86 -15.58,4.99 -22.57,14.46 -37.77,13.71 -13.57,-12.63 -5.17,-10.4 -13.53,-28.24 -9.39,-20.03 -8.69,-11.43 -27.71,-20.56 -18.95,-9.1 -55.26,-60.53 -129.37,-37.21 -34.61,10.9 -47.48,0.27 -70.75,24.62 -6.16,13.49 11.01,13.38 -1.82,64.71 -5.65,22.6 2.95,1.71 -8.65,21.52 -7.2,12.3 -10.37,21.62 -16.51,34.78 -10.91,23.34 -16.57,20.86 -22.62,31.95 -8.71,15.96 1.22,21.2 -9.85,41.26 -18.18,32.94 -2.98,16.27 -15.21,39.49 -0.05,0.09 -17.63,9.68 -2.07,35.44 10.04,16.63 21.11,14.77 33.61,8.36 4.41,-19.49 -10.72,-24.91 14.38,-65.79 12.97,-21.12 3.48,-21.28 9.9,-37.99 3.65,-9.49 9.88,-8.81 17.75,-28.31 12.06,-29.91 30.74,-58.24 30.77,-58.35 7.79,-23.23 6.46,-47.52 4.99,-70.73 79.58,-16.75 78.85,-25.26 136.31,18.05 18.76,14.13 21.77,6.59 30.45,28.24 5.63,14.06 14.45,23.24 29.86,31.09 16.34,8.33 26.37,0.09 42.71,-7.21 45.71,-20.44 59.68,9.42 82.88,-28.29 13.43,1.98 51.9,16.07 63.19,24.44 31.49,23.36 -4.45,25.61 49.82,35.88 -8.93,59.09 23.37,56.49 35.33,61.42 12.41,5.12 46.69,29.78 90.54,7.25 120.11,-61.72 67.13,-99.85 100.6,-129.15 23.1,-20.23 24.75,-27.75 44.93,-24.62 23.97,3.73 42.11,16.76 62.06,15.05 30.47,-2.6 42.53,-25.34 76.74,19.05 11.44,14.85 13.45,58.25 62.9,51.61 19.89,-2.67 38.32,-12.4 57.1,-19.6 27.99,-10.72 27.7,4.62 54.9,-13.19 12.83,-8.4 29.3,-24.55 47.84,-28.82 22.26,-5.11 7.65,2.98 30.03,0.1 16.27,-2.1 12.57,-8.18 28.2,-2.54 22.52,8.13 22.21,23.21 54,21.81 9.96,-0.44 22.22,-3.51 31.5,-0.78l20.65 16.88zm66.02 -0.04l-3.59 3.88 3.59 -3.88zm-12.41 13.15l-3.95 3.47 3.95 -3.47z"/>
   <path class="fil0" d="M1245.29 1032.7c19.59,-8.57 32.04,2.82 36.64,19.92 34.22,-11.11 15.46,-15.45 38.35,-26.59l37.99 -47.94c6.2,-4.18 17.71,-6.83 28.04,-13.82 12.2,-8.27 13.85,-11.03 19.09,-24.6 0.11,-0.27 -0.71,-12.16 -3.11,-21.97 -1.72,-7.05 -5.26,-12.94 -5.18,-13.16 0,0 -13.09,3.03 -12.81,2.76 -0.04,0.36 -2.45,1.45 -0.89,8.56 1.71,7.8 4.85,12.12 5.13,12.32 3.2,2.18 -0.38,10.13 -5.49,14.92 -16.02,1.91 -17.6,16.23 -30.5,16.82 -13.45,12.81 -42.16,49.06 -71.82,63.11 -0.91,-1 -2.07,-3.94 -2.48,-3.2 -2.51,4.45 -7.35,-11.16 -9.46,-15.3 -3.31,-6.49 -6.06,-12.91 -9.5,-19.79 -5.57,-11.16 -14.12,-32.49 -19,-40.96 -7.1,-12.37 0.66,-3.6 -13.43,-12.61 -31.68,-20.25 -30.45,-16.45 -66.12,-23.07 -26.29,-79.14 -25.81,-70.32 -85.14,-69.15 -27.8,-37.32 -30.71,-15.65 -60.66,-35.84 -47.57,-32.05 -50.75,-21.15 -51.45,-51.03 67.08,-28.91 13.57,-65.95 26.04,-98.17 9.73,-25.14 35.58,-20.19 6.55,-76.71l-12.55 -13.94c-0.81,-0.59 -2.04,-1.3 -2.81,-1.82l-5.84 -3.61c-0.1,-17.64 3.69,-42.95 -3.8,-57.53 -21.08,-41 -32.74,-58.89 -66.09,-87.8 -11.2,-9.71 -4.02,-8.65 -20.25,-18.49 -15.65,-9.48 -9.91,6.26 -16.7,-19.9 0,0 -2.9,-10.8 -6.87,-13.49 -22.86,-18.54 -16.62,-26.65 -31.77,-34.68 37.24,1.67 7.88,12.31 32.91,16.52 24.64,-7.39 31.8,-1.55 50.98,-9.04l7.19 -0.27c27.9,4.22 85.73,31.78 150.71,23.97 29.73,-3.57 32.18,8.81 62.27,-3.84l6.14 7.1c8.29,8.05 22.4,10.8 36.24,11.34 21.72,0.84 32.42,0.27 42.75,-10.26 2.02,-2.06 10.17,-47.61 11.18,-56.96 -2.14,-6.95 -18.2,-6.18 -19.3,-8.26l-3.24 -6.11c-0.45,-1 -0.95,-2.07 -1.36,-3.08 -2.43,-6.03 -2.25,-11.77 -5.11,-18.65 -26.35,1.69 -1.55,67.42 -7.86,76.15 -19.37,26.81 -14.1,-1.32 -35.14,-4.66 -15.03,-2.39 -17.87,-3 -33.07,-3.09 -14.12,-16.59 -12.38,-17.4 -54.8,-14.25 -27.24,2.03 -75.71,-11.48 -95.7,-8.15 -5.07,0.84 -7.44,1.62 -14.61,2.42 -9.38,1.04 -17.69,1.71 -28.08,0.18l-14.05 -7.71c-0.12,-0.2 -0.24,-1.23 -0.48,-1.8 -7.33,4.73 -5.73,8.24 -16.45,3.92 -2.53,-1.59 -12.28,-6.02 -14.76,-1.03 0,0 -3.73,6.83 -3.73,6.83 -7.38,10.34 -3.72,1.6 -5.58,5.78 -52.66,-8.99 -74.36,-26.94 -129.23,-48.38 -10.87,11.76 -2.29,2.91 -9.8,16.5l-34.43 -0.51c15.27,26.74 116.3,26.28 117,40.51 -1.43,8.67 3.95,3.42 1.59,8.57 -2.7,5.91 7.17,-0.31 6,15.65 -0.21,8.67 0.31,6.34 4.06,9.61l2.29 8.52c0.78,0.45 2.33,1.03 3.29,1.84 2.24,40.43 18.8,33.86 39.15,53.23 7.46,7.1 -8.71,-7.24 4.17,4.53 14.86,13.57 34.62,23.8 44.18,44.29 14.15,30.33 16.41,44.53 15.59,79.27 -0.56,23.64 2.11,15.43 14.88,26.99 11.96,10.82 10.51,16.13 20.36,27.05 -7.43,24.71 -22.61,19.23 -21.98,44.5 0.57,23.36 14.44,31.93 8.31,59.73 -24.36,25.73 -43.21,27.57 -26.95,78.32 3.43,2.83 2.2,2.3 8.63,5.91l33.85 16.96c27.97,20.24 30.53,18.25 62.32,31.34 16.5,6.8 7.09,5.4 18.26,15.42 16.29,14.61 32.03,7.46 52.11,7 23.2,38.46 15.94,67.28 74.14,74.97 32.39,4.29 50.15,53.81 61.05,87.89z"/>
   <path class="fil0" d="M1812.62 2331.48l3.49 -3.77c4.36,-9.11 -15.11,9.62 9.43,-5.67 0.96,-0.6 2.71,-1.61 4,-2.53 -30.81,-26.36 22.15,-6.23 -69.23,-83.93 -28,-23.82 -22.17,-7.94 -33.97,-33.29 -25.99,-55.9 -34.39,-15.37 -13.77,-94.12 5.58,-21.32 9.84,-46.31 19.31,-65.53 37.36,-75.83 8.88,-67.97 3.68,-97.82 -1.06,-6.05 11.42,-67.12 -76.75,-52.2 -10.01,-97.88 17.57,-77.34 25.19,-105.29 5.26,-19.29 -10.03,-21.08 -23.21,-58.05 -5.4,-15.16 0.92,-0.28 -2.39,-6.39l-3.62 -5.24c-10.31,-11.67 -52.72,-25.88 -65.2,-25.18 -54.67,3.02 -50.41,31.52 -98.34,-7.11 -21.66,-17.45 -11.87,-21.89 -31.28,-39.52 -20.13,0.06 -22.76,8.99 -38.78,3.62 -0.05,-0.02 -16.52,-8.98 -16.54,-8.99 -5.5,-3.75 -1.77,-1.09 -6.93,-5.47 -20.39,-17.3 -12.19,-6.41 -52.21,8.42 -37.1,13.75 -17.07,16.45 -38.73,21.95 -12.25,3.11 -33.32,8.1 -47.42,5.56 0.34,-0.13 -13.79,-5.98 -28.16,-8.23 -14.89,-2.34 8.7,-31.63 8.36,-31.51 -0.08,-0.03 -24.11,-14.41 -40.29,-0.45 -5.12,4.41 -11.01,47.63 -4.21,53.58 33.09,5.15 22.53,13.71 61.93,2.74 18.92,-5.27 16.05,-5.27 29.59,-0.19 0.68,0.26 1.8,0.91 2.54,1.15 0.8,0.26 1.99,0.78 2.85,0.99 36.79,8.94 57.68,-13.4 74.75,-19.12 16.17,-5.43 -5.94,-8.5 18.9,-1.68 33.07,9.07 25,44.04 63.01,13.53 4.48,16.63 15.79,23.18 27.98,31.82 55.26,39.18 -8.7,37.71 86.95,17.85 28.37,-5.9 11.65,-3.12 29.9,1.6 56.26,14.56 17.11,-8.63 55.19,42.62 -2.21,13.09 -20.43,27.62 -25.25,64 -2.39,18.06 -1.66,28.71 1.62,46.32 13.18,70.77 17.67,24.85 76.81,41.59 -2.18,37.54 10.39,29.54 14,57.1 2.86,21.78 -12.88,36.85 -19.6,57.93 -55.02,172.35 -26.3,100.67 1.13,179.28 5.64,16.15 26.43,26.46 39.6,37.73 29.45,25.22 38.15,20.55 48.71,47.74 3.69,9.5 7.18,19.34 10.16,29.27 16.49,-3.23 10.75,-6.27 16.8,-5.11z"/>
   <path class="fil0" d="M2845.43 200.93c-18.91,12 -61.93,20.71 -73.67,29.35 -15.47,11.4 -9.22,19.01 -14.31,37.79 -9.01,33.21 -32.93,25.97 6.42,52.06 28.57,18.94 20.37,57.45 51.08,70.63l-0.74 27.27c4.5,25.72 15.54,9.47 11.61,40.56 -2.6,20.62 -2.8,26.75 7.09,42.88l2.71 5.28 3.06 3.81c33.4,12.75 5.89,36.53 37.74,57.91 34.3,23.03 37.04,8.26 32.68,61.52 11.68,17.45 29.61,28.83 34.82,44 17.75,30.33 1.39,80.11 32.36,94.3l21.14 4.2 3.89 -3.85c2.78,-4.68 0.32,-5.35 3.82,-1.25l24.44 -5.86 -37.99 -59.77c-5.08,-49.52 -10.63,-44.62 -37.7,-71.11 -18.53,-18.12 -1.63,-39.69 -22.25,-65.93 -12.73,-9.75 -34.24,-16.49 -41.12,-31.45 -3.17,-6.9 -4.72,-21.17 -6.9,-26.97 -8.53,-22.73 -0.43,-2.88 -19.57,-20.1 -18.58,-16.72 5.5,-23.28 -2.51,-50.01 -2.15,-7.15 -11.05,-17.01 -12.91,-25.18 -2.96,-12.95 0.67,-19.29 -3.48,-35.71 -6.1,-11.07 -6.52,4.62 -29.77,-38.65 -15.75,-29.3 7.45,-32.17 -30.85,-41.91 4.03,-11.62 6,-24.96 7.77,-39.11 18.81,-5.18 39.21,-8.19 54.1,-20.05 38.06,-20.26 31.85,-12.08 34.81,-61.66l-16.43 -1.01 -13.86 3.67c-0.69,14.78 1.21,14.18 -5.48,24.35zm143.92 551.1l-3.76 3.38 3.76 -3.38z"/>
   <path class="fil0" d="M1424.73 1347.35c-5.78,-25.86 0.02,-7.53 -11.85,-21.25 -3.71,-4.3 -5.73,-3.27 -10.04,-10.73 1.12,-7.09 -7.09,-17.21 -14.33,-31.62 -13.73,-27.3 5.54,-13.9 -22.43,-25.43 -23.24,-9.58 -36.94,-21.19 -41.63,-42.72l-31.86 -2.46c0.1,29.11 -5.28,19.39 32.57,57.16 9.05,9.03 6.69,5.02 18.51,12.13 22.69,13.66 3.24,9.35 22.72,31.52 7.95,9.04 47.27,47.18 18.65,72.61l-34.87 24.09c-31.3,22.81 -37.32,46.68 -26.58,85.29l-43.31 18.5c-21.18,8.03 -24.01,17.36 -30.47,39.58 -12.85,44.12 1.58,11.8 -24.68,37.68 -18.35,18.07 6.43,7.38 -23.48,36.59 -0.66,0.66 -1.84,1.91 -2.39,2.45 -0.56,0.55 -1.7,1.6 -2.39,2.53l42.68 -2.08c20.08,-19.22 -1.45,-20.71 41.77,-33.4 0.89,-24.63 -6.25,-41.82 13.78,-54.08 24.08,-14.75 36.59,-9.16 57.32,-19.82 18.72,-42.23 -26.5,-62.21 27.23,-95.35 27.43,-16.92 62.41,-45.14 45.08,-81.19z"/>
   <path class="fil0" d="M752.1 276.58l-2.91 -3.5c-36.52,-18.39 -76.1,-3.21 -105.95,-31.26 -16.22,-5.77 -79.11,-21.96 -94.97,-20.35 -64.96,6.62 -47.83,57.55 -100.57,69.52 -22.37,5.07 -31.17,-1.43 -53.06,6.67 -19.06,7.05 -22.27,10.05 -35.79,20.42 -14.02,10.77 -32.24,-9.06 -50.23,-3.16 10.93,9.29 -79.29,7.03 -63,9.8 1.74,0.29 -186.91,-16.68 -181.72,-8.23 -4.01,-5.63 -0.88,-38.7 -0.97,-38.55 -10.72,-9.09 -44.87,22.05 -45.15,-2.71 -0.09,0.1 -0.71,42.26 6.74,54.44 6.43,13.58 13.5,13.8 36.63,13.84 13.04,-6.49 62.85,6.59 130.05,8.7 78.89,2.48 164.17,-8.05 159.3,-15.57 25.46,0.97 28.51,2.56 51.08,-4.63 23.78,-7.58 28.51,-1.05 49.36,-5.83 53.98,-12.39 48.67,-16.07 66.15,-45.57 19.49,-32.9 39.03,-24.17 78.51,-16.53 44.54,8.63 42.41,23.42 83.66,27.56 8.72,-5.03 47.14,29.45 72.84,-15.06z"/>
   <path class="fil0" d="M1813.97 2317.97c3.96,1.58 -21.59,15.53 -18.15,18.62 5.98,5.36 17.78,4.51 29.6,5.77 14.13,1.5 28.25,5.22 35.4,10 4.38,2.92 9.62,10.74 18.84,17.09 12.61,8.68 29.75,16.27 35.3,20.1 14.81,10.23 38.67,12.26 41.92,15.09 13.95,12.16 13.2,19.41 28.92,26.87 17.29,8.2 61.87,9.04 90.9,19.61 31.49,11.48 44.63,39.26 82.77,25.84 42.88,-15.09 -8.42,-8.23 62.21,-14.52 52.26,-0.22 112.17,7.21 155.95,-7.44 40.42,-8.5 57.54,-16.88 74.86,-31.69l-21.65 -11.29c-44.81,15.18 -93.85,19.33 -136.96,11.59l-87.31 5.01c-68.41,4.6 -28.18,16.76 -77.41,18.46 -24.57,-24.94 -61.98,-38.08 -99.31,-41.74 -68.46,-6.72 -31.29,-33.61 -86.99,-27.33 -11.61,-9.15 -23.22,-18.31 -34.83,-27.46 -13.31,-7.52 -21.9,-15.04 -39.85,-19.06l-38.64 -11.98 -15.57 -1.54z"/>
   <path class="fil0" d="M2771.81 97.83c-14.39,-2.22 -32.82,-0.08 -43.79,-2.72 -21.02,-5.05 -5.02,-10.92 -36.62,-9.7 -40.01,1.55 -43.69,15.39 -62.05,39.45l12.14 12.63c16.38,-7.09 19.62,-21.44 52.99,-18.04 25.68,2.62 7.64,11.98 67.82,9.36 10.14,-5.25 2.11,-4.37 18.3,-4.8l14.57 2.75c0.61,-1.03 21.53,-2.11 20.52,-1.53 0.61,-0.47 1.78,-0.8 2.14,-0.9l4.48 -1.38c0.58,-0.11 1.86,-0.3 2.5,-0.38 15.69,-2.11 23.74,-1.35 28.83,0.55 7.05,2.64 8.44,7.5 16.61,10.03 3.93,1.21 -17.14,23.95 -19.38,44.27 19.93,-5.81 11,0.96 29.88,4.95 0.83,-18.4 1.15,-20.08 8.12,-38.02 6.95,-17.89 7.46,-6.13 3.03,-29.21 -64.84,-37 -64.09,-0.41 -120.09,-17.31zm-131.22 43.26l-3.77 -3.5 3.77 3.5z"/>
   <path class="fil0" d="M1276.95 1041.13c-10.37,11.11 -22.55,-16.43 -31.66,-8.43 7.37,11.46 19.53,100.22 27.31,119.44 23.73,88.77 20.01,64.67 52.81,70.04l-4.42 -47.75c-32.42,-68.9 -26.88,-82.75 -31.89,-92.1 -8.19,-15.28 -2.28,-41.61 -9.04,-45.34l-3.11 4.14zm-7.77 5.07l3.51 -3.76 -3.51 3.76z"/>
   <g>
    <path class="fil1" d="M2975.21 737.34c17.35,-8.1 8.71,-8.1 26.06,0 29.01,29.01 -50.4,52.15 -26.06,0zm-3.9 -15.46l-4.95 1.61 -5.02 4.99 -1.54 5.37 -4.87 4.37 0.02 24.65c15.28,13.46 22.03,25.32 49.01,15.9 33.81,-28.49 19.83,-59.47 -27.26,-60.65l-5.39 3.76z"/>
    <path class="fil2" d="M2975.21 737.34c-24.34,52.15 55.07,29.01 26.06,0 -17.35,-8.1 -8.71,-8.1 -26.06,0z"/>
   </g>
   <g>
    <path class="fil1" d="M2601.74 125.13c17.83,-8.32 8.95,-8.32 26.78,0 29.79,29.79 -51.77,53.56 -26.78,0zm-4.02 -15.88l-11.73 12.32 -5.25 4.62 -1.61 24.15 7.08 8.2 10.06 8.76 7.18 6.95c29.97,-5.55 26.12,-4.43 45.08,-22.45l0.76 -25.57 -5.01 -4.66c-15.75,-18.62 -13.6,-14.44 -41.78,-17.49l-4.78 5.17z"/>
    <path class="fil2" d="M2601.74 125.13c-24.99,53.56 56.57,29.79 26.78,0 -17.83,-8.32 -8.95,-8.32 -26.78,0z"/>
   </g>
   <g>
    <path class="fil1" d="M29.55 265.46c17.82,-8.32 8.95,-8.32 26.77,0 29.79,29.79 -51.77,53.56 -26.77,0zm-4.02 -15.87l-11.74 12.32 -5.24 4.62 -1.61 24.15 7.07 8.2 10.06 8.76 7.18 6.94c29.97,-5.54 26.13,-4.42 45.08,-22.45l0.76 -25.56 -5.01 -4.66c-15.75,-18.62 -13.6,-14.45 -41.78,-17.49l-4.77 5.17z"/>
    <path class="fil2" d="M29.55 265.46c-25,53.56 56.56,29.79 26.77,0 -17.82,-8.32 -8.95,-8.32 -26.77,0z"/>
   </g>
   <g>
    <path class="fil1" d="M1243.42 1042.17c17.36,-8.09 8.72,-8.09 26.07,0 29.01,29.01 -50.41,52.15 -26.07,0zm-3.89 -15.46l-4.95 1.61 -5.03 4.99 -1.53 5.37 -4.87 4.37 0.01 24.66c15.29,13.45 22.04,25.32 49.01,15.89 33.82,-28.49 19.83,-59.47 -27.25,-60.65l-5.39 3.76z"/>
    <path class="fil2" d="M1243.42 1042.17c-24.34,52.15 55.08,29.01 26.07,0 -17.35,-8.09 -8.71,-8.09 -26.07,0z"/>
   </g>
   <g>
    <path class="fil1" d="M1811.5 2339.89c17.36,-8.1 8.72,-8.1 26.07,0 29.01,29 -50.41,52.14 -26.07,0zm-3.89 -15.47l-4.95 1.61 -5.03 4.99 -1.53 5.37 -4.87 4.38 0.01 24.65c15.29,13.45 22.04,25.32 49.01,15.89 33.82,-28.49 19.83,-59.47 -27.25,-60.65l-5.39 3.76z"/>
    <path class="fil2" d="M1811.5 2339.89c-24.34,52.14 55.08,29 26.07,0 -17.35,-8.1 -8.71,-8.1 -26.07,0z"/>
   </g>
  </g>
 </g>
</svg>
