<?xml version="1.0" encoding="UTF-8"?>
<!DOCTYPE svg PUBLIC "-//W3C//DTD SVG 1.1//EN" "http://www.w3.org/Graphics/SVG/1.1/DTD/svg11.dtd">
<!-- Creator: CorelDRAW 2020 (64 Bit) -->
<svg xmlns="http://www.w3.org/2000/svg" xml:space="preserve" width="297.169mm" height="169.333mm" version="1.1" style="shape-rendering:geometricPrecision; text-rendering:geometricPrecision; image-rendering:optimizeQuality; fill-rule:evenodd; clip-rule:evenodd"
viewBox="0 0 29716.92 16933.32"
 xmlns:xlink="http://www.w3.org/1999/xlink"
 xmlns:xodm="http://www.corel.com/coreldraw/odm/2003">
 <defs>
  <style type="text/css">
   <![CDATA[
    .fil2 {fill:none}
    .fil4 {fill:#3C3C3C}
    .fil3 {fill:#5B96F1}
    .fil0 {fill:#8CB5F8}
    .fil1 {fill:#F1E9D7}
    .fil5 {fill:#FEFEFD}
   ]]>
  </style>
   <clipPath id="id0">
    <path d="M7.93 120.67l29700 0 0 16706.24 -29700 0 0 -16706.24z"/>
   </clipPath>
 </defs>
 <g id="Camada_x0020_1">
  <metadata id="CorelCorpID_0Corel-Layer"/>
  <g>
  </g>
  <g style="clip-path:url(#id0)">
   <g>
    <path class="fil0" d="M5299.36 -467.23l26.42 93.67 62.44 62.45 52.84 43.21 38.43 -60.04 74.45 9.61 64.84 67.26 64.84 -60.04 64.84 -76.87c0,0 -9.62,-76.84 9.61,-74.45 19.22,2.4 127.28,21.61 127.28,36.04 0,14.38 -50.42,64.84 -50.42,64.84l103.26 21.61 127.28 -45.64c0,0 72.05,-74.45 72.05,-60.04 0,14.41 -14.41,74.45 -14.41,74.45l-24.01 64.84 -9.62 45.64 -31.21 40.81c0,0 48.02,40.84 74.45,60.04 26.41,19.23 72.05,62.46 72.05,62.46 0,0 50.43,55.24 64.84,60.02 14.42,4.81 103.27,72.07 103.27,72.07l57.64 86.45 52.84 60.06c0,0 -28.83,98.43 -24.03,117.66 4.8,19.21 21.61,237.76 21.61,237.76 0,0 -26.41,136.88 -26.41,184.91 0,48.03 -19.23,117.68 -19.23,117.68 0,0 -110.46,16.83 -124.87,16.83 -14.42,0 -72.04,-4.81 -72.04,-4.81l4.78 93.65 -40.81 55.26c0,0 -19.22,48.02 -19.22,69.65 0,21.58 12.02,124.86 12.02,124.86 0,0 60.04,7.23 69.65,26.43 9.61,19.2 40.81,110.46 60.03,134.48 19.23,24.03 127.29,156.1 127.29,156.1l55.23 60.06 -14.42 57.62 -52.82 24.01 -33.63 0 -2.39 48.05c0,0 45.63,28.81 57.65,52.84 12,24.01 24,55.23 24,55.23l7.19 55.23 36.03 69.64 43.24 48.04 0 72.05 -105.66 -4.8 -76.86 -7.21 -50.44 62.44 -15.01 175.23 -21.39 64.18 -83.25 28.54c0,0 -73.72,57.08 -73.72,57.08 0,16.8 -9.49,173.54 -9.49,173.54 0,0 38.08,97.29 38.08,118.91 0,21.61 -60.98,232.68 -60.98,263.91 0,31.23 9.62,117.68 9.62,117.68l-98.47 189.72 -16.8 129.69 67.23 112.88 -7.2 120.07 19.23 139.3 98.45 79.25 93.68 40.83 57.62 67.24 -98.46 9.61 -74.45 -55.24 -79.26 -52.84c0,0 -19.21,26.43 -19.21,48.04 0,21.61 33.63,122.48 33.63,122.48 0,0 40.82,40.84 45.62,57.64 4.8,16.81 -31.23,91.27 -31.23,91.27l50.45 43.22 31.22 40.81 -16.83 72.07 46.94 63.68 -48.03 21.62 -26.42 67.25 12 40.82 21.63 62.44 -4.8 72.06 -28.83 74.45 -40.43 21.39 -17 57.64c0,0 -9.17,77.9 -9.17,77.9 0,0 30.92,49.93 30.92,49.93l106.45 3.82 26.73 0.95 0 54.68 -80.86 54.7 -57.07 0 -9.52 90.35 -45.16 11.85 9.47 90.37 -26.12 75.94 -44.17 80.8 15.64 71.53 -60.34 83.03c-8.55,11.76 7.42,43.67 0.89,56.67 -6.63,13.19 -33.82,8.79 -40.42,21.98 -9.59,19.19 14.26,128.41 14.26,128.41 0,0 -17.96,85.96 -25.15,105.17 -7.19,19.2 -60.03,110.48 -60.03,110.48l-79.28 69.64 31.54 55.33 21.61 52.84 45.62 84.05 -4.81 55.25 31.25 76.85 52.82 76.85 67.18 81.65 -120.32 110.36 2.4 100.86c0,0 -14.42,50.44 -14.42,69.65 0,19.22 -14.39,79.26 -14.39,79.26l-4.8 64.84 -76.85 252.17 -21.63 74.45 -33.62 62.44 -50.42 84.07 21.61 132.07 36.03 84.06 36.01 93.67 64.86 76.85 93.65 127.29 36.02 62.42 -24.02 55.26 43.22 26.41 4.81 64.84 21.62 72.04 31.22 55.25 9.61 40.81 -40.83 40.84 -33.62 55.23 9.61 122.48 24.01 64.84 0 60.05c0,0 -16.81,36.01 -31.23,33.63 -14.4,-2.42 -81.65,-2.42 -81.65,-2.42l-60.03 12 -38.42 76.87 33.61 31.23 -33.61 28.81 -36.03 48.03 9.6 60.03c0,0 4.81,48.03 -19.21,60.04 -24.01,12.02 -31.21,33.63 -31.21,33.63l-72.06 55.24c0,0 -93.67,60.04 -108.06,60.04 -14.42,0 -36.03,36.01 -36.03,36.01l-84.07 84.07 -31.22 74.45 -52.81 69.64 -52.84 74.46 -46.87 41.12 -11.71 -35.71c0,0 3.62,-41.44 5.41,-43.24 1.81,-1.8 33.62,-27.3 35.11,-29.43 1.53,-2.1 15.91,-36.31 15.91,-36.31l-10.79 -27.63c0,0 -30.93,-8.7 -33.04,-8.7 -2.1,0 -25.49,9.01 -30.02,11.71 -4.5,2.7 -15.9,26.11 -18.61,27.92 -2.68,1.81 -26.11,13.52 -26.11,13.52l-127.58 49.83 -57.64 45.64 -60.04 38.41 -7.19 74.45 -64.84 122.49 -38.43 120.07 -62.44 93.67 -57.64 55.23 -69.65 74.46c0,0 -45.63,43.22 -48.01,57.64 -2.42,14.4 24.01,86.45 24.01,86.45l33.61 40.81 31.23 48.06 33.61 62.42 19.22 28.81 -12.02 127.3 26.41 36.02 28.82 31.23 -33.62 67.24 50.43 52.83 24.02 50.45 9.62 67.22 24 33.65 7.21 103.26c0,0 40.83,57.62 40.83,72.04 0,14.41 24.01,96.06 24.01,96.06l33.63 88.87 26.41 86.45 105.66 228.16 81.67 86.45c0,0 19.22,96.07 48.03,115.29 28.81,19.2 72.04,72.03 105.68,91.24 33.61,19.22 96.05,100.89 96.05,100.89l57.64 134.49 -33.63 187.32 -43.22 72.04c0,0 -16.82,240.16 -14.42,254.56 2.42,14.42 -16.78,64.86 -23.98,81.66 -7.23,16.81 -50.45,115.27 -50.45,115.27l-93.67 108.09 -55.21 105.69 -144.11 48.03 -81.65 91.26 -211.34 38.45 -134.48 -33.64 -182.52 76.85 -14.42 110.48 0 148.89 19.2 192.13 -28.79 153.71 -129.7 153.69 -81.65 148.9 -100.87 110.47 -96.06 9.6 -124.88 24.03 -120.09 81.65 -33.62 129.68 14.4 139.29 72.06 124.87 24.02 115.3 38.42 168.12 -14.42 196.91 4.82 163.31 -28.82 129.69 19.2 201.73 96.07 153.69 62.44 144.11 91.26 100.86 24.02 105.67 28.82 220.95 52.84 105.67 -4.81 120.07 43.23 139.29 0 110.48 24.01 96.05 67.25 48.06 110.47 81.65 91.27 158.51 120.07 120.07 14.42 144.09 86.45 182.52 48.04 196.94 33.61 211.33 52.84 182.51 57.64 134.49 33.61 96.07 57.64 182.52 43.24 91.25 -4.81 134.49c0,0 19.23,134.49 43.23,168.12 24.01,33.63 86.46,124.88 86.46,124.88l43.23 196.93c0,0 0,144.11 0,192.13 0,48.04 -9.62,182.52 -9.62,182.52l86.45 57.64 148.93 72.04 120.06 57.65 240.17 38.42 196.92 -67.26 9.6 -96.03 76.87 -19.23 192.13 86.45 9.58 96.07 48.04 52.84 91.26 -76.84 33.64 52.84 33.61 72.03 168.1 86.46 105.68 -134.49 14.42 -79.26 -4.81 -110.48 45.65 67.26 -16.83 189.71 -67.26 91.28 -16.79 93.66 62.43 4.8 60.03 -31.2 117.71 9.58 57.64 16.82 -31.24 225.76 98.46 76.85 98.47 28.81 69.64 -9.61 4.81 -148.89 -2.4 -91.26 52.84 -12.02 48.01 0 57.64 -60.04 43.26 0 38.41 -43.23 45.63 36.01 0 38.45 -48.03 60.03 -9.62 43.23 -62.45 2.41 -36.01 -16.82 -31.21 -9.62 -9.62 103.28c0,0 9.62,96.05 12,112.88 2.42,16.81 -26.39,108.07 -26.39,108.07l-48.03 9.61 16.8 45.62 74.45 57.64 9.61 55.25c0,0 -52.83,24.02 -69.65,26.42 -16.83,2.39 -129.69,31.22 -129.69,31.22l-38.43 0 19.2 81.65 62.45 76.85 67.26 158.51 50.42 74.43 21.62 72.06 7.21 69.65 -36.03 36.03 -24.01 81.65 -55.24 57.64 -91.26 40.83 -55.23 45.62 -45.64 34.36 -76.84 176.99 -117.68 120.07 -163.3 76.84c0,0 64.84,-158.49 79.24,-177.71 14.41,-19.2 76.83,-108.07 76.83,-108.07l45.65 -88.12 9.61 -99.2 14.4 -86.45 7.21 -91.27 60.04 -64.84 103.26 -48.02 24.03 -36.04 -57.65 -26.42 -31.22 0 -67.23 -45.64 -50.44 -69.64 -16.82 -156.1 45.64 -81.65 43.23 -60.04 -4.78 -105.69c0,0 -9.62,-36.01 -31.23,-48.02 -21.61,-12.01 -112.88,-33.63 -112.88,-33.63l-76.84 0 -2.41 -76.85 -16.81 -57.64 -88.84 -43.22 -148.92 -69.64c0,0 -81.64,-67.24 -98.47,-74.46 -16.8,-7.2 -139.29,-36.02 -153.7,-36.02 -14.42,0 -103.27,16.81 -103.27,16.81l-50.42 24.02 -72.06 -81.66c0,0 -19.2,-76.85 -24.01,-96.06 -4.8,-19.22 -43.23,-86.45 -43.23,-86.45l-69.64 -38.45c0,0 -110.48,-26.39 -127.29,-26.39 -16.81,0 -172.9,0 -172.9,0l-108.1 -86.47 -103.25 -40.83 -91.26 -45.64 -115.29 -117.66 -26.4 -48.04 12.01 -122.48 9.58 -129.68 14.42 -124.91 -52.82 -151.29 -57.65 -120.06c0,0 -45.63,-33.63 -67.24,-57.66 -21.61,-24 -67.24,-88.84 -67.24,-88.84l-19.22 -110.47 0 -192.14 0 -96.06c0,0 -57.63,19.21 -60.03,4.8 -2.41,-14.41 4.8,-86.45 4.8,-86.45l-57.64 -55.25c0,0 0,-124.87 0,-141.69 0,-16.81 -38.42,-175.31 -38.42,-175.31l-16.82 -146.5 -45.63 -144.09c0,0 -31.22,-81.67 -40.84,-96.06 -9.58,-14.42 -33.61,-112.88 -33.61,-112.88l-40.84 -100.87 -28.81 -50.44 -9.6 -96.07 -36.01 -52.84 -74.46 -74.45 -40.83 -110.46c0,0 -64.84,-40.83 -79.24,-52.84 -14.42,-12 -91.28,-69.64 -91.28,-69.64l-64.84 -105.68 -21.62 -122.46 12.01 -57.64 -24.01 -62.46 -36.02 -86.45 21.61 -57.64 -7.2 -62.44 -52.84 -81.65 0 -93.65 -14.41 -93.68 -40.81 -62.44c0,0 -76.87,-50.43 -76.87,-64.84 0,-14.4 -24.01,-132.1 -24.01,-132.1l-57.64 -88.85 -24 -55.23 -45.64 -9.61 -21.62 -98.48c0,0 4.8,-69.65 2.41,-86.45 -2.41,-16.81 -28.83,-91.26 -28.83,-91.26l-2.39 -129.68 -2.41 -192.13 36.02 -98.47 19.2 -153.69 -4.8 -36.04 -50.42 -108.07 0 -72.05 -28.81 -91.27 -57.65 -96.05 -24.01 -175.3 16.82 -120.1 55.22 -40.84c0,0 91.28,-45.63 120.1,-52.82 28.81,-7.2 156.07,-50.43 156.07,-50.43l117.71 -72.06c0,0 36.03,-60.02 62.42,-81.66 26.42,-21.61 86.46,-88.84 86.46,-88.84l69.65 -148.9 21.63 -105.68 -7.22 -136.89c0,0 -9.61,-112.85 -9.61,-136.88 0,-24.01 7.21,-134.49 7.21,-134.49l100.85 -132.1 177.74 -98.45 117.68 -14.41c0,0 67.23,31.21 81.65,36.02 14.41,4.81 144.09,-7.21 144.09,-7.21l136.91 -43.24 156.07 -216.13 62.45 -218.54 36.03 -112.88 9.6 -91.26 19.21 -122.49 9.61 -141.69 -72.06 -151.3 -79.24 -108.07 -81.65 -110.48 -115.28 -103.26 -38.42 -105.67 -38.42 -129.69 -48.04 -120.08 -38.44 -139.3 -60.04 -141.69 -74.44 -175.32 -76.85 -189.71 9.62 -115.28 -60.04 -163.32 -43.25 -124.88 -48.02 -55.24 69.65 -127.28 98.47 -160.9 98.47 -180.13 86.43 -108.07c0,0 24.03,-81.65 48.06,-110.46 24,-28.83 146.49,-93.67 146.49,-93.67l144.09 -50.44 69.65 -31.21 76.84 -84.07 144.1 -120.08 88.86 -84.07 98.47 -122.46c0,0 43.22,2.4 31.22,-36.03 -12.01,-38.42 -52.84,-91.26 -36.04,-100.86 16.82,-9.62 69.65,-36.02 79.27,-50.43 9.6,-14.41 2.38,-170.52 2.38,-170.52l-16.8 -117.68 4.8 -177.71 -4.8 -88.87 -81.65 -72.06 36.03 -98.46 9.61 -74.44 -45.64 -93.66 -31.22 -69.64c0,0 -88.85,-72.06 -108.07,-96.07 -19.23,-24.03 -86.45,-148.9 -86.45,-148.9l28.81 -134.48 57.64 -108.1 38.42 -151.29c0,0 4.81,-108.06 7.19,-141.69 2.42,-33.63 -7.19,-139.31 -14.38,-165.7 -7.2,-26.4 -26.43,-158.51 -26.43,-158.51l-0.46 -221.26 -27.51 -161.65 -8.93 -71.57 -1.97 -105.42 -86.04 -80.94c0,0 -28.79,-60.45 -23.99,-74.85 4.81,-14.39 33.62,-132.07 40.84,-156.09 7.19,-24.03 64.84,-175.33 69.64,-194.55 4.81,-19.2 38.4,-146.49 69.65,-187.33 31.22,-40.81 103.26,-192.12 103.26,-192.12l0 -72.04 -79.25 -55.23 -28.81 -117.68 -4.82 -240.16 -88.86 -124.88 74.47 -148.9 24.01 -64.86 -26.42 -156.1 36 -122.47 -26.39 -156.12 60.03 -64.84c0,0 12,-112.86 12,-151.29 0,-38.42 -12,-184.91 -12,-184.91l-12 -170.54 -24.02 -372.23 21.61 -67.26 62.44 -110.48 91.27 -220.93 67.23 -201.74 52.84 -120.07 127.28 -182.53 -48.02 -7.2 -172.92 -19.21 -7.22 -60.06 -76.83 -55.22 -12.02 -81.66 -115.28 -36.02 -64.84 0 -62.44 16.83 -91.25 2.38 -7.21 24.01 -28.81 -28.81 -120.1 28.81c0,0 -52.81,40.83 -69.64,52.84 -16.81,12 -110.46,52.83 -110.46,52.83l-50.44 -9.58 -40.82 -40.84c0,0 -67.25,40.84 -84.06,40.84 -16.81,0 -64.84,-43.25 -64.84,-43.25l96.07 -40.82 40.83 -50.44 98.46 9.61 79.25 -43.22 -40.84 -86.46 7.2 -74.45 84.07 28.81 31.22 69.64 38.42 62.46 120.07 -4.82 40.83 -62.42 172.94 -67.26 105.65 -12c0,0 57.66,64.83 72.06,76.84 14.4,12.01 108.07,96.07 108.07,96.07l64.84 74.45 81.65 62.44 67.25 -72.05 168.11 -19.22c0,0 117.68,-2.39 139.29,4.8 21.61,7.22 50.42,4.82 50.42,4.82l-67.23 -96.05 24.01 -67.26 -4.8 -108.06 -72.05 -24.03c0,0 -33.62,-72.04 -43.23,-91.26 -9.61,-19.2 -9.61,-36.03 -24.03,-57.64 -14.39,-21.62 -79.23,-52.83 -84.03,-79.26 -4.81,-26.41 -57.65,-141.69 -74.46,-153.69 -16.81,-12.01 -124.87,-86.47 -124.87,-86.47 0,0 -52.84,-60.03 -31.23,-67.23 21.61,-7.2 72.06,2.41 79.26,-19.2 7.2,-21.63 67.26,-141.73 79.26,-158.54 12,-16.78 28.81,-144.07 28.81,-144.07 0,0 -12.03,-52.84 4.78,-69.65 16.83,-16.81 74.47,-36.03 74.47,-36.03l105.65 -24 81.67 -21.64c0,0 7.2,-120.07 7.2,-170.49 0,-50.45 -21.61,-175.32 -21.61,-175.32l-36.03 -91.27 -96.07 -12.01 14.42 -79.27 -67.24 -11.98c0,0 -76.85,-9.6 -96.05,-9.6 -19.23,0 -74.47,26.41 -86.47,-4.82 -12.01,-31.22 16.82,-57.64 -12.01,-60.03 -28.81,-2.41 -74.46,-2.41 -74.46,-2.41 0,0 -55.22,31.22 -45.64,-16.81 9.62,-48.03 12.03,-81.65 21.64,-103.26 9.61,-21.63 36.02,-12 36.02,-55.25 0,-43.22 19.21,-62.45 -4.82,-55.23 -24,7.19 -122.46,50.42 -129.68,64.84 -7.19,14.39 -74.45,48.03 -74.45,48.03l-38.42 50.43 -105.65 -9.6 -19.23 36.01c0,0 -69.66,14.42 -76.86,36.03 -7.2,21.61 -2.39,33.62 -2.39,60.04 0,26.41 -21.62,40.85 -28.82,64.85 -7.21,24.02 -38.44,105.67 -38.44,105.67l-69.62 -4.82c0,0 -64.86,-12 -86.47,0 -21.61,12.02 -88.87,38.45 -88.87,38.45l31.24 -67.26c0,0 84.04,-14.41 91.24,-38.41 7.22,-24.03 74.45,-79.26 74.45,-79.26l-26.39 -40.83 14.39 -72.04 136.9 -38.43c0,0 -7.22,-76.85 36.03,-76.85 43.22,0 52.84,0 52.84,0l2.39 -52.84 -199.33 7.21 -91.28 -50.44c0,0 -108.06,-26.41 -69.62,-38.43 38.41,-12 152.17,-164.79 152.17,-164.79z"/>
    <path class="fil1" d="M15928.29 6210.23l319.57 -197.83 235.86 30.44 7.61 182.61 91.3 175 60.87 190.21 182.62 266.31 -7.62 152.17 136.96 152.18 220.65 175 76.09 456.52 -114.14 448.92 -38.03 365.22 273.92 327.17 167.38 144.56 342.39 205.44 -213.04 654.34 -45.66 197.82 197.84 136.97 -91.3 174.99 380.43 -30.42 144.56 -15.23c0,0 93.23,-5.71 60.89,85.59 -32.34,91.31 -272.01,262.5 -272.01,262.5l-216.86 249.2c0,0 -211.12,152.16 -199.72,157.87 11.4,5.71 228.26,17.13 228.26,17.13l74.18 47.55 70.38 45.65 129.35 127.45 226.36 -144.57 -39.94 -146.47 -213.05 47.55 -175 -131.24 361.42 -346.21 275.81 -19.02 38.05 -133.15c0,0 -190.23,-214.96 -194.03,-230.17 -3.79,-15.22 -68.47,-184.51 -68.47,-184.51l-66.59 -76.09 -133.14 72.28 -224.47 43.75 -76.09 -19.02 -100.81 -108.43 -1.89 -136.95c0,0 161.67,-302.46 165.48,-315.77 3.81,-13.32 102.72,-133.15 116.04,-138.86 13.31,-5.7 102.72,-68.48 102.72,-68.48 0,0 93.2,-93.2 26.63,-184.51 -66.58,-91.3 -140.77,-245.37 -140.77,-245.37l-98.91 -121.73 -152.17 -129.35 -136.96 91.31 -106.53 -121.75 -53.26 -175 22.84 -319.56 -15.23 -304.34 -100.79 -64.69 19.02 -91.31 30.44 -133.16 9.5 -110.32 13.32 -175 -136.96 -125.54 55.17 -20.94 -3.81 -68.47 -100.81 -77.99 -85.61 0 -112.22 -192.13 -85.6 -116.03 -55.17 -252.99 -142.66 -89.41 -85.6 -192.11 -125.54 -251.1 -57.07 -165.49 -112.24 28.54 -95.1 -24.73 -235.88 -209.24 -140.75 -171.21 138.85 -34.23 108.43 119.83 159.78 140.77 203.54 116.03 152.17 186.42 214.96 205.44 -117.95 -291.04c0,0 -79.9,-121.74 13.32,-275.82 93.21,-154.08 176.9,-194.03 304.35,-233.97 127.45,-39.94 195.94,1.9 195.94,1.9l-17.13 182.61 148.37 214.96 -5.7 104.62 43.75 150.27 -9.52 180.71 -39.9 169.29 83.7 190.23 190.21 15.21 159.78 -22.82 106.53 -98.92 83.68 197.83 235.88 129.35 174.99 0 -53.26 190.22 -129.35 68.47 0 159.79 167.4 205.43 53.26 175 159.79 296.74 144.56 220.64 -175 68.49 30.44 243.47 121.73 251.09 121.74 30.44 205.44 -228.26 76.08 -152.18 144.58 -60.86 91.3 502.17 -197.84 121.74 -136.95 197.82 -190.22 289.13 -53.25 281.52 304.35 22.83 289.12 -114.14 175 -121.73 289.13 -98.91 350 60.87 76.08 175 -266.29 60.86 -365.22 76.1 -167.39 -22.84 0 167.4 0 266.3 -334.78 68.48 129.34 228.26 144.57 -91.31 -15.22 220.66 -60.87 53.25 228.26 167.4 98.91 106.52 213.05 22.83 38.04 327.17 68.48 228.26 -258.7 38.05 -235.87 -76.09 152.18 121.74 -60.88 190.21 -273.91 53.26 -243.47 76.09 -448.92 144.57 -106.51 -53.26 22.82 -418.48 -152.17 -83.7 -136.96 159.78 144.56 190.23 -30.44 106.52 -251.08 0 38.05 144.56 45.65 235.86 197.82 175.01 182.61 -251.08 129.35 -45.65 -22.83 205.42 296.74 -106.51 -76.09 197.82 -220.65 152.18 83.7 182.61 15.21 136.95 296.74 22.82 152.17 190.22 129.35 190.21 -129.35 76.09 266.31 98.91 -98.91 167.4 -144.56 114.12 -38.05 167.4 -53.26 190.21 -205.44 45.66 98.93 60.87 258.68 -83.69 471.75 -45.66 213.03 129.35 114.14 -167.39 106.52 281.52 0 114.14 121.74 159.77 -45.65 76.09 -266.31 -38.04 -106.52 76.09 -182.6 30.42 -98.93 76.09 -357.59 38.05 -228.26 -167.4 -7.63 -266.3 -220.65 -159.78 -258.68 0 -53.26 -289.14 106.51 -235.86 -593.47 -7.61 -76.09 -68.47 -60.87 -235.88 106.52 -53.26 -152.17 -144.56 45.65 -175c0,0 -159.77,-190.2 -144.56,-258.69 15.21,-68.48 -159.79,-68.48 -159.79,-68.48l-159.78 0 -91.3 -380.43 121.73 -205.45 60.88 -159.77 -190.22 -144.58 -76.09 91.31 -228.26 -68.47 -45.65 -403.27 -266.31 281.52 -197.82 -129.35 -91.3 -53.26 -304.35 83.7 -121.75 -152.17 -91.3 -213.05c0,0 38.04,-152.16 38.04,-197.82 0,-45.65 -121.74,-205.44 -76.09,-213.04 45.65,-7.61 159.79,-7.61 159.79,-7.61 0,0 121.73,83.7 152.17,129.35 30.44,45.65 159.79,235.87 159.79,235.87l-45.65 106.51 114.12 30.44 114.14 53.26 -45.65 -220.65 243.47 -175 -121.74 -174.99 -464.13 -98.93 -197.82 -342.38 -7.61 -121.74 258.69 7.6 296.74 -83.7 129.35 -114.12 -494.56 121.74 -38.05 -121.74 433.7 -159.79 174.99 -22.82 -30.43 -159.79 -289.14 144.58 -273.91 60.86 -258.68 -53.25 -60.88 -213.05 106.53 -243.47 98.91 -334.8 -190.22 213.05 -129.34 144.56 -175.01 -129.35c0,0 -136.94,-182.6 -60.86,-190.21 76.08,-7.61 388.03,-7.61 388.03,-7.61l22.84 -167.39 38.04 -91.31 319.57 -38.03 -83.7 -395.65 83.7 -98.91 -15.23 -213.05 -228.26 -15.21 -281.52 -175.01 -91.3 -235.86 -334.78 -136.96 121.73 -114.14 175 -83.69 45.65 -175.01 -76.07 -106.51 -258.7 45.65 -53.26 -243.47 -129.35 -76.1 -235.87 30.44 -22.83 -258.7 -182.61 -7.6 -136.96 76.09 197.82 -357.61 205.45 -45.65 45.65 -311.96 -15.21 -175 68.47 -334.78 182.6 -213.05 -91.3 -15.21 60.87 -182.61 471.74 -159.79 76.09 197.82 -30.43 228.26 -121.75 197.84 -136.95 15.21 22.83 106.52 205.43 0 167.39 182.61 45.65 197.83 -76.09 235.87 127.38 39.98z"/>
    <path class="fil1" d="M15880.76 5283.83l-129.34 -95.11 83.68 -114.12 83.7 -194.03 30.44 -83.7 49.45 -95.11 125.55 -178.77 83.69 -136.96 281.53 -235.88 53.26 83.7 83.7 220.66 30.42 175c0,0 235.88,-159.78 289.14,-159.78 53.26,0 349.99,-251.09 349.99,-251.09l0 -213.05 235.88 -114.12 342.38 53.26 144.57 -83.7 152.18 0 38.03 197.82 7.62 311.96 -136.95 175c0,0 68.47,213.05 106.51,159.79 38.05,-53.26 197.82,-350 197.82,-350l167.4 -251.1 15.21 -213.03 -197.82 -144.56 -7.6 -334.8 175 -45.65 182.61 -152.17 91.3 114.13 205.43 98.92 60.88 83.68 -83.7 197.84c0,0 -144.56,258.69 -91.31,258.69 53.26,0 243.48,121.74 243.48,121.74l38.04 -327.17 213.05 -91.31 205.43 53.26 45.65 228.26 60.86 167.4 -22.81 273.91 129.35 175 98.91 121.73 -45.66 197.84 -296.74 91.3 -197.82 76.08 190.21 388.05c0,0 -182.61,15.21 -136.95,53.26 45.65,38.04 121.74,98.91 121.74,98.91l-30.44 228.26 -68.47 152.18c0,0 30.42,121.72 30.42,174.99 0,53.27 152.19,167.39 167.4,213.05 15.21,45.65 -205.43,30.44 -205.43,30.44l-60.88 167.39 -152.17 167.38 -327.17 53.26c0,0 -15.21,-152.17 -45.65,-197.82 -30.44,-45.65 -243.49,-235.87 -243.49,-235.87l365.22 91.31 129.35 -68.49c0,0 -98.9,-22.8 -121.73,-76.07 -22.83,-53.28 -22.83,-175.01 -22.83,-175.01l-45.65 -83.69 136.95 -98.91 136.96 114.12 22.83 -175 68.47 -121.73 -197.82 -144.57 -251.09 30.43 -228.26 -98.91 -228.26 68.48 -251.08 -144.57c0,0 -281.52,-68.47 -319.57,-114.13 -38.04,-45.65 -175,-159.78 -175,-159.78l-83.7 -144.57 -114.13 114.14 -236.27 100.68 -159.38 294.96 -334.79 205.44 -441.29 -129.35 -380.44 -350.02zm1732.68 -702.98c22.83,0 292.95,-95.09 315.76,-102.71 22.82,-7.62 129.35,-228.26 129.35,-228.26l-129.35 57.06c0,0 -114.12,98.92 -144.56,98.92 -30.44,0 -136.95,-7.62 -136.95,-7.62l-34.25 182.61z"/>
    <path class="fil1" d="M20394.6 6773.3c0,0 49.45,150.27 41.84,163.59 -7.6,13.31 -66.57,45.65 -66.57,45.65l-131.25 43.75 -171.2 -89.4 -123.64 -116.04 28.52 -150.27 182.63 58.97 190.21 -49.47 155.98 -117.93c39.31,9.15 228.26,106.52 228.26,95.11 0,-11.41 -17.11,-173.1 -17.11,-173.1l127.44 -15.21 74.19 72.28c0,0 83.71,83.68 95.12,93.2 11.4,9.52 62.76,-129.35 62.76,-129.35l116.03 60.88 129.35 112.23 22.84 121.74 375.95 65.52c0,0 74.28,118.89 163.46,118.89 89.18,0 297.22,-133.75 297.22,-133.75l267.5 -282.36 206.26 154.44 -68.47 190.22 -213.05 76.08 -129.35 304.35 76.09 114.13 -106.51 197.83 -106.53 251.09 136.95 91.3 -30.42 106.52 -350.01 53.26 -76.09 76.09 205.44 15.21 -7.62 334.79 -144.56 426.08 243.49 -30.43 -22.84 -228.26c0,0 -38.03,-205.43 15.23,-205.43 53.26,0 129.34,68.48 167.38,0 38.05,-68.49 136.96,-342.4 136.96,-342.4l197.83 -76.09 182.61 53.27 60.87 388.04 251.09 -83.7 174.99 -114.12 106.53 266.3c0,0 -7.61,152.17 45.65,152.17 53.26,0 106.52,-15.21 106.52,-15.21l-68.47 205.43 30.42 251.09 175 -311.96 388.05 -22.83 410.87 197.83 -53.26 304.35 -327.18 205.43 -91.31 304.35 -152.16 167.39 -342.4 7.62 -22.82 190.21 -205.44 152.17 -281.52 60.88 -30.44 152.17 -68.47 243.47 -448.92 175 -509.77 -114.12 -426.1 129.33 -311.94 30.44 -152.17 380.43 -715.22 136.96 -60.87 441.31 -319.56 152.17 -350.01 -213.04 82.03 -411.66 526.66 -394.86 167.4 0 395.65 -563.05 -258.7 -213.04 -167.39 -319.56 258.7 -60.88 502.17 -426.08 654.34 -45.65 -213.03 -410.87 -441.31 152.17 -365.22 45.65 -197.82 136.95 -228.26 -410.86 -426.09 -197.83 228.26 -410.86 -45.65 -471.74 745.66 -410.87 258.68 -304.35 -15.21 -304.35 -251.09 -60.88 -167.39 -136.95 -216.67 43.03zm871.06 1501.57l144.56 -235.88 281.52 -91.3 106.52 -479.34 -426.08 60.86c0,0 -30.44,98.91 -83.7,144.56 -53.26,45.66 -273.91,83.7 -273.91,83.7l-296.75 106.53 -121.73 174.99 -45.65 144.58 296.73 38.03 258.7 0 159.79 53.27zm1141.3 1620.64l114.12 -289.12 228.26 -136.96 30.44 -220.65c0,0 15.22,-182.61 -30.44,-182.61 -45.65,0 -319.56,53.26 -319.56,53.26l-129.35 159.79 -144.56 -22.84 -152.21 59.53 76.13 320.92c0,0 0,167.37 53.26,174.99 53.26,7.62 228.26,-38.04 228.26,-38.04l45.65 121.73z"/>
    <polygon class="fil1" points="22966.13,7365.64 23148.74,7099.34 23354.18,7038.47 23453.09,6840.64 23719.4,6833.03 23780.26,6604.77 23468.3,6376.51 23300.91,6612.37 23072.65,6673.25 22966.13,6673.25 22753.08,6878.68 22593.31,7046.08 22821.57,7198.25 "/>
    <path class="fil1" d="M21938.95 6794.98l243.49 -304.33 273.91 -7.61 365.22 -114.14 281.52 -213.05 -30.44 -167.38 -235.87 83.7 -53.26 -129.35 106.52 -235.87 -311.96 53.26 -258.68 76.08 175 190.23 159.77 197.82 -251.08 -15.21 -22.83 -167.4 -251.08 -251.09 -205.44 -167.38 -7.61 -296.75 -213.04 -38.05 83.69 -197.82 -175 -258.7 304.35 83.7 159.78 91.31 -136.96 68.48 76.09 235.87 289.13 -197.82 106.53 15.21 175 -98.91 22.82 -479.35 -22.82 -175.01 91.31 7.61 152.16 334.79c0,0 304.36,-7.62 350.01,-15.23 45.65,-7.6 136.95,76.1 136.95,76.1l448.92 -251.08 68.47 -418.49 159.79 136.95 -38.05 136.96 98.91 68.48 -7.6 167.4 213.05 -7.62 53.25 -304.34c0,0 83.7,-30.42 91.31,38.05 7.6,68.47 251.08,266.29 251.08,266.29l76.09 129.35 235.87 144.56 -76.08 243.49 -91.31 167.4 114.13 136.95 -129.35 220.64 -129.35 106.53 -197.82 -114.13 -197.82 91.3 68.47 213.05 159.79 68.47c0,0 136.95,83.71 182.6,60.88 45.66,-22.84 418.48,-296.75 418.48,-296.75l45.65 144.56c0,0 30.44,296.75 -15.21,296.75 -45.65,0 -304.35,0 -304.35,0l-243.49 -53.26c0,0 -106.52,167.38 -60.87,167.38 45.66,0 220.66,-45.65 220.66,-45.65l144.56 167.4c0,0 -38.03,114.13 30.44,83.69 68.47,-30.44 213.05,-129.35 213.05,-129.35l53.26 190.22 159.77 53.26 53.26 91.3 121.74 7.62 182.61 -433.7 -136.95 -357.61 -129.35 -334.78 410.87 -327.17 0 -167.39 243.48 -91.31 -98.91 -220.65 -243.49 121.74 -159.77 7.61 -76.09 -159.79 53.26 -121.73 258.7 68.47 197.82 -45.65 -38.05 -296.73 190.23 -114.14 273.91 0 220.64 114.17 -60.88 98.91 175.01 98.91 273.91 53.25 45.65 68.49 258.7 53.26 220.65 167.38 -342.39 426.1 190.23 106.51 220.66 -81.78 79.89 17.11 140.77 64.67c0,0 161.69,17.13 175,17.13 13.31,0 182.61,-95.12 182.61,-95.12l-74.18 -251.08 70.4 -405.17 182.6 -289.13 -136.95 -152.17 53.26 -136.95 -53.26 -98.93 -167.4 -22.82 -53.26 -433.7 -251.07 -175 -83.7 -182.61 22.82 -327.17 -114.13 -220.65 -121.74 -76.08 -167.4 152.17 -152.16 152.17 -205.45 15.22 68.49 205.43 289.12 -15.21 175.01 167.4 -15.22 319.56 -38.04 136.96c0,0 -15.23,-167.4 -68.49,-167.4 -53.26,0 -182.61,22.82 -182.61,22.82l-235.86 -15.21 -190.22 -152.17 -68.47 60.86 -15.23 205.44 410.87 281.52 -45.65 129.35 -167.38 -136.95 -235.88 -83.7 -152.17 -98.91 -136.96 -15.23 -334.77 91.31 -296.75 98.92 68.49 174.99 -243.49 -289.13 -388.04 -91.3 -213.04 68.48 -60.87 91.31 15.21 -197.84 -243.48 -114.12 60.88 -98.93 -334.8 175.01 -76.07 30.44 -83.7 114.13 -159.79 -76.09 -53.26 121.75 -182.61 38.03 -304.35 -190.22 -456.52 -114.12 -144.56 197.82 -45.65 190.22 38.04 121.74 -418.47 7.61 83.69 -220.66 98.91 -7.61 0 -441.3c0,0 -441.29,-136.96 -372.82,-152.17 68.47,-15.21 502.17,-7.61 502.17,-7.61l136.96 -319.56 -83.7 -106.53 182.61 -281.52 144.56 159.79 266.31 -182.61 -136.96 -334.79 30.44 -213.04 -205.44 -159.79 365.22 -228.26 38.04 -319.56 -38.04 -342.38 -281.52 -258.7 -266.31 -289.13 -53.25 -144.58 -213.05 -38.03 -235.87 235.87 -106.52 357.61 -121.74 38.03 106.52 251.09 311.96 -38.04 136.95 159.79 68.49 319.56 98.91 68.47 -38.05 98.91 -197.82 -76.07 -152.18 30.42 -7.61 220.66 159.79 388.05 190.22 -53.26 114.12 152.17 -98.91 121.74 -175 76.08 -83.7 296.74 -197.82 -30.44 -243.48 167.4 -372.82 0 -220.65 -251.09 -205.44 -349.99 -319.57 -365.22 -167.39 -426.1 76.09 -167.39 -121.75 -129.34 357.61 -136.95 -152.17 -342.4 -350 83.7 -281.52 159.77 -190.21 -30.42 -296.75 53.25 -296.73 357.61 68.47 91.31 -182.61 220.65 53.26 136.96 -136.95 228.26 281.51 -213.05 327.19 -38.04 182.61 144.56 -121.75 197.83 -106.51 -129.35 -228.26 228.26c0,0 -182.63,243.48 -114.14,243.48 68.48,0 304.34,152.18 327.17,205.44 22.83,53.26 30.44,175 30.44,175l60.86 235.87 372.84 -388.05 7.61 152.18 -60.88 152.17 -60.87 296.73 167.4 144.58 228.26 -53.28 251.08 -327.17 167.4 -175 114.13 -144.56 0 152.18 -197.83 235.87 0 144.56 296.74 -53.26c0,0 91.31,-7.62 136.96,-15.22 45.65,-7.61 372.82,-53.26 372.82,-53.26l220.66 136.95 38.04 228.26 -190.21 -15.21 -7.62 182.61 53.27 175 -266.31 266.31 296.73 175 45.66 220.64 -167.38 159.79c0,0 -311.96,-15.23 -311.96,-83.7 0,-68.47 -76.09,-380.43 -76.09,-456.52 0,-76.09 -136.96,-235.87 -136.96,-235.87l-251.09 -167.39 -76.08 -243.47 -228.26 -76.1 -76.09 289.14 -144.57 289.13 22.82 175c0,0 182.63,22.82 114.14,68.47 -68.49,45.65 -197.84,114.14 -197.84,114.14l289.14 175 197.83 144.56 243.48 60.87 213.04 182.61 -220.66 228.26 -213.03 -68.47 136.95 -76.1 -7.6 -175 -289.14 -76.09 -167.4 106.53 152.19 114.12 -74.21 47.57 -32.34 57.05 -20.92 148.38 24.73 91.3 104.62 104.62 142.66 -26.63 47.55 47.56 -30.43 38.04 -91.31 26.64 -66.6 87.49 -239.66 49.45 -182.61 -190.21 -83.7 -60.87 -110.33 64.68 60.87 121.73 -57.07 95.11 102.72 167.4 106.53 121.73 140.75 106.53 194.03 -148.38c0,0 125.54,-136.95 155.98,-155.97 30.44,-19.03 159.77,-125.54 159.77,-125.54l285.33 38.03 -26.63 83.69 228.26 30.44 11.42 235.87 -76.09 152.18 26.63 98.91 -45.66 178.8 171.21 171.19 197.82 36.12z"/>
    <path class="fil1" d="M22258.53 5697.54l235.88 -216.85 38.05 -121.73 -262.51 -19.02c0,0 -87.48,114.14 -121.73,117.93 -34.25,3.8 0,186.41 45.65,197.82 45.65,11.42 64.66,41.85 64.66,41.85z"/>
    <polygon class="fil1" points="23354.19,5435.04 23221.03,5267.64 23015.61,5305.69 23000.38,5142.1 23228.64,5104.06 23327.57,5138.31 23494.95,4906.24 23723.21,4932.87 23921.04,5073.63 24073.21,5290.48 23997.12,5416.02 "/>
    <polygon class="fil1" points="14102.02,9517.16 14166.7,9501.93 14231.37,9486.72 14307.46,9597.04 14425.4,9456.28 14166.7,9163.34 13896.59,9304.11 14041.16,9494.32 "/>
    <path class="fil1" d="M13496.34 8691.09c0,0 95.92,-7.1 107.32,34.75 11.4,41.86 11.4,117.94 11.4,117.94l186.42 -106.52 53.26 -342.4 49.46 -239.67c0,0 -251.09,-243.48 -277.72,-224.45 -26.63,19.02 -175,125.53 -175,125.53l-87.5 -98.91c0,0 34.25,-102.7 0,-125.54 -34.25,-22.83 -129.35,-41.85 -129.35,-41.85l-76.09 -243.47 -277.72 -159.79 -311.96 163.58 0 182.61 159.79 330.98 19.02 144.58 357.61 -197.84c0,0 91.31,156 98.91,178.81 7.61,22.82 -60.86,144.57 -60.86,144.57l167.38 251.08 186.42 19.02 -0.79 86.99z"/>
    <path class="fil1" d="M16144.95 15497.59l323.37 3.8 106.52 -136.96 -34.24 -308.15 -152.18 -270.11 -266.3 121.74 91.3 163.59 -110.31 182.6c0,0 -254.89,45.66 -232.07,57.07 22.82,11.42 201.63,167.4 201.63,167.4l72.28 19.02z"/>
    <polygon class="fil1" points="15638.97,16707.36 15513.43,16627.48 15384.08,16619.87 15300.38,16460.08 15467.77,16228.02 15589.52,16201.4 15760.71,16372.59 15791.15,16536.17 15696.03,16669.33 "/>
    <path class="fil1" d="M18054.73 17190.53l-213.05 7.6 -125.54 -182.6c0,0 -98.91,-175.01 -98.91,-201.63 0,-26.63 72.28,-171.21 79.89,-205.45 7.61,-34.23 144.56,-209.23 144.56,-209.23l159.79 -11.42 140.77 49.46 144.56 251.08 -87.51 171.21 -201.63 64.67 -22.82 129.35 72.28 87.5 7.61 49.46z"/>
    <path class="fil1" d="M18328.64 17327.48l-117.93 197.83 -87.5 26.62 60.87 232.08 -45.65 270.1c0,0 -114.13,-15.23 -117.94,-38.05 -3.81,-22.82 -159.79,-232.05 -159.79,-232.05l30.44 -490.77 136.96 34.24 228.26 -117.94 72.28 117.94z"/>
    <polygon class="fil1" points="20550.41,14759.61 20763.46,14736.78 20968.9,14561.77 20862.37,14234.6 20752.04,14154.72 20634.11,14341.12 20497.15,14527.54 "/>
    <path class="fil1" d="M20105.32 13089.52l-121.74 349.99 182.6 258.7 388.05 76.09 349.99 98.91 121.75 197.82 350 76.09 410.87 -228.26 494.55 152.17 273.93 175 357.6 228.26 418.48 91.31 22.82 213.05 0 129.35c0,0 182.61,144.56 273.92,98.91 91.3,-45.65 76.09,-197.82 76.09,-197.82l205.42 182.6 357.62 152.17 68.48 -357.61 -410.87 -114.12 -213.05 -76.09 121.75 -159.79 304.34 0 167.39 15.23 -98.91 -213.05c0,0 -83.7,-144.56 -136.96,-144.56 -53.25,0 -266.3,106.51 -266.3,106.51l-114.14 -190.21 -129.33 190.21 -129.35 -175 213.03 -167.38 129.35 -76.09 -83.7 -197.82 350 -159.79 45.66 136.95 486.96 -289.12 296.73 129.35 167.39 -152.18 7.61 152.18 -98.91 182.61 -83.7 190.21 -273.91 -30.44 -121.73 175 152.17 243.48 121.74 0 -7.62 319.56 266.31 76.09 243.49 159.79 319.56 -106.53 182.61 167.4c0,0 68.47,327.17 114.12,327.17 45.65,0 197.82,-159.78 197.82,-159.78 0,0 -60.86,-152.18 -15.21,-152.18 45.65,0 266.31,-7.61 266.31,-7.61l136.95 334.78 311.96 0 -53.26 144.58 -22.83 129.33 98.91 144.58c0,0 190.21,15.23 273.91,0 83.7,-15.23 266.31,-76.09 266.31,-76.09l220.65 129.35 106.52 167.39 372.84 -91.3 418.47 -251.09 7.61 -205.45c0,0 91.32,-38.03 159.79,-38.03 68.47,0 327.17,0 327.17,0l129.35 60.87 197.82 -213.05 45.65 -129.35 -266.31 -289.13 -342.38 -152.16c0,0 -251.09,-114.14 -296.74,-129.35 -45.66,-15.22 -289.13,-106.52 -289.13,-106.52l182.61 -91.3 190.21 -22.84 91.31 0 -7.61 -129.35c0,0 -91.3,-15.21 -136.96,-15.21 -45.65,0 -342.39,-38.05 -342.39,-38.05l-129.35 -144.56 -197.82 53.26 121.74 -190.22c0,0 144.56,-15.21 197.82,-7.6 53.26,7.6 220.65,38.04 220.65,38.04 0,0 -15.22,-502.17 22.82,-395.65 38.05,106.52 144.58,266.3 144.58,266.3l22.82 144.57 258.7 83.69 273.91 -144.56 -53.26 -365.23 -53.27 -228.26 258.7 -98.91 -91.28 -68.47 74.18 -36.15 72.29 26.63 100.82 -161.69 45.64 -302.42 -98.91 -136.96 -129.35 7.61 -7.61 220.65 -144.56 281.52 -98.93 -136.95c0,0 -106.51,38.03 -106.51,-30.44 0,-68.48 -251.08,-342.39 -251.08,-342.39l-136.96 144.56 -159.79 357.62c0,0 53.26,-152.19 0,-167.4 -53.26,-15.21 -319.56,-76.09 -319.56,-76.09l-342.4 -68.47c0,0 205.45,-464.14 281.53,-441.31 76.08,22.83 144.58,129.35 175,83.7 30.43,-45.66 273.92,-220.66 273.92,-220.66l-22.84 -197.82c0,0 -281.52,-144.56 -365.21,-190.21 -83.7,-45.66 -266.31,-98.93 -266.31,-98.93l-395.66 182.61 -7.6 159.79 -311.96 403.26 -220.64 30.43 -311.96 296.74 -190.21 167.4 -182.63 -68.49c0,0 -53.25,-121.74 -53.25,-175 0,-53.26 98.92,-197.82 -22.82,-205.43 -121.75,-7.6 -296.75,38.05 -296.75,38.05l-304.34 136.96 -228.26 190.21 -136.95 30.44 -106.53 -38.05 -106.52 68.48 -372.82 98.91c0,0 -273.92,76.09 -304.36,129.35 -30.44,53.25 -220.65,197.83 -220.65,197.83l-289.13 342.38c0,0 -144.56,7.61 -144.56,-53.25 0,-60.87 53.26,-106.53 7.61,-114.14 -45.65,-7.61 -334.79,-7.61 -334.79,-7.61l296.74 -129.35 53.26 -144.56c0,0 152.17,60.88 190.22,15.23 38.04,-45.66 106.53,-129.35 106.53,-129.35l-45.66 -418.48 129.34 -114.14 410.88 -38.04 205.43 -441.31c0,0 -213.03,-30.42 -106.52,-15.21 106.52,15.21 266.31,-152.17 266.31,-152.17l372.82 7.61 133.03 -136.93 76.08 -19.02 79.89 -129.35 155.98 76.09 273.92 -30.44 83.69 -155.98 -98.91 -296.73 -114.13 -190.23 -144.57 41.85 -384.24 91.31 -136.96 -57.07 -121.73 -19.02 -163.6 117.93 -178.8 15.23 -38.04 114.12 -163.59 68.49 -372.82 159.77 -83.7 60.88 -53.26 -22.83 -136.95 83.69 -57.07 209.24 -129.35 182.61c0,0 -64.66,57.07 -98.91,57.07 -34.25,0 -148.37,19.02 -148.37,19.02l-11.42 159.79 -136.96 7.61 -83.69 -11.42 -106.52 -79.89 -102.72 148.38 -114.14 174.98 -209.24 76.1 -186.4 201.63 -216.86 106.53 -64.67 -60.88 -64.68 163.58 -57.05 117.94 -171.21 41.85 -136.96 0 -114.12 95.12 -209.25 45.65 -83.68 0 -110.33 -83.7c0,0 95.1,-178.8 125.54,-201.63 30.44,-22.83 53.26,-83.7 53.26,-83.7l-102.72 -19.02 79.9 -114.14 53.26 -49.45c0,0 159.79,-140.76 167.39,-167.39 7.61,-26.63 57.06,-121.74 57.06,-121.74l357.61 -136.96 224.46 -213.05c0,0 87.51,-117.93 91.31,-152.17 3.79,-34.23 -152.19,-136.95 -152.19,-136.95l-247.28 64.67 -232.06 144.56 -277.72 155.98 -175 140.77 -106.52 148.37 -72.28 41.84 -87.51 34.24 -72.28 26.63 -102.72 49.46 -258.69 129.35 -110.32 102.72 -220.66 7.61 -72.29 117.93 30.44 144.56 156.12 207.3zm5299.26 1352.58l45.66 -152.18 -11.42 -380.43 106.52 -155.98 -186.42 -95.11 -171.19 140.76 -95.1 98.91 159.77 159.79 -19.02 194.03c0,0 -49.45,30.44 -68.47,53.25 -19.03,22.82 64.67,106.52 64.67,106.52l175 30.44zm1902.18 182.61l292.93 300.54 41.85 -114.12 26.64 -281.53 -102.72 -68.48 -129.35 68.48 -129.35 95.11zm-1495.12 -897.83l-167.39 -76.09 175 -148.37 353.81 -117.94 235.87 -11.41c0,0 -7.62,-155.98 -30.44,-171.2 -22.82,-15.21 -232.06,-136.95 -232.06,-136.95l262.5 -57.07 353.8 38.05 -7.61 79.88 175.01 -106.51 190.21 41.84 323.37 -304.34 167.4 -136.96 121.74 174.99 41.85 102.72 -125.54 98.91 -152.19 60.88 -49.44 140.75 -144.58 11.42 -201.63 76.09 -220.66 163.59 -83.68 76.09 -136.96 -11.42 -117.94 -22.82 -213.04 22.82 -79.9 121.75 -129.35 -7.61 -144.56 -38.05 -121.73 72.29 -41.86 64.67z"/>
    <path class="fil1" d="M25286.67 9755.09l110.32 106.52 114.14 60.88 91.3 91.3 114.13 -117.93 95.11 30.42 175 0 83.7 -7.6 144.56 38.04 323.38 -148.37 106.52 -117.93 -327.18 -190.22 15.22 -136.95 -57.07 -38.05 -190.22 68.47c0,0 -129.35,-98.91 -144.56,-72.28 -15.21,26.63 -110.33,-79.89 -110.33,-79.89l-30.44 -72.28 -338.58 79.89 -49.45 129.35 -49.46 235.87 -76.09 140.76z"/>
    <path class="fil1" d="M16597.44 4003.02l159.78 -53.26 140.76 -98.91 323.38 41.84 273.91 -98.91c0,0 -11.4,-49.46 -53.26,-129.35 -41.85,-79.89 -273.91,-209.24 -273.91,-209.24l-57.07 49.46 -144.56 98.92 -121.74 98.91 -186.42 45.65 -117.94 136.95 57.07 117.94z"/>
    <polygon class="fil1" points="16418.63,3751.94 16323.53,3626.38 16372.98,3432.36 16456.68,3200.3 16593.63,3105.19 16791.47,3131.82 16901.8,3245.96 16821.89,3394.33 16772.45,3580.73 16696.35,3675.85 16490.91,3808.99 "/>
    <path class="fil1" d="M17682.52 2932.13l-91.3 95.11 7.61 91.31 167.39 64.67 133.16 -190.23 178.8 -87.49 -15.21 -209.24 -91.31 -171.21 133.15 -110.31 -98.91 -167.39 296.75 155.98 87.49 -159.79 -106.52 -148.38 -262.51 -155.98 -41.84 76.1c0,0 -87.49,-114.14 -91.3,-136.96 -3.81,-22.82 68.47,-140.77 68.47,-140.77l-87.5 -106.51 -182.6 -45.66 -213.05 114.14 -87.5 159.78 -83.69 19.02 -114.14 125.54 -133.15 64.67 -114.13 64.68 -3.8 144.56 -83.7 308.16 19.02 266.31c0,0 163.6,106.5 175.01,76.08 11.4,-30.43 182.6,-247.29 182.6,-247.29l129.35 125.56 114.13 -76.09 -159.78 -144.57 3.8 -129.35 133.16 -19.02 102.7 95.12 175.01 171.19 167.39 98.91 -213.05 129.35z"/>
    <path class="fil1" d="M18839.05 2681.03c0,0 79.89,-102.72 91.31,-136.95 11.41,-34.24 102.72,-216.85 102.72,-216.85l121.74 -45.65 -152.18 -175c0,0 -144.55,-91.29 -121.73,-133.15 22.82,-41.85 133.15,-140.76 133.15,-140.76l213 -209.25 167.4 -102.73 159.79 -11.41 95.1 72.28 -106.52 171.21 7.61 129.35 -22.84 83.68 -155.98 83.7 110.33 232.07 -106.52 125.54 -209.23 171.2 -159.79 140.76 -167.36 -38.04z"/>
    <path class="fil1" d="M18568.91 2114.17l176.21 -134.06 95.76 -45.96 122.56 -145.58 11.51 -256.63 91.92 7.65 107.25 -26.8 164.72 -264.31 65.12 88.1 157.06 -72.79 122.56 -65.1 -80.43 -76.61 -203.03 -45.99 169.34 -65.19 197.82 -266.3 38.04 83.69 148.38 -57.07 258.68 -91.3 76.09 -19.02 125.54 102.72 140.77 68.47c0,0 95.1,-30.43 117.93,-41.84 22.84,-11.42 239.68,-311.96 239.68,-311.96l148.37 -26.63 98.91 11.4 19.03 -133.14 270.1 -15.22 266.31 91.31 167.39 -148.38 117.93 -277.72 -41.84 -178.8 -140.76 15.22 -163.59 38.04 -76.09 -57.07 -121.74 68.49 -262.5 152.17 -30.44 57.07 -140.75 -87.51 -144.56 -194.01 60.86 -72.3c0,0 87.51,-30.42 110.33,-30.42 22.82,0 64.67,95.11 117.93,64.67 53.26,-30.44 163.59,-114.14 163.59,-114.14l-163.59 -114.12 -114.14 -19.02 -209.23 26.63 129.35 -136.96 -186.41 -330.98 -197.83 72.28 -239.68 49.46 -159.78 3.8 -83.69 41.86 -83.7 -60.88 -125.54 -129.35 -106.53 -186.41 -45.65 -83.69 -144.57 0 -296.73 136.95 -213.05 95.1 -144.56 155.98 -159.79 34.25 -68.47 -114.14 -68.48 -60.86 -136.96 0 -171.19 76.08 -186.42 0 -60.87 106.53 -15.21 57.07 228.26 -19.03 110.33 -7.6 53.26 38.03 -152.19 91.3 -49.44 38.05 -102.72 -7.61 -79.89 26.63 0 76.09 -114.14 178.8 -79.89 155.98 30.44 182.61 79.89 148.37 117.93 -22.82 76.1 117.93 -19.03 87.5 -106.53 190.23 -72.28 209.24 45.65 -3.82 -11.4 106.54 79.89 64.67 133.14 117.93 -45.65 57.06 -167.38 49.46c0,0 -125.55,110.33 -152.18,121.74 -26.63,11.42 -87.5,91.31 -87.5,91.31l114.13 41.84 91.3 -34.23 64.68 121.74 60.87 178.8 -26.64 79.88 34.25 136.97 175 110.32 129.34 106.53 133.16 22.83zm-235.87 -486.97l15.21 -155.97 178.8 -95.11 98.93 -106.52 -64.68 -254.9 -26.63 -102.71c0,0 -144.56,205.43 -167.39,213.03 -22.84,7.61 -148.38,209.24 -148.38,209.24l3.81 228.28 110.33 64.66zm867.39 -1392.4c22.82,-3.79 190.22,-53.26 190.22,-53.26l7.6 -53.26 121.75 60.87 95.11 -140.75 277.71 -114.14 38.04 -140.75 -60.86 -178.81 -83.7 -64.68 -121.74 49.46 -152.17 -15.22 -106.53 -53.26c0,0 68.47,-41.84 45.65,-41.84 -22.82,0 -163.58,22.81 -163.58,22.81l-83.7 133.17 -83.69 0 -34.25 102.72 -125.54 72.28 125.54 205.42 117.94 53.26 -3.8 155.98z"/>
    <polygon class="fil1" points="15384,4215.32 15517.16,4186.78 15493.38,3815.85 15540.95,3601.85 15935.64,3288 16059.28,3235.69 16073.54,2988.41 16144.88,2755.4 16092.55,2489.09 15921.36,2660.3 15873.8,2508.12 15655.06,2593.71 15578.96,2726.87 15674.08,2802.95 15540.92,3192.9 15398.25,3240.46 15322.18,3468.72 15360.21,3725.51 15227.06,3887.2 "/>
    <polygon class="fil1" points="14627.88,2974.16 14799.07,3050.23 15065.37,2888.56 15058.23,2691.2 14929.84,2762.53 14789.55,2619.87 14703.95,2584.19 14684.93,2703.09 14425.76,2738.75 "/>
    <polygon class="fil1" points="15897.55,2168.15 16021.19,2168.15 16078.26,2108.69 16166.23,2137.22 16206.66,2087.3 16232.82,1906.59 16201.9,1771.06 16097.28,1683.07 16042.59,1628.39 15876.15,1771.06 15792.93,1925.61 15819.09,2034.97 "/>
    <path class="fil1" d="M14280.6 1259.85l14.27 -123.64 213.99 -99.86 118.89 -218.75 95.11 -147.43 -204.48 -85.59c0,0 -85.61,-57.07 -99.87,-123.65 -14.26,-66.57 -57.05,-9.5 -57.05,-9.5l-57.07 290.07 -38.05 223.52 -152.17 76.08 -4.76 104.62 171.19 114.13z"/>
    <polygon class="fil1" points="16173.22,-742.18 16292.1,-770.71 16258.81,-903.87 16325.39,-1008.49 16610.71,-780.23 16748.62,-823.02 16848.48,-946.66 16781.91,-984.71 16896.04,-1132.13 17067.24,-1336.61 17010.17,-1498.29 16872.26,-1422.2 16724.84,-1403.18 16510.84,-1774.11 16377.7,-1445.99 16258.81,-1355.63 16030.55,-1270.03 16168.46,-1089.32 16135.17,-970.44 16092.37,-903.87 "/>
    <polygon class="fil1" points="14546.85,-661.33 14242.5,-651.83 14114.1,-713.64 14156.91,-813.51 14242.5,-941.9 14252.01,-1094.08 14218.72,-1193.94 14385.17,-1289.06 14527.83,-1265.28 14684.76,-1174.92 14689.52,-1037.01 14680,-880.09 14494.54,-818.26 "/>
    <polygon class="fil1" points="19768.26,-1445.99 20039.31,-1422.2 20153.45,-1517.32 20258.06,-1441.23 20434.01,-1583.89 20619.48,-1412.7 20771.65,-1422.2 20919.08,-1465.01 21080.76,-1726.56 21023.7,-1845.44 20852.5,-1940.55 20586.2,-1864.46 20453.04,-1788.38 20357.92,-1731.31 20196.25,-1807.39 20048.83,-1783.62 19987,-1655.22 19820.57,-1626.7 19658.88,-1745.58 19635.1,-1598.15 "/>
    <polygon class="fil1" points="21560.95,3999.02 21793.97,4037.05 21946.16,3965.72 21865.3,3880.12 21717.9,3723.2 21641.8,3613.82 21389.76,3623.34 21289.9,3613.82 21346.97,3813.55 21465.85,3922.93 "/>
    <polygon class="fil1" points="23862.61,3442.63 24052.82,3518.72 24224.01,3361.79 24323.87,3219.12 24176.46,3028.91 24000.51,3028.91 23895.89,2981.35 23719.94,3204.86 "/>
    <path class="fil1" d="M22374.15 2477.27l-71.33 -19.02 -26.19 61.83 -102.23 -47.56 -278.2 -147.41c0,0 -109.39,-301.97 -145.05,-278.2 -35.66,23.77 -209.23,168.82 -209.23,168.82l-121.27 -71.33 52.25 -218.76 78.46 -76.09 121.27 -92.73 102.23 171.19 49.94 7.13 240.15 -116.51c0,0 49.94,90.37 45.18,107.01 -4.76,16.64 -107.01,168.82 -107.01,168.82l95.12 14.26 92.73 -52.31 183.18 420.86z"/>
    <polygon class="fil1" points="21836.6,1602.28 21731.99,1464.37 21760.51,1335.97 21717.72,1138.63 21739.12,955.54 21817.58,865.19 21834.23,1007.85 21915.07,1138.63 21995.92,1240.86 22033.95,1409.68 21881.78,1580.88 "/>
    <path class="fil1" d="M23558.05 1683.13c28.55,0 161.69,19.02 161.69,19.02l85.6 95.1 99.87 -76.09 -28.54 -194.97 -114.12 -185.46 175.95 -85.59 218.74 0 4.76 -104.62 252.04 52.31 57.06 142.66 -38.04 271.05 -80.85 152.19 -66.57 147.41 -218.76 180.71 -95.1 99.86 -118.89 -152.17 -114.12 -23.79 -114.14 -161.67 -66.58 -175.95z"/>
    <polygon class="fil1" points="25184.43,-195.29 25184.43,-100.18 25355.62,85.28 25450.74,-162 25479.27,-314.17 25374.65,-452.08 25317.59,-580.48 25136.88,-490.12 25046.53,-356.96 "/>
    <polygon class="fil1" points="23294.16,-1857.29 23277.51,-1997.56 23367.87,-2123.59 23125.34,-2285.28 22916.11,-2064.14 22994.57,-1878.68 22973.16,-1795.46 22735.4,-1676.58 22666.44,-1659.92 22585.6,-1676.58 22485.73,-1652.79 22464.33,-1505.37 22602.24,-1338.94 22873.3,-1500.62 23239.47,-1702.73 23263.25,-1586.22 23306.06,-1555.31 23524.8,-1873.92 "/>
    <polygon class="fil1" points="23717.4,-1517.26 23795.86,-1664.68 23886.22,-1586.22 24009.86,-1764.54 24135.87,-1759.8 24364.15,-1697.97 24456.88,-1548.17 24473.51,-1431.66 24254.77,-1336.55 24062.17,-1291.37 23874.33,-1405.51 "/>
    <path class="fil1" d="M26149.73 -991.75l332.88 -95.12c0,0 294.83,9.52 152.16,218.76 -142.66,209.24 -632.47,85.6 -632.47,85.6l-237.78 -199.74 9.52 -218.74 -66.57 -142.66 -42.81 -256.8 118.89 -123.65 204.49 171.21 161.69 -152.18 -4.76 213.99 -85.6 247.29 90.36 252.04z"/>
    <polygon class="fil1" points="26159.23,810.55 26282.87,606.07 26092.66,515.72 25674.17,658.38 25693.19,801.05 25755.02,1029.31 25926.21,1043.57 26026.08,1190.99 26197.28,1343.16 26354.2,1447.78 26582.47,1571.42 26839.25,1481.07 26824.99,1295.61 26786.94,1057.83 26858.28,843.85 26767.92,720.21 26658.56,667.9 26601.49,753.5 26534.92,900.91 26368.47,1062.59 26202.04,986.5 "/>
    <path class="fil1" d="M24998.96 7886.71l285.33 -228.26 0 -304.35 475.53 38.04 -190.21 -228.26 187.87 -418.46 145.04 -204.49 137.9 -168.82 244.91 -147.41c0,0 268.68,-9.52 290.08,-2.39 21.39,7.13 285.32,-128.38 285.32,-128.38l90.36 80.83 23.77 85.6 -126.02 228.26 -123.64 190.21 -42.79 123.64 54.68 42.81 187.84 -21.4 230.64 -263.93 204.49 -370.92 -282.96 49.93 -73.7 -76.09 152.17 -180.71 -4.75 -190.21 225.95 -68.96 183.08 152.18 -26.15 178.32 133.16 14.3 95.11 190.21 95.12 9.5 -180.71 304.36 104.61 247.28 -66.57 161.69 104.62 370.92 -152.18 114.12 -199.72 -76.07 -123.64 66.57c0,0 47.55,152.17 104.61,209.24 57.07,57.07 19.03,380.43 19.03,380.43l-9.52 247.28 47.56 123.64 -275.82 209.24 -190.22 19.02 -47.55 -209.24 -199.73 19.03 -104.62 -19.03 -66.57 123.65 -266.31 76.09 -123.64 -142.67 -304.35 -38.04 66.59 -190.22 -114.14 -294.83 -361.41 -47.56 -114.13 133.16 -404.32 -168.85z"/>
    <path class="fil1" d="M28461.1 6838.18l38.05 199.73 -199.74 19.02 -137.9 -71.33 -194.97 -247.28 323.37 -408.97 252.03 304.35 228.26 52.31 -128.39 -323.38 42.79 -280.57c0,0 47.55,-175.95 19.03,-161.68 -28.53,14.26 -76.08,76.09 -76.08,76.09l-137.92 -80.85 -85.6 -166.44 90.36 -114.13 -52.3 -332.87 4.76 -116.51 185.47 -168.8 142.67 -137.91 161.68 123.64 -28.52 61.82 -9.52 156.93 -152.17 118.88 23.78 71.33 114.12 223.52 9.52 213.98 -19.02 180.71 185.46 38.04 180.71 247.29 57.06 133.14 -175.95 4.76 -199.73 128.4 57.07 171.2 23.77 194.97 -137.91 71.33 -109.38 -66.57 -237.76 -190.22 -57.1 76.07z"/>
    <path class="fil1" d="M29283.83 5482.89c0,0 237.78,-175.93 261.55,-256.79 23.77,-80.85 14.26,-114.13 14.26,-114.13l-233.02 -147.41c0,0 -190.23,66.56 -180.71,95.1 9.52,28.54 52.31,275.82 52.31,275.82l85.61 147.41z"/>
    <path class="fil1" d="M28622.79 2862.68l247.28 -114.14 -247.28 -294.83 -161.69 123.64c0,0 -114.12,133.16 -28.53,180.71 85.6,47.55 190.22,104.62 190.22,104.62z"/>
    <path class="fil1" d="M29982.85 1987.68c-47.57,57.06 -171.19,199.72 -171.19,199.72l-90.33 118.9 -142.67 -9.52 -71.33 -204.48 109.38 -152.18 80.84 -356.65 52.31 -114.14 180.71 309.1 156.92 -152.17 190.22 -242.52 0 -209.24 313.87 -61.83 294.83 99.88 66.58 185.45 -194.98 -19.02 -190.21 76.09 -85.6 194.97 -66.59 128.39 -123.64 -76.08 -42.79 80.84 90.36 161.69 166.43 99.86 118.9 23.78 -180.71 152.17 -123.65 118.9 -23.78 -152.19 -137.9 -71.33 -175.98 -128.39z"/>
    <polygon class="fil1" points="26982.19,732.26 27148.62,641.9 27120.1,489.73 27177.16,404.14 27024.98,309.02 26763.43,332.81 26692.1,484.98 26744.41,651.42 26872.81,689.45 "/>
    <path class="fil1" d="M27505.28 889.19l242.53 -175.95 90.35 -104.62 228.26 38.04 76.1 38.05 -57.07 -171.21 180.71 -85.59 180.71 -90.36 90.35 80.85 114.13 109.38 -114.13 99.86 -95.11 95.11 85.59 28.53 109.38 -66.57 156.93 -114.14 275.82 -214c0,0 118.89,-123.61 152.17,-152.14 33.29,-28.52 185.46,-199.71 185.46,-199.71l285.3 -294.87 161.69 190.22 9.52 152.18 171.19 -85.59 171.19 -190.23 209.24 161.68 171.19 351.91 -28.53 142.66c0,0 -133.16,237.76 -199.73,294.83 -66.58,57.07 -171.19,-28.52 -171.19,-28.52l19.02 -304.36 -161.69 152.19 -57.07 237.76 76.09 133.16 -76.09 237.77 -228.26 142.66 -370.91 -9.5 -237.78 -228.26 -95.1 114.12 -427.99 133.15 -304.35 76.09 -199.72 -247.29 -95.12 142.67c0,0 -142.68,76.08 -199.73,85.59 -57.05,9.52 -275.81,-76.07 -275.81,-76.07l-95.1 -237.78 47.56 -161.7z"/>
    <path class="fil1" d="M24984.84 14803.62l-361.4 285.33 38.04 266.31 418.48 0 -23.77 166.43 -266.31 280.57c0,0 95.12,242.52 133.16,261.55 38.05,19.02 280.57,247.28 280.57,247.28l85.6 114.14 185.47 -128.4c0,0 -66.57,-328.14 -33.29,-285.33 33.29,42.8 85.6,104.62 123.64,123.64 38.05,19.02 95.11,-14.26 95.11,-14.26l0 -152.17 71.33 -42.81 237.78 437.5 147.42 -47.55 -9.52 -375.68 -175.95 -256.79 128.4 33.28 28.53 -175.95 118.88 -104.62 -380.43 -237.76 -123.64 14.26 -280.57 -161.68 -61.83 -180.71 -375.7 -66.58z"/>
    <path class="fil1" d="M22607.13 15060.45l190.21 19.03c0,0 95.11,-61.83 83.22,-76.1 -11.89,-14.26 -116.51,-140.27 -116.51,-140.27l-40.41 -116.51 -109.38 -104.62 -109.38 -152.18 -87.97 14.26 -116.51 -26.16 -230.65 -14.26 -111.75 4.76 -199.73 128.4c0,0 42.81,121.26 64.2,145.04 21.4,23.78 68.96,149.79 68.96,149.79l92.73 149.8 -68.96 156.93 -33.29 104.62 -47.55 73.72 -59.44 78.46 -118.94 109.39 33.29 228.26 28.52 180.71 -9.5 204.48 -318.62 95.12 -52.3 228.26 166.43 114.13 137.92 71.34 -4.76 -156.95c0,0 104.6,99.89 133.14,137.92 28.55,38.03 214,95.1 214,95.1l394.69 9.52 418.48 0c0,0 171.19,-109.38 118.88,-161.69 -52.31,-52.3 -95.11,-171.19 -95.11,-171.19l204.49 -38.04 180.71 99.86 61.81 61.82 -104.62 166.44 -304.35 85.59 0 90.36 -285.33 128.4 -180.69 57.07 -475.55 52.34 -171.19 95.1 -185.47 142.66 -185.45 180.71 -142.67 156.93c0,0 -4.76,137.9 -4.76,194.97 0,57.07 23.77,204.5 52.31,218.76 28.54,14.26 104.62,80.84 128.4,118.88 23.79,38.05 -76.07,237.78 -66.57,280.57 9.5,42.79 33.27,204.48 -9.52,204.48 -42.79,0 -204.49,-42.78 -180.71,-4.75 23.78,38.04 99.86,218.76 128.4,242.53 28.54,23.77 161.69,85.59 161.69,85.59l42.8 118.89c0,0 57.06,52.31 61.82,85.59 4.76,33.29 -275.83,199.74 -233.02,237.78 42.8,38.05 123.64,185.46 123.64,185.46l-14.28 190.27 104.62 137.9 -57.07 275.81c0,0 104.62,47.55 190.22,71.34 85.59,23.78 347.15,90.35 347.15,90.35l-19.02 114.14c0,0 -180.71,95.11 -128.4,123.64 52.31,28.53 180.71,52.31 180.71,52.31l209.24 114.12 168.77 121.34 304.36 -28.54 71.33 90.34c0,0 -42.79,76.09 -14.27,80.85 28.53,4.76 746.61,-57.05 746.61,-57.05l-76.09 -76.09 133.15 -233.02 194.97 109.38 190.23 -228.26 204.48 99.86 285.33 -204.48 147.42 133.14 290.08 -380.43 95.11 161.69 161.69 -104.62 218.74 66.58 237.78 -71.34 190.21 -66.57 -118.88 142.66 -209.24 80.84 -137.9 128.4 -309.11 118.88 -109.38 57.07 -14.26 71.34 -66.58 85.59 -166.44 47.55 -118.89 137.91 1017.66 4.76 47.57 -161.69 -66.57 -328.12 114.12 -95.12 223.5 47.57 95.11 -28.54 47.55 114.13 42.81 147.41 128.4 118.9 194.97 -61.83 209.24 -90.35 -19.02 -214 -147.43 -147.41 28.55 -147.42 -252.05 76.09 -118.88 152.17 -61.83 23.78 -85.59 -66.57 9.5 -137.92 123.64 -76.08 -133.14 -152.18 -133.16 0 -171.19 4.76 -23.79 -71.34 156.95 -142.66 104.61 57.07 -99.87 -399.45 142.66 76.07 104.62 -156.92 156.95 -38.05 52.31 -99.86 47.55 -351.9 -156.93 -9.51 -209.24 80.84 -118.9 -23.78 -14.26 -76.08 123.64 -147.42 -133.14 -114.13 -33.29 -152.18 223.5 -128.39 166.43 -85.61 76.09 -52.31 142.67 80.86 118.88 -9.52 95.12 -90.36 90.39 -218.73c0,0 99.88,-95.1 128.4,-80.83 28.53,14.26 242.53,80.83 242.53,80.83l247.28 -52.3 80.85 -85.6 109.37 123.64 118.89 90.36 185.46 -47.57 -19.02 114.14 -95.1 152.17 99.85 90.35 261.55 85.6 223.52 -80.84 128.38 71.33 71.34 71.34 152.18 -190.22c0,0 104.63,14.27 109.38,42.79 4.74,28.53 -38.05,175.95 -38.05,175.95 0,0 57.07,194.98 90.36,175.96 33.28,-19.03 175.95,-366.17 204.47,-366.17 28.53,0 180.72,-28.53 180.72,-28.53l14.26 118.88c0,0 123.64,66.59 156.93,71.34 33.28,4.74 209.23,28.52 209.23,28.52l4.76 118.89 175.95 33.28 95.12 -175.95 -61.83 -228.26 85.6 -95.1 -147.41 -185.47 71.33 -104.62 -90.36 -166.43 -142.66 190.22 -23.78 -209.24 -76.08 -252.04 -4.76 -61.82c0,0 -128.4,9.49 -142.66,38.03 -14.27,28.54 -61.83,156.95 -61.83,156.95l57.07 280.57 -175.95 99.85 -285.33 -9.5 -156.93 -118.9 -118.88 -80.83 47.55 -171.19 52.31 -185.47c0,0 -204.5,-123.65 -233.02,-123.65 -28.53,0 -223.52,-66.55 -175.95,9.52 47.56,76.08 95.11,204.48 95.11,204.48l-152.18 142.67 28.54 209.23 -4.76 133.15 -104.62 14.28 -28.53 -190.23 -90.35 -294.84 -185.47 9.52 -71.33 128.39 -128.4 4.76 -218.75 47.55 -171.2 33.29 -99.86 -190.22c0,0 -218.76,85.61 -252.04,118.9 -33.29,33.28 -156.93,123.64 -156.93,123.64 0,0 33.3,-109.39 80.85,-156.94 47.55,-47.55 114.12,-261.55 114.12,-261.55 0,0 61.84,-9.5 99.87,23.78 38.04,33.29 171.2,104.62 171.2,104.62l104.62 19.02 194.97 -156.92 256.79 -128.41 256.8 9.52c0,0 47.53,-337.63 80.84,-342.39 33.3,-4.76 66.58,-28.53 66.58,-28.53l175.95 199.72 80.84 0 114.14 -133.15 133.14 52.31 118.89 -85.59 118.89 -85.6 -114.14 -109.38 -123.64 -99.87 -328.12 137.92 -71.33 -114.14 -209.24 -28.53 -104.63 95.1 -185.45 -99.86 -118.89 -76.09 -442.25 523.11 -161.69 -80.85 -14.27 47.56 -90.35 171.19 -161.69 -85.59 -4.76 -228.26 -228.26 123.64 -290.09 290.07 4.76 166.45 -128.4 14.26 19.03 -104.61 -180.71 90.35 0 38.05 -114.13 4.74 -147.42 104.62c0,0 -142.67,-28.54 -156.93,0 -14.26,28.54 -104.62,104.62 -104.62,104.62l-171.19 61.83 -47.56 142.66 -4.75 61.82 -71.33 80.85 -104.62 -28.55 -99.87 -104.61 -156.93 95.11 57.07 -204.49 -66.58 -152.17 -152.18 -80.84 -166.43 90.36 -118.9 99.86 -204.48 33.28c0,0 -109.39,19.03 -152.18,19.03 -42.79,0 -104.62,0 -104.62,0l-38.04 114.12 61.82 152.18 -4.76 61.82 -223.5 38.04 -223.5 9.52 -133.16 -38.04 -57.07 -133.17 90.36 -109.37 -14.27 -142.65 185.46 -57.07 199.73 -90.36 118.89 23.78c0,0 42.8,28.53 76.09,28.53 33.28,0 233.02,-57.07 233.02,-57.07 0,0 137.92,-66.57 166.44,-66.57 28.53,0 66.58,28.53 66.58,28.53l38.04 -152.17 156.93 -19.02 142.66 -166.44c0,0 28.53,-128.41 -23.78,-152.18 -52.31,-23.77 -275.81,-180.71 -275.81,-180.71 0,0 -280.57,109.38 -304.35,142.66 -23.78,33.29 -266.31,199.74 -266.31,199.74l-66.57 133.14 -14.26 -133.14 -23.78 -71.33 -166.45 -28.53 -76.08 -190.22 128.39 -152.18 233.02 -14.26c0,0 57.07,38.03 109.38,47.55 52.3,9.52 114.13,-14.28 166.44,-19.03 52.31,-4.74 233.01,-95.1 233.01,-95.1l-90.34 -256.8 -28.54 -152.17 -38.05 -57.07 -228.26 0 -118.88 -19.02 133.14 -242.52 95.12 -85.6 194.97 57.07 171.19 -42.8 -266.33 -290.05 -280.57 0 -123.64 -71.33 -223.5 -38.03c0,0 -161.69,52.31 -161.69,80.83 0,28.53 -71.33,237.77 -71.33,237.77l-57.07 161.69 -214 61.82 -161.69 71.34 -95.1 218.74c0,0 -142.66,14.26 -166.44,-19.03 -23.79,-33.28 -156.93,-142.66 -156.93,-142.66 0,0 -42.79,-104.62 42.8,-104.62 85.6,0 252.03,-42.79 252.03,-42.79l-14.26 -85.6 -133.15 19.03 -185.47 -33.3 -57.07 -161.68 4.76 -161.68c0,0 -4.76,-128.39 52.31,-137.91 57.07,-9.52 185.47,-42.8 185.47,-42.8l180.7 0 123.64 -47.55 118.9 -80.86c0,0 185.45,-85.59 223.5,-85.59 38.04,0 204.48,-66.57 204.48,-66.57l-142.67 -142.67 -256.79 71.33 -299.59 185.47 -114.12 -52.31 -218.76 19.01 -161.69 85.61 23.79 -104.62 66.57 -156.94 223.5 -61.81 64.32 -26.39zm1076.95 3550.17l190.22 0 19.02 142.65 218.74 9.52 171.19 -66.58 228.26 66.58 152.19 -142.67 199.73 -66.57 190.22 -180.71 361.4 28.53 228.26 47.56 -38.04 209.24 -237.77 -28.54 19.02 237.77 -171.19 -66.57 -313.87 85.6 -114.12 123.64 -313.86 -85.6 -133.16 28.53 -114.12 66.57 -266.31 -66.57 -275.81 0 -47.56 -114.12 47.56 -228.26zm-1027.18 1131.78l332.88 -142.66 275.81 -28.53 180.71 -161.69 190.22 266.31 266.3 -66.58 95.12 -123.64 190.21 -133.16 247.29 28.54 275.81 0 247.28 -47.56 0 114.14 199.73 123.64 266.31 0 95.1 85.59 -76.08 247.29 -228.26 -57.07 -95.11 -66.57 -228.26 114.13 19.02 142.65 0 123.65c0,0 -76.09,47.56 -161.69,47.56 -85.59,0 -389.94,0 -389.94,0l19.02 -237.78 66.57 -85.59 -218.74 -114.13 -76.09 152.17 -161.69 -85.59 38.05 171.19 -123.65 180.71 -114.12 -199.74 -152.18 95.12 -104.62 152.17 0 171.19 -66.57 161.69 -323.38 -9.51 -57.05 -123.64 -47.57 -152.18 190.22 -95.1 66.59 -275.81 -161.69 -28.54 -180.71 38.04 -256.79 -9.5 -38.05 -171.21zm-922.56 -142.58l247.29 -18.24c114.13,54.75 247.28,-18.25 247.28,-18.25l-104.62 -209.91 -66.57 -82.13 95.11 -109.53 -123.64 -265.83 228.26 38.05 199.72 -152.17 104.62 19.02 152.18 19.02 256.79 -285.32 85.6 -171.2 -104.62 -228.26 -152.17 -95.11 -104.62 19.02 -171.21 -85.59 -294.83 19.02 -114.12 104.62 38.04 199.72 152.17 123.64 85.6 133.16 -28.53 104.62 -152.18 -38.05 -152.17 -180.71 -85.6 123.64 -142.66 218.76 -114.14 0 57.07 199.72 114.14 190.23 -133.16 323.36 -19.03 104.7z"/>
    <polygon class="fil1" points="26271,20103.84 26451.71,20118.11 26456.47,19818.52 26470.73,19709.14 26328.06,19552.21 26166.38,19504.65 26057,19661.58 26009.45,19856.55 26118.83,19904.12 "/>
    <path class="fil1" d="M26806.05 19832.78l242.53 -33.28 116.39 -104.62 -92.14 -133.16 82.45 -109.38 101.86 -95.1 247.37 85.6 24.24 114.12 135.82 -28.53 101.84 -361.4 111.57 57.05 218.26 71.33 43.64 -118.88 -4.84 -152.17 -116.41 4.75 -4.8 -180.61 -97.02 -61.83 -150.37 0 -130.94 57.07 -97.02 9.52 -82.44 -66.59 -155.22 -47.55c0,0 -184.29,23.77 -203.7,52.31 -19.4,28.54 -145.53,71.33 -160.06,104.62 -14.56,33.28 -97.02,123.64 -87.31,180.71 9.7,57.07 29.09,95.1 0,152.17 -29.1,57.06 -169.75,109.37 -141.21,109.37l-171.21 -76.09c0,0 -95.1,123.64 -61.81,161.69 33.28,38.05 38.03,23.8 66.57,80.85 28.54,57.06 66.59,85.6 95.11,137.91 28.53,52.31 14.28,76.09 38.05,104.61 23.77,28.53 130.8,85.51 130.8,85.51z"/>
    <path class="fil1" d="M26826.25 18508.49l179.48 128.4 -69.8 99.86 -109.68 114.13 -115.36 -71.33c0,0 -118.86,-128.39 -114.12,-171.19 4.75,-42.81 4.75,-95.11 4.75,-95.11 0,0 -38.05,-47.55 19.02,-85.6 57.07,-38.05 166.45,-99.87 199.73,-128.4 33.29,-28.53 38.05,-66.57 90.36,-52.31 52.31,14.26 142.66,23.78 142.66,23.78l123.64 71.33 -4.76 152.17c0,0 -4.77,4.76 -80.85,4.76 -76.07,0 -265.07,9.51 -265.07,9.51z"/>
    <path class="fil1" d="M27538.38 20819.65l-85.59 0 -85.6 0 -190.23 -20.51 -190.21 -164.06 142.66 -266.61 66.58 -157.51 342.39 -275.81 228.26 123.64c0,0 47.54,66.57 114.13,66.57 66.58,0 85.59,-38.03 180.71,-85.6 95.11,-47.56 133.16,-95.11 133.16,-95.11l95.1 66.57c199.73,114.14 332.88,85.61 561.14,133.16 228.26,47.55 389.95,133.15 389.95,133.15l199.73 -38.05 95.1 380.45 -361.41 171.19 -247.28 -28.53 237.76 152.17c0,0 304.34,147.01 104.62,125.81 -199.72,-21.19 -370.91,0 -370.91,0l-66.59 0 -294.83 -97.28c0,0 -142.66,-95.09 -190.21,-161.68 -47.55,-66.58 -171.2,-266.32 -85.6,-133.16 85.6,133.16 133.15,285.33 133.15,285.33l0 106.79 -218.75 0 -161.68 -59.24 -85.6 59.24 -342.4 -125.81 -47.55 -95.11z"/>
    <path class="fil1" d="M20819.89 18023.47c0,0 -38.06,85.59 -4.76,104.62 33.29,19.02 -23.78,275.81 -23.78,275.81l-22.31 107 -42.81 42.81c0,0 -38.04,7.13 -85.59,-16.65 -47.55,-23.79 -87.97,-26.17 -73.71,-49.94 14.26,-23.77 33.29,-52.31 33.29,-52.31 0,0 -28.53,-99.86 -33.29,-133.15 -4.76,-33.28 -40.42,-64.21 -40.42,-80.85 0,-16.63 -40.42,-57.07 -11.89,-104.62 28.53,-47.55 128.4,-102.23 128.4,-102.23l176.87 9.51z"/>
    <path class="fil1" d="M21014.85 16756.14l-74.64 180.69 156.93 76.09 99.86 -266.3c0,0 23.77,-85.6 -19.02,-118.88 -42.79,-33.29 -180.71,-109.38 -194.98,-142.67 -14.26,-33.29 -152.16,-214 -152.16,-214 0,0 -28.53,-52.31 -99.86,-52.31 -71.34,0 -209.26,0 -209.26,0l-85.59 -109.37c0,0 -118.87,28.54 -57.06,114.13 61.82,85.6 137.91,166.45 156.93,199.74 19.03,33.28 47.54,52.31 128.39,118.88 80.85,66.57 95.11,114.14 95.11,142.66 0,28.53 0,61.82 0,61.82l123.65 23.78 131.7 -14.26z"/>
    <path class="fil1" d="M27474.15 16413.78l204.5 52.31 128.38 -152.17 204.5 142.65 194.97 -109.36c0,0 133.13,57.05 166.43,57.05 33.3,0 214,-47.55 214,-47.55 0,0 4.77,-61.81 47.56,-33.28 42.79,28.52 171.2,171.19 171.2,171.19l328.12 -23.77 237.77 -166.45 -19.02 -228.26 -66.57 -223.5 -161.69 23.77 -218.76 233.02 -166.43 -152.17c0,0 -152.18,-38.04 -180.71,-38.04 -28.53,0 -209.24,-42.81 -209.24,-42.81l-175.95 -23.77 -95.11 166.43 -128.4 161.69 -95.1 -142.66c0,0 -114.15,-118.87 -171.21,-128.39 -57.05,-9.52 -161.69,66.56 -118.88,95.1 42.8,28.54 9.5,9.53 -71.33,-23.77 -80.84,-33.3 -218.76,-118.89 -218.76,-118.89l-99.86 228.26c0,0 -133.16,114.12 -123.64,142.66 9.52,28.54 166.45,128.4 166.45,128.4l256.78 52.31z"/>
    <path class="fil1" d="M9579.38 -68.49l-170.94 20.12 -161.94 27.43 -285.33 161.69 -38.05 190.22 9.52 237.77 -114.14 256.79 19.03 180.71 523.09 152.17 114.14 -247.28 171.19 -247.27 118.88 -109.38c0,0 -142.66,14.28 -175.95,-23.77 -33.29,-38.04 -104.62,-137.9 -104.62,-194.97 0,-57.07 -38.05,-137.92 -19.02,-180.71 19.02,-42.79 57.07,-114.12 57.07,-114.12l57.07 -109.4z"/>
    <path class="fil1" d="M9535.95 1377.18l132.11 37.75 99.09 80.2 47.19 174.57 103.8 -122.66 66.05 37.74c0,0 75.49,316.11 75.49,344.41 0,28.31 -89.65,150.98 -89.65,150.98l-146.26 -23.58 -136.83 -42.46 -84.92 99.08 -117.96 117.95 84.93 108.51 226.47 -184c0,0 122.66,4.71 132.11,37.74 9.43,33.03 9.43,103.8 9.43,136.83 0,33.01 -75.49,146.26 -108.52,146.26 -33.02,0 -136.82,70.77 -215.82,113.32 -76.09,33.28 -361.42,-28.55 -361.42,-28.55 0,0 -61.8,-71.31 -109.36,-38.03 -47.57,33.29 -114.14,204.48 -114.14,204.48 0,0 -4.76,80.85 0,128.4 4.76,47.55 -19.01,166.43 -47.55,166.43 -28.54,0 -57.07,52.3 -114.14,14.27 -57.07,-38.03 -104.6,-23.78 -95.1,-66.57 9.51,-42.8 85.6,-218.75 85.6,-218.75l-95.12 -166.44c0,0 -28.54,-19.03 -19.02,-52.31 9.52,-33.29 147.42,-185.46 147.42,-185.46 0,0 147.43,-61.83 175.96,-61.83 28.52,0 19,57.07 80.83,0 61.83,-57.06 109.38,-199.73 109.38,-199.73 0,0 61.81,-57.04 104.62,-90.34 42.8,-33.3 114.14,-214 114.14,-214l95.1 -90.35 -156.93 -23.78 -19.02 -57.07 33.28 -161.68 108.76 -71.33z"/>
    <path class="fil1" d="M7396.63 1528.76l101.63 -37.46 88.59 -85.59 99.85 285.33 128.41 66.57 14.26 156.93c0,0 -66.57,156.93 -104.62,137.9 -38.05,-19.02 -128.4,-114.12 -128.4,-114.12l-109.38 -133.16 -99.86 -57.05 -85.59 -114.14 95.11 -105.21z"/>
    <path class="fil1" d="M9613.98 3373.65l136.49 -22.95c0,0 -112.11,151.45 -126.74,179 -14.62,27.55 -141.35,0 -141.35,0l-102.36 9.19 -116.99 -9.19c0,0 -82.86,-78.02 -83.22,-49.14 -14.27,31.34 -9.51,308.98 -9.51,308.98l123.65 131.82c0,0 133.14,57.06 166.43,61.81 33.28,4.76 137.9,-109.37 137.9,-109.37l147.43 -76.08c0,0 128.4,0 180.71,0 52.31,0 161.68,-137.92 161.68,-166.45 0,-28.52 61.82,-209.23 61.82,-209.23l95.11 -95.12 -80.85 -33.29 -118.88 -33.28 -71.33 -133.15c0,0 -14.27,-66.59 -85.6,-66.59 -71.33,0 -218.75,4.76 -218.75,4.76 0,0 -38.05,85.6 -66.58,118.89 -28.52,33.28 -114.12,161.68 -114.12,161.68l125.06 27.71z"/>
    <polygon class="fil1" points="11410.36,2832.38 11276.93,2718.25 11389.01,2675.46 11509.95,2651.67 11633.59,2727.76 11690.66,2794.34 11804.78,2780.07 11857.09,2827.62 11880.87,2941.76 11757.23,2965.53 11766.73,3084.43 11819.04,3184.29 11833.31,3341.21 11685.9,3388.76 11557.5,3288.9 11367.28,3241.35 11305.45,3098.69 11381.55,2941.76 "/>
    <path class="fil1" d="M9041.85 5038.91l66.57 -161.69 142.66 -80.83c0,0 123.63,9.49 166.44,-9.52 42.8,-19.01 123.64,-133.15 123.64,-133.15l133.16 -166.45c0,0 61.83,-33.27 85.59,-4.74 23.77,28.53 19.03,137.9 19.03,137.9l-95.12 85.6c0,0 -123.64,90.34 -161.69,133.15 -38.04,42.8 -156.92,171.2 -156.92,171.2 0,0 -95.1,52.3 -133.15,57.06 -38.05,4.76 -104.62,19.02 -104.62,19.02l-85.59 -47.55z"/>
    <path class="fil1" d="M7534.26 6551.17l-47.55 137.9 -47.55 99.86c0,0 -23.78,76.11 9.51,99.87 33.28,23.77 213.99,85.6 213.99,85.6l214 -28.54 137.91 -152.17 114.13 -147.42 -23.78 -137.91 -175.95 -109.38 -242.52 -38.03 -4.76 104.62 95.11 114.12 -57.07 99.86 -57.07 -42.79 -128.4 -85.59z"/>
    <path class="fil1" d="M6754.27 8496.2l180.71 9.51 109.35 -123.63 80.85 26.15 35.66 99.86 -21.4 106.99 -59.44 152.19 -61.83 71.33 -164.06 4.75c0,0 -47.56,76.1 -71.33,73.71 -23.77,-2.38 -116.5,-21.41 -133.15,-42.8 -16.65,-21.4 -42.8,-97.49 -42.8,-116.51 0,-19.02 19.02,-106.98 38.04,-128.39 19.03,-21.41 87.97,-73.72 99.86,-87.98 11.89,-14.26 9.54,-45.18 9.54,-45.18z"/>
    <path class="fil1" d="M7866.91 9934.74l78.47 102 0 114.37 102.23 95.11 99.87 28.53 78.47 -116.51c0,0 -11.9,-107.01 0,-123.64 11.89,-16.64 38.04,-40.42 38.04,-40.42 0,0 35.66,16.65 47.55,38.05 11.89,21.39 42.79,68.94 33.29,92.72 -9.51,23.79 -45.18,78.47 -45.18,78.47 0,0 142.66,73.72 168.82,49.93 26.15,-23.78 118.9,-71.33 114.14,-111.75 -4.76,-40.41 7.11,-78.46 -14.28,-104.61 -21.4,-26.16 -68.96,-78.47 -85.6,-90.36 -16.63,-11.89 -71.31,-49.94 -76.07,-78.46 -4.76,-28.53 7.11,-52.31 -9.52,-59.45 -16.64,-7.13 -142.67,-30.91 -142.67,-30.91 0,0 -40.42,-16.65 -85.59,-16.65 -45.18,0 -109.4,2.37 -121.27,26.16 -11.88,23.78 -16.64,61.81 -54.68,64.2 -38.05,2.38 -90.36,7.13 -90.36,7.13l-35.66 76.09z"/>
    <path class="fil1" d="M8722.9 10457.83c0,0 114.12,23.78 147.41,-9.5 33.28,-33.29 76.08,-114.12 104.62,-137.91 28.54,-23.78 118.89,-28.54 118.89,-28.54l54.69 -4.76c0,0 30.9,-47.56 59.44,-71.33 28.54,-23.77 61.82,-61.81 64.2,-92.73 2.37,-30.91 -52.33,-114.12 -87.99,-137.9 -35.65,-23.79 -83.2,-87.99 -126.01,-76.09 -42.8,11.89 -161.67,76.1 -197.35,99.87 -35.67,23.77 -85.61,106.98 -92.74,135.52 -7.13,28.54 -35.66,111.75 -47.55,135.53 -11.89,23.78 -83.22,90.36 -83.22,90.36l28.54 30.91 57.07 66.57z"/>
    <path class="fil1" d="M2933.12 9137.33l180.71 84.11 104.62 -290.08c0,0 61.83,-90.36 137.91,-109.38 76.07,-19.02 23.77,-156.93 23.77,-156.93l-171.2 -142.66 -156.92 123.64 -33.29 114.12 -57.07 147.42 -90.35 4.76 61.82 128.4 0 96.6z"/>
    <path class="fil1" d="M3560.76 10681.39l133.15 180.71 149.77 -80.84c0,0 16.66,-4.74 26.17,23.79 9.5,28.52 54.68,135.53 54.68,135.53 0,0 16.65,38.05 0,66.57 -16.65,28.53 -73.71,102.25 -85.6,116.51 -11.89,14.27 -64.21,92.73 -87.98,106.99 -23.77,14.27 -47.55,47.57 -78.46,35.68 -30.92,-11.89 -118.9,-59.44 -135.54,-76.09 -16.63,-16.65 -76.07,-57.07 -76.07,-57.07 0,0 -111.75,-7.13 -97.49,-28.53 14.26,-21.4 42.79,-68.95 66.57,-85.6 23.78,-16.65 64.2,-61.82 64.2,-61.82l-71.33 -40.42c0,0 -2.39,-66.56 21.4,-99.86 23.78,-33.3 33.28,-57.07 59.44,-76.09 26.15,-19.03 35.67,-38.05 35.67,-38.05l21.42 -21.41z"/>
    <path class="fil1" d="M4262.17 10612.45c0,0 21.38,14.24 49.92,21.39 28.54,7.13 71.35,-19.02 87.97,-54.68 16.65,-35.65 68.97,-166.43 68.97,-166.43 0,0 87.48,-43.02 108.89,-47.77 0,0 -40.76,-117.17 -40.76,-117.17 0,0 -48.01,-55.23 -48.01,-55.23 0,0 107.91,-189.95 106.4,-187.37 -10.12,17.59 -188.36,-1.43 -214.5,-1.43 -26.16,0 -68.95,-80.85 -87.98,-57.06 -19.01,23.77 -35.66,140.28 -35.66,140.28 0,0 -68.98,126.03 -64.2,159.29 4.74,33.28 21.39,135.53 21.39,159.31 0,23.78 0,85.6 11.89,106.99 11.89,21.43 40.42,71.35 40.42,71.35l-4.74 28.53z"/>
    <path class="fil1" d="M3289.67 10610.07c0,0 97.5,59.43 126.03,54.69 28.53,-4.75 114.12,-87.99 126.01,-135.54 11.89,-47.55 45.19,-95.11 23.78,-123.64 -21.41,-28.53 -19.02,64.19 -57.06,-71.33 -38.05,-135.52 -45.17,-154.53 -47.55,-168.81 -2.39,-14.27 -35.68,-61.82 -35.68,-61.82l-121.25 -45.18 -104.62 -23.78c0,0 -88,-16.64 -111.77,-16.64 -23.76,0 -126.01,33.29 -126.01,33.29l38.05 147.42c0,0 61.81,38.03 61.81,54.68 0,16.65 -33.29,95.12 -33.29,95.12l-23.77 23.76 9.51 104.62c0,0 9.5,-14.25 21.39,14.28 11.9,28.53 57.07,102.23 57.07,102.23 0,0 78.48,9.52 95.12,9.52 16.63,0 102.23,7.13 102.23,7.13z"/>
    <path class="fil1" d="M5075.28 9922.91l16.65 149.79 -59.44 87.97 -26.16 68.96 -59.44 116.51 30.9 118.88 61.83 90.36 126.01 87.97c0,0 123.66,-54.7 145.05,-64.21 21.4,-9.5 -19.01,-145.03 -26.15,-171.19 -7.15,-26.15 30.91,-57.05 47.55,-47.55 16.63,9.51 83.22,61.82 83.22,61.82 0,0 30.9,-152.17 30.9,-178.33 0,-26.15 -28.53,-187.84 -28.53,-187.84 0,0 78.47,-19.01 104.62,-16.63 26.16,2.37 92.73,59.42 142.67,42.79 49.93,-16.64 126.01,-133.15 126.01,-178.33 0,-45.18 -2.37,-140.29 -2.37,-140.29 0,0 -42.81,-71.33 -68.96,-71.33 -26.16,0 -209.24,-19.02 -230.63,-19.02 -21.4,0 -92.72,16.63 -133.15,59.44 -40.43,42.8 -126.01,149.81 -135.53,164.07 -9.52,14.26 -99.88,26.16 -99.88,26.16l-45.17 0z"/>
    <path class="fil1" d="M7695.48 13965.05c0,0 128.37,161.69 161.67,161.69 33.3,0 261.56,9.5 261.56,9.5l4.74 -137.91 128.41 -237.77 -194.98 -114.13 -156.93 23.78c0,0 -133.14,9.51 -156.92,47.55 -23.79,38.05 -38.05,190.22 -38.05,190.22l-9.5 57.07z"/>
    <path class="fil1" d="M7743.03 14744.94l50.18 -173.37 82.96 -178.54 204.49 52.32 114.13 -28.54c0,0 133.16,-99.86 185.47,-99.86 52.31,0 199.72,0 199.72,0l175.95 104.62 -109.37 133.14c0,0 -61.83,147.41 -61.83,175.96 0,28.54 0,80.85 0,80.85l-137.9 19.02 -252.04 23.77 114.13 133.16c0,0 -137.92,14.26 -185.47,33.28 -47.55,19.03 -123.64,57.07 -123.64,57.07l-42.79 -171.2 -204.49 -33.29 -9.5 -128.39z"/>
    <path class="fil1" d="M7257.91 15715.05l-142.67 -104.62c0,0 -137.9,-38.04 -137.9,-66.57 0,-28.53 0,-199.73 0,-199.73 0,0 52.31,-128.37 71.33,-161.67 19.02,-33.31 90.35,-161.69 90.35,-161.69l370.93 4.74 -42.81 76.09c0,0 -128.4,33.31 -128.4,61.83 0,28.53 33.29,190.2 38.05,218.74 4.76,28.55 57.07,85.61 19.02,114.14 -38.04,28.53 -99.86,19.02 -104.62,47.55 -4.76,28.53 -33.28,171.19 -33.28,171.19z"/>
    <path class="fil1" d="M6210.44 15300.16l175.95 0c0,0 14.28,-128.39 61.83,-147.41 47.55,-19.02 133.14,-133.16 133.14,-133.16l118.9 -28.53 68.95 147.41 -4.76 92.74c0,0 -9.51,57.07 -21.4,73.71 -11.89,16.63 -35.67,68.94 -23.78,92.73 11.89,23.78 40.42,90.35 40.42,104.61 0,14.27 -47.55,111.76 -47.55,111.76 0,0 -47.57,9.51 -80.85,16.65 -33.29,7.13 -149.8,-76.1 -149.8,-76.1l-83.21 -26.15 -152.18 -21.4c0,0 -121.26,-40.43 -114.13,-61.82 7.14,-21.4 16.66,-66.56 38.05,-90.34 21.4,-23.79 40.42,-54.7 40.42,-54.7z"/>
    <path class="fil1" d="M6303.17 16099.08l80.83 -118.88c0,0 71.34,-35.66 87.99,-38.05 16.65,-2.39 156.92,14.26 156.92,14.26 0,0 38.04,-80.83 66.58,-73.7 28.54,7.13 109.37,52.31 109.37,52.31l76.1 121.25 83.22 83.23 -87.98 97.48 -116.51 -7.13 -106.99 -68.96 2.37 -78.46 -66.57 68.96 -78.47 59.44 -206.86 -111.75z"/>
    <path class="fil1" d="M5706.31 13562.04l99.87 -137.9c0,0 66.56,-114.12 23.77,-171.19 -42.79,-57.07 -128.38,-161.69 -128.38,-161.69l14.26 -90.36 -109.38 -99.85c0,0 -133.14,-52.31 -137.9,0 -4.76,52.3 9.5,228.26 9.5,228.26 0,0 -23.78,142.66 19.02,180.71 42.81,38.04 147.43,104.61 147.43,104.61l61.81 147.41z"/>
    <path class="fil1" d="M5363.93 13817.75l164.91 -94.23c0,0 122.5,-23.56 160.2,-23.56 37.7,0 188.48,0 193.22,0l14.28 218.75 118.88 57.06 85.6 -61.82 114.14 114.13c0,0 -14.27,71.32 -71.34,80.84 -57.07,9.52 -114.13,114.14 -114.13,114.14 0,0 -38.04,294.83 -80.84,261.54 -42.81,-33.28 -147.41,-161.67 -161.69,-190.21 -14.28,-28.54 -66.59,-199.73 -66.59,-199.73 0,0 -85.58,-71.34 -128.38,-90.36 -42.81,-19.02 -175.95,-76.08 -175.95,-76.08l-52.31 -110.47z"/>
    <path class="fil1" d="M3878.75 2958.67l24.31 -56.46 -24.31 -172.99 -272.46 91.78 -87.58 142.26c0,0 34.04,220.26 38.9,247.81 4.88,27.54 14.61,174.39 14.61,198.17l267.6 4.76 97.3 137.9 107.05 133.15 209.21 -14.26c0,0 107.04,80.83 107.04,14.26 0,-66.57 0,-185.46 0,-185.46l-123.65 -199.73 328.12 -280.57 -280.57 -137.9 -23.76 299.59 -218.76 39.31 -90.36 -253.31 -72.69 -8.31z"/>
    <path class="fil1" d="M5421.01 3452.03l-22.52 114.14 112.56 66.57 81.04 -57.07c0,0 4.5,-456.52 -27.01,-456.52 -31.51,0 -85.55,71.33 -85.55,71.33l-130.56 -14.26 -113.54 38.04 76.07 247.29 109.51 -9.52z"/>
    <path class="fil1" d="M4931.07 3856.25c0,0 28.55,90.35 57.07,90.35 28.53,0 123.63,4.74 161.68,-19.03 38.04,-23.76 114.13,-85.59 114.13,-85.59l90.36 118.89 23.78 90.34 133.15 -23.76 57.06 -33.29 0 209.24 -33.28 152.17 19.02 99.86 -85.61 95.11 -9.5 95.11 -142.67 -95.11 -14.26 -147.42 -194.98 -128.39 -147.42 -61.83 -114.12 -118.88 -38.05 -175.95 123.64 -61.82z"/>
    <path class="fil1" d="M4555.36 4978.56l156.93 61.83c0,0 71.35,-47.58 99.87,-52.32 28.53,-4.75 95.1,-4.75 95.1,-4.75l4.76 152.17 -80.83 156.93c0,0 -52.31,104.63 -109.38,114.14 -57.07,9.5 -204.48,14.26 -204.48,14.26l-109.38 -90.36 95.1 -118.88 19.02 -175.95 33.29 -57.07z"/>
    <path class="fil1" d="M4265.29 5684.78c0,0 80.85,-71.33 97.48,-83.22 16.64,-11.89 76.08,23.78 76.08,23.78l68.96 104.62 -33.29 116.51 -19.02 66.57 -47.55 61.82c0,0 -133.16,7.13 -147.42,7.13 -14.27,0 -121.27,0 -121.27,0l-76.09 -73.71 -19.01 -154.55 59.44 -87.97 83.21 -16.65 78.48 35.67z"/>
    <polygon class="fil1" points="5363.77,6012.95 5449.36,6079.52 5496.91,6459.95 5306.7,6640.66 5078.44,6536.04 5278.17,6203.16 "/>
    <path class="fil1" d="M6000.99 6488.53l171.19 -66.57 161.68 -190.22 -197.36 -209.25 -109.37 -28.52 61.82 -52.31 87.97 -2.39 128.4 45.18 178.34 0 97.49 -80.84 -35.68 -40.42 -97.48 -64.2 -173.58 -152.18 118.9 11.89 199.73 -4.75 92.76 -137.9 21.39 -87.97 -116.51 -52.31 -14.26 -116.51c0,0 14.26,-83.22 19.02,-97.49 4.76,-14.26 -16.65,-68.95 -16.65,-68.95l-104.62 -28.53 -133.14 40.42 -78.47 4.76 26.16 -49.94c0,0 30.91,-64.19 45.17,-73.71 14.27,-9.51 7.14,-114.13 7.14,-114.13 0,0 -2.39,-64.19 -42.81,-126.02 -40.42,-61.83 -85.6,-118.89 -85.6,-118.89 0,0 -54.69,-19.03 -68.96,26.15 -14.26,45.18 7.15,109.38 7.15,109.38l-40.43 21.39 -16.64 54.7 -9.52 80.84 30.92 49.93 133.16 4.76 0 54.68 -80.85 54.7 -57.07 0 -9.51 90.36 -45.17 11.87 9.5 90.36 -30.9 87.98 -40.43 64.2 16.65 76.08 -59.44 92.74 0 49.92 -40.42 19.03 14.26 128.4 -21.41 118.88 -68.94 68.96 -66.6 102.32 7.13 47.55 64.11 102.29 23.78 142.66 80.84 99.86 61.83 85.6 -4.67 -73.84z"/>
    <path class="fil1" d="M6295.73 4567.46l90.36 21.4 -21.4 73.72 73.71 76.08c0,0 61.83,52.32 76.09,52.32 14.26,0 35.67,-76.11 57.07,-92.74 21.39,-16.64 92.73,-64.19 106.99,-73.71 14.26,-9.52 97.49,-102.24 97.49,-102.24l28.54 -80.84 183.08 -19.02c0,0 -99.87,-80.85 -114.14,-80.85 -14.26,0 -152.17,-38.05 -152.17,-38.05l-102.24 -66.57 26.15 -123.64c0,0 -45.18,-52.3 -71.33,-54.69 -26.15,-2.38 -71.35,0.02 -102.25,-7.13 -30.9,-7.14 -106.99,-11.89 -106.99,-11.89l-47.55 23.77 38.03 64.2 52.31 57.07 -45.16 102.24 -47.56 73.71 -99.86 87.98 -54.7 4.75 -16.64 38.04 -23.78 87.99 57.07 -9.52 87.98 -11.88 30.9 9.5z"/>
    <polygon class="fil1" points="6421.75,3949.26 6502.6,3835.13 6493.08,3573.59 6554.91,3478.47 6640.5,3245.45 6540.63,3045.73 6317.13,2974.4 6226.77,3021.95 6155.44,3150.35 6107.89,3264.47 6112.65,3407.14 6088.87,3507 6141.18,3663.94 6231.53,3787.58 6326.65,3906.47 "/>
    <path class="fil1" d="M6174.46 2722.36l99.86 42.8 123.64 57.06 54.69 -99.86 -16.64 -68.96 -28.54 -99.86 -9.53 -168.82c0,0 -66.58,-121.26 -73.71,-104.62 -7.13,16.64 -4.74,59.43 -21.39,64.19 -16.65,4.76 -83.23,28.54 -83.23,28.54l-73.72 57.07 -11.87 68.94 2.37 104.62 38.07 118.9z"/>
    <path class="fil1" d="M3937.01 9850.77l28.54 99.86 137.91 23.78c0,0 86.18,-86.42 137.9,-57.07 51.72,29.35 61.81,-80.84 104.62,-85.6 42.8,-4.75 142.66,28.53 142.66,28.53l46.37 41.61c0,0 22.59,-14.26 22.59,-22.59 0,-8.32 -8.31,-109.37 -8.31,-120.07 0,-10.7 14.27,-91.55 14.27,-91.55l-39.23 -101.02 -130.77 -135.52 -97.49 -118.9 -118.9 -19.02 -145.03 49.94c0,0 -116.51,126.01 -116.51,142.66 0,16.65 -59.44,137.91 -59.44,137.91l-21.4 107 40.42 85.6 61.8 34.45z"/>
    <polygon class="fil1" points="3984.57,17688.56 4084.45,17800.45 4051.16,17954.31 4160.52,18089.51 4331.73,18145.46 4507.68,18000.92 4540.97,17767.82 4479.14,17669.91 4374.52,17660.39 4208.09,17674.66 4160.52,17579.56 4093.95,17565.28 "/>
    <path class="fil1" d="M3442.46 17593.82c-42.81,57.07 -133.16,109.38 -133.16,109.38l175.96 109.36 -52.32 66.59 -99.86 99.86 128.4 9.5 57.07 156.95c0,0 194.97,-57.09 223.5,-66.59 28.53,-9.51 104.62,-180.7 104.62,-180.7l-90.36 -104.62 -80.83 -61.82 -61.83 -19.03 -95.1 -128.4 -76.09 9.52z"/>
    <path class="fil1" d="M2535.76 17622.39c0,0 212.34,-76.08 269.41,-123.64 57.07,-47.57 152.17,-218.76 152.17,-218.76l47.56 -190.21 104.62 -247.29 -142.66 -133.16 -57.07 -256.78 -161.69 0 -161.67 237.76 -50.67 171.21 69.67 142.66 85.61 85.6 -155.28 114.12 0 418.49z"/>
    <path class="fil1" d="M3922.7 19764.7l168.82 -57.07 114.12 71.34 87.99 52.3 -19.03 107.01 -28.54 73.71c0,0 -19.01,83.22 -11.87,97.48 7.13,14.27 9.5,47.57 9.5,47.57 0,0 -76.08,21.39 -92.73,16.63 -16.65,-4.76 -114.14,-9.5 -133.16,-26.15 -19.02,-16.65 -97.48,-118.88 -97.48,-118.88l-42.8 -149.8 45.18 -114.14z"/>
    <path class="fil1" d="M2695.79 20078.56c19.02,0 116.51,-73.71 116.51,-73.71l45.18 -73.7 42.79 61.81c0,0 35.67,57.09 38.04,73.72 2.38,16.64 -47.55,99.86 -47.55,99.86l-16.65 85.6 -66.57 47.55 -85.6 0 -99.87 33.3 -21.39 47.55 -64.92 0 0 -316.25c0,0 45.91,9.52 62.54,9.52 16.64,0 97.49,4.75 97.49,4.75z"/>
   </g>
  </g>
  <polygon class="fil2" points="7.93,120.67 29707.93,120.67 29707.93,16826.91 7.93,16826.91 "/>
  <g>
   <g id="_2595911771312">
    <path class="fil3" d="M25150.72 5434.85c-346.34,206.79 -67.3,80.69 -492.62,247.01 -663.13,259.32 -519.9,119.51 -774.52,22.52 -192.39,-73.33 -459.38,-208.06 -630.14,-239.2l-75.99 -12.25c-75.81,-15.47 -129.6,-60.51 -230.77,-66.54 -118.05,0.95 -182.44,-1.77 -310,70.03 0.76,9.01 35.9,68.7 52.52,116.78 109.23,1.59 221.13,-14.33 307.46,-47.76 35.46,50.43 178.82,108.47 234.39,131.18 120.08,57.6 262.68,112.97 387.96,159.98 46.37,17.44 153.38,57.02 190.17,77.89 91.85,51.89 41.93,52.59 128.07,101.37 230.71,66.92 200.77,32.03 420.63,11.16l47.95 -8.12 51.32 -5.7c95.66,-80.75 532.58,-199.44 684.76,-304.04l308.03 -197.28c123.89,-26.7 235.21,129.41 260.4,195.63 -53.67,83.73 -305.44,341.59 -460.91,431.98l-22.01 22.52 -128.39 299.47c68.89,163.53 74.72,25.75 106.57,275.11l-35.08 77.83 -26.77 51.19 -84.05 162.26c-61.91,84.05 -117.73,96.29 -221.69,177.17 -179.08,139.43 -36.03,490.59 -206.29,670.87 -63.69,214.78 -237.56,570.96 -340.45,779.65 -192.13,390.05 -226.2,455.71 -257.09,848.55 -38.06,484.82 34.7,395.38 -281.96,681.65l-232.67 198.93c-101.24,72.63 -45.8,62.41 -129.6,137.71 -37.17,33.43 -43.76,29.43 -80.87,55.25l-1243.61 1099.49c-96.29,68.95 -49.1,57.78 -126.74,140.75 -92.61,99.02 -227.28,164.42 -311.01,256.15 -59.06,64.64 -44.72,80.75 -117.99,149.95 -52.27,49.42 -90.58,74.98 -147.8,122.11 -176.85,145.77 -176.79,536.14 -300.8,773.25 -58.16,232.87 -59.37,505.88 145.58,556.25l274.6 1.71 57.16 835.1c-85.07,75.54 -178.69,116.33 -232.99,219.41 17.19,184.84 121.15,284.5 -63.12,401.91 -183.26,116.84 72.82,219.86 -136.19,403.44 -152.43,133.84 -619.1,36.53 -888.95,158.2 -197.15,88.87 -199.75,102.57 -391.44,-24.55 -100.36,-1.39 -198.93,26.01 -258.62,0.19 -17.45,-7.55 -56.77,-44.66 -95.09,-65.84 -46.56,-25.82 -44.34,-22.4 -96.23,-36.03l-75.23 1.26c-28.54,144.25 -82.15,205.21 -144.5,337.09 -57.34,121.28 -10.4,14.91 -49.54,123.5l53.22 -41.8c80.37,-63.05 -37.36,-3.61 59.88,-45.61 110.06,54.62 45.99,114.62 73.78,35.52 87.15,-21.44 75.67,-52.84 120.65,-149.44 129.4,64.89 73.2,99.59 271.3,71.61 160.29,-22.65 170.19,30.58 318.56,60.52 143.17,31.9 208.57,-61.98 342.54,-99.97 101.75,-28.87 335.05,-39.33 439.84,-44.79 357.58,-18.46 501.44,-111.64 628.56,-317.61l-13.7 -206.92c49.54,-59.94 59.69,-44.02 101.18,-117.1 28.1,-49.41 39.71,-119.06 65.84,-178.94l-17.89 -149.83c-15.54,-90.84 4.19,-75.3 77.84,-132.45 191.18,-148.5 132.83,-119.13 117.66,-248.47l-45.48 -625.57c-12.75,-214.41 -16.87,-184.59 -89.57,-349.58l-357.76 -32.1c-49.92,-118.68 6.22,-348.76 75.87,-438.83 7.36,-110.75 45.35,-204.64 75.61,-312.47 49.29,-175.14 34.95,-144.12 139.62,-232.29 86.52,-72.95 84.74,-116.34 177.99,-198.17l288.37 -250.37c162.77,-210.66 154.39,-124.08 277.33,-261.15l578.19 -524.91c154.97,-118.62 71.49,-28.8 202.29,-174.64 75.93,-84.62 146.34,-100.66 213.52,-164.99 45.61,-43.57 30.13,-48.59 86.26,-100.73l182.5 -167.52c84.12,-80.18 140,-85.13 212.38,-165.31 155.85,-172.92 90.71,-77.2 187,-163.47 46.94,-42.12 37.42,-50.93 88.55,-98.57 88.36,-82.34 134.67,-55.89 179.64,-166.77l42.76 -770.58c22.58,-179.46 390.37,-880.33 478.16,-1115.47 62.48,-167.15 112.84,-225.06 158.45,-431.86 51.07,-231.78 45.74,-352.88 158.02,-429.88 39.01,-26.71 140.18,-86.14 175.2,-122.68 46.31,-48.4 62.04,-127.57 98.51,-201.91 97.94,-199.81 97.94,-209.84 51.13,-456.84l-54.11 -34.83c87.47,-352.37 235.27,-164.61 357.51,-415.87 53.92,-110.82 80.37,-93.75 189.09,-197.72l64.89 -72.89c-3.61,-190.42 3.68,-123.69 -157.06,-340.25 -61.59,-83.04 -79.48,-51.45 -128.58,-111.65 -65.02,-79.67 -30.38,-198.6 -225.57,-71.36 -107.45,70.03 -95.91,39.46 -147.92,65.91 -55.06,27.97 -6.66,-3.55 -45.8,34.19 -56.97,54.99 30.7,12.05 -82.08,90.26l-0.02 0.01z"/>
    <path class="fil3" d="M14324.91 6057.89c3.55,-64.45 20.55,-75.93 46.37,-123.18 52.14,-95.47 85.31,-51.45 89.56,-43.2 2.48,4.88 10.98,-12.88 14.53,-15.73 107.96,-88.11 82.46,-21.38 192.52,-107.01 383.9,-298.9 212.25,-261.1 416.82,-641.06 81.51,-151.48 170.06,-317.86 218.78,-479.62 71.68,-237.81 -22.58,-177.99 359.98,-362.2l180.79 -146.53c382.25,-255.64 358.4,263.25 873.15,581.37 876.59,541.71 1031.36,330.23 1247.35,367.02l164.48 18.9c52.59,90.27 158.71,241.24 199.25,338.67 141.33,339.24 41.87,110.12 236.16,309.87 46.18,66.61 80.18,79.23 160.8,42.88 203.69,-84.24 338.29,-234.51 582.13,-287.16 40.53,54.17 74.09,110.25 131.31,170.7 104.91,110.88 81.19,59.37 214.72,111.01 116.58,23.98 239.27,70.09 355.73,106.38 139.42,43.39 260.71,41.74 328.26,147.48l18.72 39.33c196.64,65.46 153.89,20.68 351.1,-34.64 525.16,-147.35 551.8,-33.3 771.54,-118.17 140.31,-54.24 167.52,-118.11 244.85,-180.85 60.64,-20.93 156.42,46.11 298.13,-30.39 170.64,-92.17 102.64,-29.49 214.47,-81.57 280.63,-130.61 315.39,24.48 528.02,-69.21 27.53,-72.12 27.53,-56.83 5.77,-121.34 -132.13,46.18 -165.24,-11.93 -240.16,-77.9 -218.97,5.52 -205.9,-35.65 -402.92,62.67l-127.44 14.97 -98.13 79.04c-205.33,60.26 -169.05,-101.56 -362.9,109.87 -74.22,80.94 -170.45,126.17 -324.33,115.82 -141.08,-9.45 -442.51,41.74 -573.44,85.39 -58.29,19.41 -88.3,39.71 -152.55,55.75l-88.05 -95.91 -418.47 -142.85 -183.89 -53.28c-194.93,-49.8 -170.51,-41.68 -258.81,-157.89 -430.08,-15.09 -154.84,-56.64 -373.3,-1.08 -27.72,-53.47 -110.82,-26 -110.82,-26 -73.58,44.02 -103.08,14.84 -204.44,58.67 -75.36,32.61 -89.64,61.91 -169.37,94.07 -195.95,-113.29 -34.32,-56.58 -240.86,-365.88 -198.73,-297.63 -134.48,-294.65 -332.89,-313.1l-20.62 -3.87 -173.93 -40.35c-385.99,38.19 -236.16,62.61 -591.39,-68.51 -208.57,-77 -550.41,-243.83 -680.19,-418.72 -108.28,-145.89 -96.55,-78.15 -174.95,-171.65 -79.1,-94.32 -63.63,-157.37 -156.62,-225.25 -87.47,-63.81 -132.96,-48.9 -226.84,-122.93 -137.58,-4.57 -246.88,33.43 -332.13,98.76l-278.66 202.67c-465.47,235.85 -239.53,150.91 -420.82,559.8 -44.21,99.72 -99.21,203.81 -153.63,291.66 -33.88,102.58 -172.8,429.89 -246.44,513.62 -30.01,34.13 -388.28,313.93 -442.83,337.4 6.28,63.44 -27.91,75.36 -42.69,202.93 0,0 -6.79,15.79 -6.79,15.79 -205.9,142.53 -308.16,105.36 -433.94,29.81 15.98,0 -41.93,-8.24 -41.93,-8.24 -314.44,45.67 -1054.83,-76.82 -1165.46,257.66 325.48,-42.31 1028,-6.34 1089.66,-19.35 58.93,-12.43 101.17,-55.75 165.05,-48.52 151.29,17.25 362.9,177.42 477.59,-70.99 34.51,-74.65 20.55,-77.89 75.04,-145.83l0 0z"/>
    <path class="fil3" d="M19844.6 1376.91l27.85 2.41c71.05,54.93 138.48,131.5 243.33,151.54 2.47,0.45 112.02,30.89 203.49,13.13 94.14,-18.33 170.38,-84.94 173.05,-84.55 39.71,-100.17 -51.89,-25.25 -65.15,-95.85 -9.2,-0.89 -175.64,-24.17 -184.34,-25.37 -187.82,-25.57 -274.03,-116.15 -383.07,-231.28 -68.89,-27.02 -37.42,-26.01 -113.04,-65.65 -383.83,35.07 -228.17,53.15 -518.31,-109.05 -78.65,-43.96 -382.69,3.3 -499.53,5.9l-33.24 27.66c-75.87,72.95 -128.14,111.01 -225.06,129.79 -66.54,120.84 -81.32,77.77 -169.81,76.81 -93.5,-1.01 -116.4,11.55 -205.91,45.86 -74.53,28.61 -371.33,165.25 -420.37,96.49 -74.66,-104.79 -55.88,-141.84 -149.32,-228.68 -120.01,-89.19 -95.78,-144.31 -257.67,-232.04l-30.7 -25.69c-152.93,-7.36 -162.58,21.82 -296.1,44.85 -132.01,22.77 -132.39,-19.86 -270.36,-53.22 -285.82,-69.27 -249.22,-68.96 -502.39,73.9 -30.19,71.17 -25.88,58.8 -77.13,101.17l-49.16 52.71c-61.28,115.33 -79.93,111.84 -101.56,269.53 -14.4,104.86 -24.1,143.74 -81,233.18 -70.86,111.52 -264.77,209.65 -389.23,254.56l-152.3 4.12c-146.84,3.24 -226.45,-81.64 -336.13,-152.37 47.83,-121.98 75.3,-115.95 64.13,-254.68 -81.7,-56.07 -110.31,-45.54 -219.04,-75.29 -140.56,-20.05 -222.58,-162.77 -306.57,-258.75 -105.93,-9.39 -31.59,-5.77 -138.28,-50.05 -5.77,-2.41 -12.69,-5.45 -18.65,-7.8 -328.52,-130.17 -352.06,-63.12 -463.95,73.71 -119.13,-6.09 -217.19,-28.17 -322.18,5.45 -98.83,31.66 -143.16,91.73 -239.58,86.97 -86.08,-80.12 -32.8,-65.97 -85.83,-179.13 -59.56,-127.06 -55.12,-72.51 -175.77,-130.42 -120.21,-57.73 -350.53,-383.96 -820.64,-236.03 -219.54,69.14 -301.18,1.71 -448.79,156.17 -39.07,85.57 69.85,84.87 -11.54,410.47 -35.84,143.36 18.71,10.85 -54.87,136.51 -45.67,78.02 -65.78,137.14 -104.73,220.62 -69.2,148.05 -105.1,132.32 -143.48,202.67 -55.25,101.24 7.74,134.48 -62.48,261.72 -115.32,208.95 -18.91,103.21 -96.48,250.5 -0.32,0.57 -111.84,61.4 -13.14,224.81 63.69,105.49 133.91,93.69 213.2,53.03 27.98,-123.63 -68,-158.02 91.22,-417.33 82.27,-133.97 22.07,-134.98 62.8,-240.98 23.15,-60.2 62.67,-55.89 112.59,-179.58 76.5,-189.73 195,-369.44 195.19,-370.13 49.41,-147.36 40.97,-301.44 31.65,-448.67 504.8,-106.25 500.17,-160.23 864.66,114.5 119,89.63 138.09,41.8 193.15,179.13 35.72,89.19 91.66,147.42 189.41,197.22 103.65,52.84 167.28,0.57 270.93,-45.74 289.95,-129.65 378.57,59.76 525.73,-179.45 85.2,12.56 329.22,101.94 400.84,155.03 199.75,148.18 -28.23,162.45 316.02,227.6 -56.65,374.83 148.24,358.33 224.11,389.61 78.72,32.47 296.17,188.9 574.32,45.98 761.9,-391.51 425.83,-633.37 638.14,-819.23 146.53,-128.33 157,-176.03 285,-156.17 152.05,23.66 267.12,106.31 393.67,95.46 193.28,-16.49 269.78,-160.74 486.78,120.84 72.57,94.2 85.32,369.5 399,327.38 126.17,-16.94 243.07,-78.66 362.2,-124.33 177.55,-68 175.71,29.31 348.25,-83.67 81.38,-53.28 185.86,-155.73 303.46,-182.81 141.21,-32.42 48.53,18.9 190.49,0.63 103.21,-13.32 79.74,-51.89 178.89,-16.11 142.85,51.57 140.88,147.23 342.53,138.35 63.18,-2.79 140.95,-22.26 199.82,-4.95l130.99 107.08 -0.01 0zm418.79 -0.25l-22.78 24.61 22.78 -24.61zm-78.72 83.41l-25.06 22.01 25.06 -22.01z"/>
    <path class="fil3" d="M11635.79 7138.03c124.26,-54.36 203.24,17.89 232.41,126.36 217.07,-70.47 98.07,-98 243.27,-168.67l240.98 -304.09c39.33,-26.52 112.34,-43.33 177.87,-87.67 77.39,-52.46 87.85,-69.97 121.09,-156.04 0.7,-1.72 -4.5,-77.14 -19.73,-139.37 -10.91,-44.72 -33.36,-82.08 -32.85,-83.47 0,0 -83.04,19.22 -81.26,17.5 -0.25,2.29 -15.54,9.2 -5.65,54.3 10.85,49.48 30.77,76.88 32.54,78.15 20.3,13.83 -2.4,64.26 -34.82,94.64 -101.62,12.12 -111.64,102.96 -193.47,106.7 -85.32,81.26 -267.44,311.2 -455.58,400.33 -5.77,-6.35 -13.13,-25 -15.73,-20.3 -15.92,28.23 -46.63,-70.79 -60.01,-97.05 -21,-41.17 -38.44,-81.9 -60.26,-125.54 -35.33,-70.79 -89.57,-206.09 -120.52,-259.82 -45.04,-78.47 4.18,-22.84 -85.2,-79.99 -200.95,-128.45 -193.15,-104.35 -419.42,-146.34 -166.76,-502.01 -163.72,-446.06 -540.07,-438.64 -176.34,-236.73 -194.8,-99.27 -384.78,-227.34 -301.75,-203.31 -321.92,-134.16 -326.36,-323.7 425.51,-183.39 86.07,-418.34 165.18,-622.72 61.72,-159.47 225.69,-128.07 41.55,-486.6l-79.61 -88.43c-5.14,-3.74 -12.94,-8.24 -17.83,-11.54l-37.04 -22.9c-0.64,-111.89 23.4,-272.44 -24.11,-364.93 -133.71,-260.07 -207.68,-373.56 -419.23,-556.94 -71.04,-61.59 -25.5,-54.87 -128.45,-117.29 -99.27,-60.13 -62.86,39.71 -105.93,-126.23 0,0 -18.4,-68.51 -43.58,-85.57 -145.01,-117.61 -105.43,-169.05 -201.53,-219.99 236.23,10.6 49.99,78.09 208.76,104.79 156.3,-46.87 201.72,-9.83 323.38,-57.34l45.61 -1.71c176.98,26.77 543.81,201.59 956,152.05 188.59,-22.65 204.13,55.88 395,-24.36l38.95 45.04c52.59,51.06 142.09,68.5 229.88,71.93 137.78,5.33 205.65,1.71 271.18,-65.08 12.81,-13.07 64.51,-302.01 70.91,-361.32 -13.57,-44.08 -115.44,-39.2 -122.42,-52.39l-20.56 -38.76c-2.85,-6.34 -6.02,-13.13 -8.62,-19.54 -15.42,-38.25 -14.27,-74.66 -32.42,-118.3 -167.14,10.72 -9.83,427.66 -49.85,483.04 -122.87,170.07 -89.44,-8.37 -222.91,-29.56 -95.34,-15.16 -113.35,-19.03 -209.77,-19.6 -89.57,-105.24 -78.53,-110.38 -347.62,-90.39 -172.79,12.87 -480.25,-72.82 -607.05,-51.7 -32.16,5.33 -47.2,10.27 -92.68,15.35 -59.5,6.6 -112.21,10.85 -178.12,1.14l-89.12 -48.91c-0.76,-1.26 -1.52,-7.8 -3.05,-11.42 -46.49,30.01 -36.34,52.27 -104.34,24.87 -16.05,-10.08 -77.9,-38.19 -93.63,-6.53 0,0 -23.66,43.32 -23.66,43.32 -46.82,65.59 -23.6,10.15 -35.4,36.67 -334.04,-57.03 -471.69,-170.89 -819.75,-306.89 -68.95,74.6 -14.52,18.46 -62.16,104.66l-218.4 -3.23c96.86,169.62 737.73,166.7 742.17,256.97 -9.07,54.99 25.05,21.69 10.08,54.36 -17.12,37.49 45.49,-1.97 38.06,99.27 -1.33,55 1.97,40.22 25.76,60.96l14.52 54.05c4.95,2.85 14.78,6.53 20.87,11.67 14.21,256.46 119.26,214.78 248.34,337.65 47.33,45.04 -55.25,-45.92 26.46,28.74 94.26,86.08 219.6,150.97 280.24,280.94 89.76,192.4 104.1,282.47 98.9,502.84 -3.56,149.96 13.38,97.87 94.39,171.2 75.86,68.64 66.66,102.32 129.14,171.59 -47.13,156.75 -143.42,121.98 -139.42,282.28 3.61,148.18 91.6,202.54 52.71,378.89 -154.52,163.21 -274.09,174.88 -170.95,496.81 21.76,17.95 13.96,14.58 54.74,37.48l214.72 107.59c177.43,128.39 193.67,115.76 395.32,198.79 104.66,43.14 44.97,34.26 115.83,97.82 103.33,92.68 203.17,47.32 330.55,44.4 147.16,243.97 101.11,426.78 470.29,475.56 205.46,27.21 318.12,341.33 387.26,557.51l0.01 -0.01z"/>
    <path class="fil3" d="M15234.54 15376.6l22.14 -23.91c27.65,-57.79 -95.85,61.02 59.81,-35.97 6.09,-3.81 17.19,-10.21 25.38,-16.05 -195.44,-167.21 140.5,-39.52 -439.15,-532.39 -177.61,-151.1 -140.63,-50.37 -215.48,-211.17 -164.87,-354.6 -218.15,-97.5 -87.35,-597.04 35.4,-135.24 62.42,-293.76 122.49,-415.67 236.98,-481.02 56.33,-431.16 23.34,-620.51 -6.72,-38.37 72.44,-425.76 -486.85,-331.12 -63.49,-620.88 111.45,-490.59 159.79,-667.89 33.37,-122.36 -63.62,-133.71 -147.23,-368.23 -34.25,-96.16 5.84,-1.77 -15.16,-40.53l-22.96 -33.24c-65.4,-74.02 -334.42,-164.16 -413.58,-159.72 -346.79,19.15 -319.77,199.94 -623.8,-45.1 -137.4,-110.69 -75.3,-138.86 -198.42,-250.69 -127.7,0.38 -144.38,57.03 -246,22.96 -0.31,-0.12 -104.79,-56.96 -104.92,-57.02 -34.88,-23.79 -11.22,-6.92 -43.96,-34.7 -129.34,-109.74 -77.32,-40.66 -331.18,53.41 -235.34,87.22 -108.28,104.35 -245.68,139.23 -77.7,19.73 -211.35,51.38 -300.79,35.27 2.15,-0.82 -87.48,-37.93 -178.63,-52.2 -94.45,-14.84 55.18,-200.64 53.03,-199.88 -0.51,-0.19 -152.94,-91.4 -255.58,-2.85 -32.48,27.97 -69.84,302.13 -26.7,339.87 209.9,32.67 142.91,86.97 392.84,17.38 120.01,-33.43 101.81,-33.43 187.7,-1.2 4.31,1.65 11.42,5.77 16.11,7.29 5.07,1.65 12.62,4.95 18.08,6.28 233.37,56.71 365.88,-85 474.16,-121.28 102.57,-34.45 -37.68,-53.92 119.89,-10.66 209.77,57.54 158.58,279.36 399.69,85.83 28.42,105.48 100.16,147.03 177.48,201.84 350.54,248.53 -55.18,239.2 551.55,113.23 179.96,-37.43 73.9,-19.79 189.67,10.15 356.87,92.35 108.53,-54.75 350.09,270.35 -14.02,83.03 -129.6,175.2 -160.17,405.97 -15.16,114.56 -10.53,182.11 10.27,293.82 83.61,448.92 112.09,157.63 487.23,263.82 -13.83,238.13 65.91,187.38 88.81,362.2 18.14,138.16 -81.7,233.75 -124.33,367.47 -349.01,1093.27 -166.83,638.58 7.17,1137.23 35.78,102.44 167.65,167.84 251.2,239.33 186.81,159.98 241.99,130.36 308.98,302.83 23.41,60.26 45.54,122.68 64.45,185.67 104.6,-20.49 68.19,-39.77 106.57,-32.41l0 0z"/>
    <path class="fil3" d="M21785.97 1861.86c-119.95,76.12 -392.84,131.37 -467.31,186.17 -98.13,72.32 -58.48,120.59 -90.77,239.72 -57.15,210.66 -208.89,164.73 40.72,330.23 181.23,120.14 129.22,364.42 324.02,448.03l-4.7 172.98c28.55,163.15 98.58,60.07 73.65,257.28 -16.49,130.8 -17.76,169.69 44.97,272l17.19 33.5 19.41 24.17c211.87,80.87 37.37,231.72 239.4,367.34 217.58,146.08 234.96,52.39 207.3,390.24 74.09,110.69 187.83,182.87 220.88,279.1 112.59,192.4 8.81,508.17 205.26,598.18l134.1 26.64 24.68 -24.42c17.63,-29.69 2.03,-33.94 24.23,-7.93l155.03 -37.17 -240.98 -379.14c-32.23,-314.12 -67.43,-283.04 -239.15,-451.07 -117.54,-114.94 -10.34,-251.77 -141.14,-418.22 -80.75,-61.84 -217.19,-104.6 -260.83,-199.49 -20.11,-43.77 -29.94,-134.29 -43.77,-171.08 -54.11,-144.19 -2.73,-18.27 -124.14,-127.5 -117.86,-106.06 34.89,-147.67 -15.92,-317.23 -13.64,-45.36 -70.09,-107.9 -81.9,-159.72 -18.77,-82.15 4.26,-122.37 -22.07,-226.53 -38.7,-70.21 -41.36,29.31 -188.84,-245.16 -99.91,-185.86 47.26,-204.07 -195.69,-265.85 25.56,-73.71 38.06,-158.33 49.29,-248.09 119.31,-32.86 248.72,-51.95 343.17,-127.18 241.43,-128.52 202.03,-76.63 220.81,-391.13l-104.22 -6.41 -87.92 23.28c-4.38,93.76 7.68,89.95 -34.76,154.46l0 0zm912.93 3495.8l-23.85 21.44 23.85 -21.44z"/>
    <path class="fil3" d="M12774.03 9133.96c-36.66,-164.04 0.13,-47.77 -75.17,-134.8 -23.53,-27.28 -36.35,-20.74 -63.68,-68.06 7.1,-44.98 -44.98,-109.17 -90.9,-200.58 -87.1,-173.17 35.14,-88.17 -142.29,-161.31 -147.41,-60.77 -234.32,-134.41 -264.07,-270.99l-202.09 -15.6c0.63,184.65 -33.5,123 206.6,362.58 57.41,57.28 42.44,31.85 117.41,76.95 143.93,86.65 20.56,59.31 144.12,199.94 50.43,57.34 299.85,299.28 118.3,460.59l-221.19 152.81c-198.54,144.69 -236.73,296.1 -168.6,541.02l-274.73 117.35c-134.35,50.94 -152.3,110.12 -193.28,251.07 -81.51,279.86 10.02,74.85 -156.55,239.01 -116.4,114.63 40.78,46.82 -148.95,232.11 -4.18,4.18 -11.67,12.11 -15.16,15.54 -3.55,3.48 -10.78,10.14 -15.16,16.04l270.73 -13.19c127.38,-121.92 -9.19,-131.37 264.96,-211.87 5.65,-156.23 -39.64,-265.27 87.41,-343.04 152.75,-93.57 232.11,-58.11 363.6,-125.73 118.75,-267.88 -168.1,-394.61 172.73,-604.83 174,-107.33 395.89,-286.34 285.96,-515.01l0 0z"/>
    <path class="fil3" d="M8507.33 2341.73l-18.46 -22.2c-231.66,-116.66 -482.73,-20.36 -672.07,-198.3 -102.89,-36.6 -501.82,-139.3 -602.43,-129.08 -412.06,41.99 -303.4,365.06 -637.95,440.98 -141.89,32.16 -197.72,-9.07 -336.57,42.31 -120.91,44.72 -141.27,63.76 -227.03,129.53 -88.93,68.32 -204.51,-57.46 -318.62,-20.04 69.33,58.93 -502.96,44.59 -399.63,62.16 11.04,1.84 -1185.63,-105.8 -1152.71,-52.2 -25.44,-35.71 -5.58,-245.49 -6.15,-244.54 -68,-57.66 -284.63,139.87 -286.4,-17.19 -0.57,0.64 -4.51,268.07 42.75,345.33 40.79,86.14 85.64,87.54 232.36,87.79 82.72,-41.16 398.68,41.81 824.95,55.19 500.42,15.73 1041.38,-51.06 1010.49,-98.76 161.5,6.15 180.85,16.23 324.01,-29.37 150.85,-48.09 180.85,-6.66 313.11,-36.98 342.41,-78.6 308.73,-101.94 419.61,-289.07 123.63,-208.7 247.58,-153.32 498.01,-104.86 282.53,54.75 269.02,148.56 530.68,174.82 55.32,-31.9 299.03,186.82 462.05,-95.52l0 0z"/>
    <path class="fil3" d="M15243.1 15290.9c25.12,10.02 -136.95,98.51 -115.13,118.11 37.93,34.01 112.79,28.61 187.76,36.6 89.64,9.52 179.2,33.12 224.56,63.44 27.78,18.52 61.02,68.12 119.51,108.4 79.99,55.06 188.71,103.21 223.92,127.5 93.94,64.9 245.29,77.77 265.91,95.72 88.49,77.14 83.73,123.13 183.45,170.45 109.67,52.02 392.46,57.34 576.6,124.39 199.75,72.82 283.11,249.04 525.04,163.91 272,-95.72 -53.41,-52.2 394.62,-92.1 331.5,-1.4 711.53,45.73 989.24,-47.2 256.4,-53.92 364.99,-107.07 474.86,-201.02l-137.33 -71.61c-284.25,96.29 -595.32,122.62 -868.78,73.52l-553.84 31.78c-433.94,29.18 -178.75,106.31 -491.03,117.1 -155.86,-158.21 -393.16,-241.56 -629.96,-264.77 -434.26,-42.63 -198.48,-213.2 -551.8,-173.37 -73.65,-58.04 -147.3,-116.14 -220.94,-174.19 -84.43,-47.7 -138.92,-95.4 -252.78,-120.9l-245.11 -75.99 -98.76 -9.77 -0.01 0z"/>
    <path class="fil3" d="M21318.98 1207.86c-91.28,-14.08 -208.19,-0.51 -277.77,-17.25 -133.34,-32.04 -31.85,-69.27 -232.29,-61.54 -253.8,9.84 -277.14,97.63 -393.61,250.25l77.01 80.11c103.9,-44.97 124.46,-136 336.13,-114.43 162.9,16.62 48.47,75.99 430.21,59.37 64.32,-33.3 13.38,-27.72 116.08,-30.44l92.42 17.44c3.87,-6.53 136.57,-13.39 130.17,-9.71 3.87,-2.98 11.29,-5.07 13.57,-5.7l28.42 -8.76c3.68,-0.69 11.8,-1.9 15.86,-2.41 99.52,-13.38 150.59,-8.56 182.88,3.49 44.72,16.75 53.53,47.58 105.36,63.63 24.93,7.67 -108.73,151.92 -122.94,280.81 126.43,-36.85 69.78,6.09 189.54,31.4 5.27,-116.71 7.3,-127.37 51.51,-241.17 44.09,-113.48 47.32,-38.88 19.22,-185.29 -411.3,-234.7 -406.54,-2.6 -761.77,-109.8l0 0zm-832.37 274.41l-23.92 -22.2 23.92 22.2z"/>
    <path class="fil3" d="M11836.62 7191.51c-65.78,70.47 -143.05,-104.22 -200.83,-53.48 46.75,72.7 123.88,635.73 173.23,757.65 150.53,563.1 126.93,410.22 334.99,444.28l-28.04 -302.89c-205.65,-437.05 -170.5,-524.91 -202.29,-584.22 -51.95,-96.92 -14.46,-263.94 -57.34,-287.6l-19.73 26.26 0.01 0zm-49.29 32.16l22.26 -23.85 -22.26 23.85z"/>
    <g>
     <path class="fil4" d="M22609.21 5264.47c110.06,-51.38 55.25,-51.38 165.31,0 184.02,184.02 -319.71,330.8 -165.31,0zm-24.74 -98.06l-31.4 10.21 -31.84 31.65 -9.77 34.07 -30.89 27.72 0.12 156.36c96.93,85.38 139.75,160.61 310.89,100.86 214.47,-180.72 125.79,-377.24 -172.92,-384.72l-34.19 23.85z"/>
     <path class="fil5" d="M22609.21 5264.47c-154.4,330.8 349.33,184.02 165.31,0 -110.06,-51.38 -55.25,-51.38 -165.31,0z"/>
    </g>
    <g>
     <path class="fil4" d="M20240.17 1381.03c113.1,-52.77 56.78,-52.77 169.88,0 188.96,188.97 -328.4,339.75 -169.88,0zm-25.5 -100.73l-74.41 78.15 -33.3 29.31 -10.21 153.19 44.91 52.02 63.81 55.56 45.55 44.09c190.11,-35.2 165.68,-28.1 285.95,-142.41l4.82 -162.19 -31.78 -29.57c-99.9,-118.11 -86.26,-91.59 -265.02,-110.94l-30.32 32.79 0 0z"/>
     <path class="fil5" d="M20240.17 1381.03c-158.51,339.75 358.85,188.97 169.88,0 -113.1,-52.77 -56.78,-52.77 -169.88,0z"/>
    </g>
    <g>
     <path class="fil4" d="M3923.97 2271.19c113.04,-52.77 56.77,-52.77 169.81,0 188.97,188.97 -328.39,339.75 -169.81,0zm-25.5 -100.67l-74.47 78.15 -33.24 29.31 -10.21 153.19 44.84 52.02 63.82 55.56 45.54 44.03c190.11,-35.15 165.75,-28.04 285.96,-142.41l4.82 -162.14 -31.78 -29.56c-99.91,-118.11 -86.27,-91.66 -265.03,-110.94l-30.26 32.79 0.01 0z"/>
     <path class="fil5" d="M3923.97 2271.19c-158.58,339.75 358.78,188.97 169.81,0 -113.04,-52.77 -56.77,-52.77 -169.81,0z"/>
    </g>
    <g>
     <path class="fil4" d="M11623.92 7198.11c110.12,-51.32 55.32,-51.32 165.37,0 184.02,184.02 -319.76,330.8 -165.37,0zm-24.67 -98.07l-31.4 10.21 -31.91 31.65 -9.7 34.07 -30.89 27.72 0.06 156.42c96.99,85.32 139.8,160.62 310.88,100.8 214.53,-180.72 125.79,-377.24 -172.85,-384.73l-34.19 23.85 0 0.01z"/>
     <path class="fil5" d="M11623.92 7198.11c-154.39,330.8 349.39,184.02 165.37,0 -110.05,-51.32 -55.25,-51.32 -165.37,0z"/>
    </g>
    <g>
     <path class="fil4" d="M15227.43 15429.95c110.12,-51.38 55.32,-51.38 165.37,0 184.02,183.95 -319.76,330.74 -165.37,0zm-24.67 -98.13l-31.4 10.21 -31.91 31.65 -9.7 34.07 -30.9 27.78 0.07 156.37c96.99,85.31 139.8,160.61 310.88,100.79 214.53,-180.72 125.79,-377.24 -172.85,-384.72l-34.19 23.85 0 0z"/>
     <path class="fil5" d="M15227.43 15429.95c-154.39,330.74 349.39,183.95 165.37,0 -110.05,-51.38 -55.25,-51.38 -165.37,0z"/>
    </g>
   </g>
  </g>
 </g>
</svg>
