<?xml version="1.0" encoding="UTF-8"?>
<!DOCTYPE svg PUBLIC "-//W3C//DTD SVG 1.1//EN" "http://www.w3.org/Graphics/SVG/1.1/DTD/svg11.dtd">
<!-- Creator: CorelDRAW 2020 (64 Bit) -->
<svg xmlns="http://www.w3.org/2000/svg" xml:space="preserve" width="100%" height="100%" version="1.1" style="shape-rendering:geometricPrecision; text-rendering:geometricPrecision; image-rendering:optimizeQuality; fill-rule:evenodd; clip-rule:evenodd"
viewBox="0 0 10583.32 9143.98"
 xmlns:xlink="http://www.w3.org/1999/xlink"
 xmlns:xodm="http://www.corel.com/coreldraw/odm/2003">
 <defs>
  <style type="text/css">
   <![CDATA[
    .fil3 {fill:#3C3C3C}
    .fil2 {fill:#5B96F1}
    .fil0 {fill:#8CB5F8}
    .fil1 {fill:#F1E9D7}
    .fil4 {fill:#FEFEFD}
   ]]>
  </style>
 </defs>
 <g id="Camada_x0020_1">
  <metadata id="CorelCorpID_0Corel-Layer"/>
  <g id="_2560596846672">
   <path class="fil0" d="M1191.46 753.43l9.46 33.56 22.38 22.38 18.93 15.48 13.76 -21.51 26.68 3.44 23.23 24.1 23.23 -21.51 23.23 -27.54c0,0 -3.45,-27.53 3.44,-26.67 6.89,0.85 45.6,7.74 45.6,12.9 0,5.16 -18.06,23.23 -18.06,23.23l37 7.75 45.59 -16.35c0,0 25.82,-26.68 25.82,-21.51 0,5.16 -5.16,26.67 -5.16,26.67l-8.61 23.23 -3.44 16.35 -11.19 14.62c0,0 17.21,14.63 26.68,21.51 9.46,6.89 25.81,22.38 25.81,22.38 0,0 18.07,19.79 23.23,21.51 5.17,1.72 37,25.81 37,25.81l20.65 30.98 18.93 21.51c0,0 -10.33,35.27 -8.61,42.16 1.73,6.88 7.75,85.18 7.75,85.18 0,0 -9.47,49.04 -9.47,66.25 0,17.21 -6.88,42.16 -6.88,42.16 0,0 -39.58,6.03 -44.74,6.03 -5.17,0 -25.81,-1.72 -25.81,-1.72l1.71 33.55 -14.62 19.8c0,0 -6.89,17.2 -6.89,24.95 0,7.73 4.31,44.74 4.31,44.74 0,0 21.51,2.58 24.95,9.46 3.45,6.88 14.62,39.58 21.51,48.19 6.89,8.6 45.6,55.92 45.6,55.92l19.79 21.52 -5.16 20.64 -18.93 8.6 -12.05 0 -0.85 17.22c0,0 16.35,10.32 20.65,18.93 4.3,8.6 8.6,19.79 8.6,19.79l2.58 19.78 12.91 24.96 15.48 17.21 0 25.81 -37.85 -1.72 -27.54 -2.58 -18.07 22.37 -5.37 62.78 -7.67 22.99 -29.82 10.23c0,0 -26.41,20.44 -26.41,20.44 0,6.03 -3.41,62.18 -3.41,62.18 0,0 13.65,34.86 13.65,42.6 0,7.75 -21.85,83.37 -21.85,94.55 0,11.19 3.45,42.17 3.45,42.17l-35.28 67.97 -6.02 46.46 24.09 40.44 -2.58 43.02 6.88 49.91 35.28 28.39 33.56 14.63 20.64 24.09 -35.27 3.44 -26.67 -19.79 -28.4 -18.93c0,0 -6.89,9.47 -6.89,17.21 0,7.74 12.05,43.88 12.05,43.88 0,0 14.63,14.63 16.35,20.65 1.72,6.03 -11.19,32.7 -11.19,32.7l18.08 15.49 11.18 14.62 -6.03 25.82 16.82 22.81 -17.21 7.75 -9.47 24.09 4.3 14.63 7.75 22.37 -1.72 25.82 -10.33 26.67 -14.48 7.66 -6.09 20.65c0,0 -3.29,27.91 -3.29,27.91 0,0 11.08,17.89 11.08,17.89l38.14 1.37 9.57 0.34 0 19.59 -28.96 19.6 -20.45 0 -3.41 32.37 -16.18 4.24 3.39 32.38 -9.35 27.21 -15.83 28.94 5.6 25.63 -21.61 29.75c-3.07,4.21 2.65,15.64 0.31,20.3 -2.37,4.73 -12.12,3.15 -14.48,7.88 -3.43,6.87 5.11,46 5.11,46 0,0 -6.43,30.8 -9.01,37.68 -2.58,6.88 -21.51,39.58 -21.51,39.58l-28.4 24.95 11.3 19.83 7.74 18.93 16.35 30.11 -1.73 19.8 11.2 27.53 18.92 27.53 24.07 29.25 -43.11 39.54 0.86 36.14c0,0 -5.16,18.07 -5.16,24.95 0,6.89 -5.16,28.4 -5.16,28.4l-1.72 23.23 -27.53 90.34 -7.75 26.68 -12.05 22.37 -18.06 30.12 7.74 47.31 12.91 30.12 12.9 33.56 23.24 27.53 33.55 45.61 12.91 22.36 -8.61 19.8 15.49 9.46 1.72 23.23 7.74 25.81 11.19 19.8 3.44 14.62 -14.63 14.63 -12.04 19.79 3.44 43.88 8.6 23.23 0 21.51c0,0 -6.02,12.9 -11.18,12.05 -5.16,-0.87 -29.26,-0.87 -29.26,-0.87l-21.51 4.3 -13.76 27.54 12.04 11.19 -12.04 10.32 -12.91 17.21 3.44 21.51c0,0 1.72,17.21 -6.88,21.51 -8.6,4.31 -11.18,12.05 -11.18,12.05l-25.82 19.79c0,0 -33.56,21.51 -38.71,21.51 -5.17,0 -12.91,12.9 -12.91,12.9l-30.12 30.12 -11.19 26.67 -18.92 24.96 -18.93 26.67 -16.79 14.73 -4.2 -12.79c0,0 1.3,-14.85 1.94,-15.49 0.65,-0.65 12.05,-9.78 12.58,-10.55 0.55,-0.75 5.7,-13.01 5.7,-13.01l-3.86 -9.9c0,0 -11.09,-3.11 -11.84,-3.11 -0.75,0 -9.14,3.23 -10.76,4.19 -1.61,0.97 -5.69,9.36 -6.66,10.01 -0.96,0.64 -9.36,4.84 -9.36,4.84l-45.71 17.85 -20.65 16.35 -21.51 13.77 -2.57 26.67 -23.23 43.88 -13.77 43.02 -22.37 33.56 -20.66 19.79 -24.95 26.67c0,0 -16.34,15.49 -17.2,20.66 -0.87,5.15 8.6,30.97 8.6,30.97l12.04 14.62 11.19 17.22 12.04 22.36 6.89 10.32 -4.31 45.61 9.47 12.91 10.32 11.18 -12.04 24.09 18.06 18.93 8.61 18.08 3.45 24.08 8.6 12.06 2.58 36.99c0,0 14.63,20.64 14.63,25.81 0,5.16 8.6,34.42 8.6,34.42l12.05 31.84 9.46 30.97 37.85 81.74 29.26 30.97c0,0 6.89,34.42 17.21,41.31 10.32,6.88 25.81,25.81 37.86,32.69 12.05,6.88 34.41,36.14 34.41,36.14l20.66 48.19 -12.05 67.11 -15.49 25.81c0,0 -6.02,86.04 -5.16,91.2 0.86,5.17 -6.02,23.24 -8.6,29.26 -2.58,6.02 -18.07,41.29 -18.07,41.29l-33.56 38.73 -19.78 37.87 -51.63 17.21 -29.25 32.69 -75.72 13.77 -48.18 -12.05 -65.39 27.54 -5.17 39.58 0 53.34 6.88 68.84 -10.31 55.07 -46.47 55.06 -29.25 53.34 -36.14 39.58 -34.42 3.44 -44.74 8.61 -43.02 29.26 -12.05 46.46 5.16 49.9 25.82 44.74 8.6 41.3 13.77 60.24 -5.17 70.54 1.73 58.52 -10.33 46.46 6.88 72.27 34.42 55.07 22.37 51.62 32.7 36.14 8.6 37.86 10.33 79.16 18.93 37.86 -1.72 43.02 15.49 49.9 0 39.58 8.6 34.41 24.09 17.22 39.58 29.25 32.7 56.79 43.02 43.02 5.16 51.62 30.98 65.4 17.2 70.56 12.05 75.71 18.93 65.39 20.65 48.18 12.04 34.42 20.65 65.39 15.49 32.7 -1.72 48.18c0,0 6.89,48.18 15.49,60.23 8.6,12.05 30.97,44.74 30.97,44.74l15.49 70.56c0,0 0,51.62 0,68.83 0,17.21 -3.45,65.39 -3.45,65.39l30.98 20.65 53.36 25.81 43.01 20.66 86.04 13.76 70.56 -24.09 3.44 -34.41 27.54 -6.89 68.83 30.97 3.43 34.42 17.21 18.93 32.7 -27.53 12.05 18.93 12.05 25.81 60.22 30.98 37.86 -48.19 5.17 -28.39 -1.73 -39.59 16.36 24.1 -6.03 67.97 -24.1 32.7 -6.01 33.56 22.36 1.72 21.51 -11.18 42.17 3.43 20.65 6.03 -11.19 80.88 35.28 27.53 35.28 10.32 24.95 -3.44 1.72 -53.34 -0.86 -32.7 18.93 -4.3 17.2 0 20.65 -21.51 15.5 0 13.76 -15.49 16.35 12.9 0 13.78 -17.21 21.5 -3.45 15.49 -22.37 0.86 -12.9 -6.02 -11.18 -3.45 -3.45 37.01c0,0 3.45,34.41 4.3,40.44 0.87,6.02 -9.45,38.71 -9.45,38.71l-17.21 3.45 6.02 16.34 26.67 20.65 3.44 19.8c0,0 -18.92,8.6 -24.95,9.46 -6.03,0.86 -46.46,11.19 -46.46,11.19l-13.77 0 6.88 29.25 22.37 27.53 24.1 56.79 18.06 26.67 7.75 25.82 2.58 24.95 -12.91 12.91 -8.6 29.25 -19.79 20.65 -32.7 14.63 -19.78 16.34 -16.36 12.32 -27.53 63.41 -42.16 43.01 -58.5 27.53c0,0 23.23,-56.78 28.39,-63.66 5.16,-6.88 27.52,-38.72 27.52,-38.72l16.36 -31.57 3.44 -35.55 5.16 -30.97 2.58 -32.7 21.51 -23.23 37 -17.2 8.61 -12.91 -20.65 -9.47 -11.19 0 -24.09 -16.35 -18.07 -24.95 -6.03 -55.93 16.36 -29.25 15.48 -21.51 -1.71 -37.87c0,0 -3.44,-12.9 -11.19,-17.2 -7.74,-4.3 -40.44,-12.05 -40.44,-12.05l-27.53 0 -0.86 -27.53 -6.02 -20.65 -31.83 -15.49 -53.36 -24.95c0,0 -29.25,-24.09 -35.27,-26.68 -6.03,-2.58 -49.91,-12.9 -55.07,-12.9 -5.17,0 -37,6.02 -37,6.02l-18.06 8.61 -25.82 -29.26c0,0 -6.88,-27.53 -8.6,-34.41 -1.72,-6.89 -15.49,-30.98 -15.49,-30.98l-24.95 -13.77c0,0 -39.58,-9.46 -45.61,-9.46 -6.02,0 -61.94,0 -61.94,0l-38.73 -30.98 -36.99 -14.62 -32.7 -16.35 -41.3 -42.16 -9.46 -17.21 4.3 -43.88 3.43 -46.46 5.17 -44.75 -18.93 -54.21 -20.65 -43.01c0,0 -16.35,-12.05 -24.09,-20.66 -7.74,-8.6 -24.09,-31.83 -24.09,-31.83l-6.88 -39.58 0 -68.84 0 -34.41c0,0 -20.65,6.88 -21.51,1.72 -0.87,-5.16 1.72,-30.97 1.72,-30.97l-20.65 -19.8c0,0 0,-44.74 0,-50.76 0,-6.02 -13.77,-62.81 -13.77,-62.81l-6.02 -52.49 -16.35 -51.62c0,0 -11.19,-29.26 -14.63,-34.42 -3.44,-5.16 -12.05,-40.44 -12.05,-40.44l-14.63 -36.14 -10.32 -18.07 -3.44 -34.42 -12.9 -18.93 -26.68 -26.67 -14.62 -39.57c0,0 -23.23,-14.63 -28.39,-18.94 -5.17,-4.3 -32.7,-24.95 -32.7,-24.95l-23.24 -37.86 -7.74 -43.87 4.3 -20.65 -8.6 -22.38 -12.91 -30.97 7.74 -20.65 -2.57 -22.38 -18.93 -29.25 0 -33.55 -5.17 -33.56 -14.62 -22.37c0,0 -27.54,-18.07 -27.54,-23.23 0,-5.16 -8.6,-47.33 -8.6,-47.33l-20.65 -31.83 -8.6 -19.79 -16.35 -3.44 -7.75 -35.29c0,0 1.72,-24.95 0.87,-30.97 -0.87,-6.02 -10.33,-32.69 -10.33,-32.69l-0.86 -46.47 -0.86 -68.83 12.9 -35.28 6.88 -55.06 -1.72 -12.91 -18.06 -38.72 0 -25.82 -10.33 -32.69 -20.65 -34.42 -8.6 -62.8 6.02 -43.03 19.79 -14.63c0,0 32.7,-16.35 43.03,-18.93 10.32,-2.58 55.91,-18.07 55.91,-18.07l42.17 -25.81c0,0 12.91,-21.51 22.37,-29.26 9.46,-7.74 30.97,-31.83 30.97,-31.83l24.96 -53.34 7.75 -37.86 -2.59 -49.05c0,0 -3.44,-40.43 -3.44,-49.04 0,-8.6 2.58,-48.18 2.58,-48.18l36.13 -47.33 63.68 -35.27 42.16 -5.17c0,0 24.09,11.19 29.25,12.91 5.17,1.72 51.63,-2.58 51.63,-2.58l49.05 -15.49 55.92 -77.44 22.37 -78.3 12.91 -40.44 3.44 -32.69 6.88 -43.89 3.44 -50.76 -25.81 -54.21 -28.39 -38.71 -29.26 -39.59 -41.3 -36.99 -13.76 -37.86 -13.77 -46.46 -17.21 -43.03 -13.77 -49.9 -21.51 -50.77 -26.67 -62.81 -27.53 -67.97 3.44 -41.3 -21.51 -58.51 -15.5 -44.74 -17.2 -19.79 24.96 -45.6 35.27 -57.65 35.28 -64.53 30.97 -38.72c0,0 8.61,-29.26 17.22,-39.58 8.6,-10.33 52.48,-33.56 52.48,-33.56l51.62 -18.07 24.96 -11.18 27.53 -30.12 51.63 -43.02 31.83 -30.12 35.28 -43.87c0,0 15.48,0.85 11.18,-12.91 -4.3,-13.77 -18.93,-32.7 -12.91,-36.14 6.03,-3.45 24.96,-12.9 28.4,-18.07 3.44,-5.16 0.86,-61.09 0.86,-61.09l-6.03 -42.16 1.73 -63.67 -1.73 -31.84 -29.25 -25.81 12.91 -35.28 3.44 -26.67 -16.35 -33.55 -11.18 -24.96c0,0 -31.83,-25.81 -38.72,-34.41 -6.89,-8.61 -30.97,-53.35 -30.97,-53.35l10.32 -48.18 20.65 -38.73 13.76 -54.2c0,0 1.73,-38.72 2.58,-50.77 0.87,-12.05 -2.58,-49.91 -5.15,-59.36 -2.58,-9.46 -9.47,-56.79 -9.47,-56.79l-0.16 -79.27 -9.86 -57.92 -3.2 -25.64 -0.71 -37.77 -30.82 -29c0,0 -10.32,-21.65 -8.6,-26.81 1.72,-5.16 12.05,-47.32 14.63,-55.93 2.58,-8.61 23.23,-62.81 24.96,-69.7 1.72,-6.88 13.75,-52.48 24.95,-67.11 11.18,-14.62 36.99,-68.83 36.99,-68.83l0 -25.82 -28.39 -19.78 -10.32 -42.16 -1.73 -86.04 -31.83 -44.75 26.68 -53.34 8.6 -23.24 -9.47 -55.92 12.9 -43.88 -9.45 -55.94 21.5 -23.23c0,0 4.3,-40.43 4.3,-54.2 0,-13.76 -4.3,-66.25 -4.3,-66.25l-4.3 -61.1 -8.6 -133.36 7.74 -24.09 22.37 -39.58 32.7 -79.16 24.08 -72.28 18.94 -43.02 45.6 -65.39 -17.21 -2.58 -61.95 -6.88 -2.58 -21.52 -27.53 -19.78 -4.31 -29.26 -41.3 -12.91 -23.23 0 -22.37 6.03 -32.69 0.86 -2.59 8.6 -10.32 -10.32 -43.02 10.32c0,0 -18.93,14.63 -24.96,18.93 -6.02,4.3 -39.57,18.93 -39.57,18.93l-18.07 -3.43 -14.62 -14.63c0,0 -24.1,14.63 -30.12,14.63 -6.02,0 -23.23,-15.5 -23.23,-15.5l34.42 -14.62 14.63 -18.07 35.27 3.44 28.39 -15.49 -14.63 -30.97 2.58 -26.68 30.12 10.33 11.18 24.95 13.77 22.37 43.02 -1.72 14.63 -22.37 61.96 -24.09 37.85 -4.3c0,0 20.65,23.22 25.81,27.53 5.16,4.3 38.72,34.42 38.72,34.42l23.23 26.67 29.26 22.37 24.09 -25.81 60.23 -6.89c0,0 42.16,-0.86 49.9,1.72 7.74,2.59 18.07,1.73 18.07,1.73l-24.09 -34.42 8.6 -24.09 -1.72 -38.72 -25.81 -8.61c0,0 -12.05,-25.81 -15.49,-32.69 -3.44,-6.88 -3.44,-12.91 -8.61,-20.65 -5.15,-7.75 -28.38,-18.93 -30.1,-28.4 -1.73,-9.46 -20.66,-50.76 -26.68,-55.06 -6.02,-4.31 -44.74,-30.98 -44.74,-30.98 0,0 -18.93,-21.51 -11.19,-24.09 7.75,-2.58 25.82,0.86 28.4,-6.88 2.58,-7.75 24.09,-50.78 28.4,-56.8 4.3,-6.01 10.32,-51.61 10.32,-51.61 0,0 -4.31,-18.93 1.71,-24.96 6.03,-6.02 26.68,-12.91 26.68,-12.91l37.85 -8.6 29.26 -7.75c0,0 2.58,-43.02 2.58,-61.08 0,-18.08 -7.74,-62.81 -7.74,-62.81l-12.91 -32.7 -34.42 -4.3 5.17 -28.4 -24.09 -4.29c0,0 -27.53,-3.45 -34.41,-3.45 -6.89,0 -26.69,9.47 -30.99,-1.72 -4.3,-11.19 6.03,-20.65 -4.3,-21.51 -10.32,-0.86 -26.67,-0.86 -26.67,-0.86 0,0 -19.79,11.18 -16.35,-6.03 3.44,-17.2 4.3,-29.25 7.75,-36.99 3.44,-7.75 12.9,-4.3 12.9,-19.8 0,-15.48 6.89,-22.37 -1.72,-19.78 -8.6,2.57 -43.88,18.06 -46.46,23.23 -2.58,5.15 -26.68,17.2 -26.68,17.2l-13.76 18.07 -37.85 -3.44 -6.89 12.91c0,0 -24.96,5.16 -27.54,12.91 -2.58,7.74 -0.86,12.04 -0.86,21.5 0,9.47 -7.74,14.64 -10.32,23.24 -2.58,8.6 -13.77,37.86 -13.77,37.86l-24.95 -1.73c0,0 -23.24,-4.3 -30.98,0 -7.74,4.31 -31.84,13.78 -31.84,13.78l11.19 -24.1c0,0 30.12,-5.16 32.7,-13.76 2.58,-8.61 26.67,-28.4 26.67,-28.4l-9.46 -14.63 5.16 -25.81 49.05 -13.77c0,0 -2.59,-27.53 12.91,-27.53 15.48,0 18.93,0 18.93,0l0.85 -18.93 -71.41 2.58 -32.7 -18.07c0,0 -38.72,-9.46 -24.95,-13.77 13.76,-4.3 54.52,-59.04 54.52,-59.04z"/>
   <path class="fil1" d="M4999.5 3145.78l114.49 -70.88 84.51 10.9 2.72 65.43 32.71 62.7 21.81 68.14 65.43 95.41 -2.73 54.52 49.07 54.53 79.05 62.69 27.26 163.56 -40.89 160.83 -13.63 130.85 98.14 117.22 59.97 51.79 122.67 73.6 -76.33 234.44 -16.36 70.87 70.88 49.07 -32.71 62.7 136.3 -10.91 51.79 -5.45c0,0 33.4,-2.05 21.82,30.67 -11.59,32.71 -97.46,94.04 -97.46,94.04l-77.69 89.28c0,0 -75.64,54.52 -71.56,56.56 4.09,2.05 81.78,6.14 81.78,6.14l26.58 17.03 25.21 16.36 46.35 45.66 81.1 -51.8 -14.31 -52.47 -76.33 17.04 -62.7 -47.02 129.49 -124.04 98.81 -6.82 13.63 -47.7c0,0 -68.15,-77.01 -69.51,-82.46 -1.36,-5.45 -24.53,-66.11 -24.53,-66.11l-23.86 -27.26 -47.7 25.9 -80.42 15.67 -27.26 -6.81 -36.12 -38.85 -0.68 -49.07c0,0 57.92,-108.36 59.29,-113.13 1.36,-4.77 36.8,-47.7 41.57,-49.74 4.77,-2.05 36.8,-24.54 36.8,-24.54 0,0 33.39,-33.39 9.54,-66.1 -23.85,-32.72 -50.43,-87.91 -50.43,-87.91l-35.44 -43.61 -54.51 -46.35 -49.07 32.71 -38.17 -43.61 -19.08 -62.7 8.18 -114.49 -5.45 -109.04 -36.12 -23.17 6.82 -32.72 10.9 -47.7 3.41 -39.53 4.77 -62.7 -49.07 -44.98 19.77 -7.5 -1.37 -24.53 -36.11 -27.94 -30.68 0 -40.2 -68.83 -30.67 -41.57 -19.76 -90.64 -51.12 -32.04 -30.66 -68.82 -44.98 -89.96 -20.45 -59.3 -40.21 10.23 -34.07 -8.86 -84.51 -74.97 -50.43 -61.33 49.75 -12.27 38.85 42.93 57.24 50.44 72.92 41.57 54.52 66.79 77.01 73.6 -42.25 -104.27c0,0 -28.63,-43.62 4.77,-98.82 33.39,-55.2 63.38,-69.51 109.04,-83.82 45.66,-14.32 70.2,0.68 70.2,0.68l-6.14 65.42 53.16 77.01 -2.05 37.48 15.68 53.84 -3.41 64.75 -14.3 60.65 29.99 68.15 68.15 5.45 57.24 -8.17 38.17 -35.44 29.98 70.87 84.51 46.35 62.69 0 -19.08 68.14 -46.34 24.54 0 57.24 59.97 73.6 19.08 62.7 57.25 106.32 51.79 79.05 -62.69 24.53 10.9 87.23 43.61 89.96 43.62 10.91 73.61 -81.78 27.25 -54.53 51.8 -21.8 32.71 179.91 -70.88 43.62 -49.07 70.87 -68.14 103.59 -19.08 100.86 109.04 8.18 103.58 -40.89 62.7 -43.62 103.58 -35.43 125.4 21.8 27.26 62.7 -95.41 21.81 -130.84 27.26 -59.98 -8.18 0 59.97 0 95.41 -119.94 24.53 46.34 81.78 51.8 -32.71 -5.46 79.05 -21.8 19.09 81.77 59.97 35.44 38.16 76.33 8.18 13.63 117.22 24.53 81.78 -92.68 13.63 -84.51 -27.26 54.53 43.61 -21.82 68.15 -98.13 19.08 -87.23 27.26 -160.83 51.8 -38.16 -19.08 8.17 -149.93 -54.52 -29.99 -49.06 57.24 51.79 68.16 -10.91 38.16 -89.95 0 13.63 51.79 16.35 84.51 70.88 62.69 65.42 -89.95 46.34 -16.36 -8.18 73.6 106.32 -38.16 -27.26 70.87 -79.06 54.53 29.99 65.42 5.45 49.07 106.32 8.17 54.51 68.15 46.35 68.15 -46.35 27.26 95.41 35.44 -35.43 59.97 -51.8 40.89 -13.63 59.97 -19.08 68.15 -73.6 16.36 35.44 21.81 92.68 -29.99 169.01 -16.36 76.33 46.35 40.89 -59.98 38.16 100.86 0 40.9 43.62 57.24 -16.36 27.26 -95.41 -13.63 -38.16 27.26 -65.42 10.9 -35.44 27.26 -128.12 13.63 -81.78 -59.97 -2.73 -95.41 -79.05 -57.24 -92.68 0 -19.08 -103.59 38.16 -84.51 -212.63 -2.72 -27.26 -24.53 -21.81 -84.51 38.17 -19.08 -54.52 -51.8 16.35 -62.69c0,0 -57.24,-68.15 -51.79,-92.68 5.45,-24.54 -57.25,-24.54 -57.25,-24.54l-57.24 0 -32.71 -136.3 43.61 -73.6 21.81 -57.24 -68.15 -51.8 -27.26 32.71 -81.78 -24.53 -16.35 -144.48 -95.41 100.86 -70.88 -46.34 -32.71 -19.08 -109.04 29.99 -43.62 -54.52 -32.71 -76.33c0,0 13.63,-54.52 13.63,-70.87 0,-16.36 -43.61,-73.61 -27.26,-76.33 16.36,-2.73 57.25,-2.73 57.25,-2.73 0,0 43.61,29.99 54.52,46.34 10.9,16.36 57.25,84.51 57.25,84.51l-16.36 38.16 40.89 10.91 40.89 19.08 -16.36 -79.06 87.23 -62.7 -43.61 -62.69 -166.29 -35.44 -70.87 -122.67 -2.73 -43.61 92.68 2.72 106.32 -29.99 46.34 -40.88 -177.19 43.61 -13.63 -43.61 155.38 -57.25 62.7 -8.18 -10.9 -57.24 -103.59 51.79 -98.14 21.81 -92.68 -19.08 -21.81 -76.33 38.17 -87.23 35.43 -119.95 -68.14 76.33 -46.35 51.8 -62.69 -46.35c0,0 -49.07,-65.42 -21.81,-68.15 27.26,-2.72 139.02,-2.72 139.02,-2.72l8.18 -59.97 13.63 -32.71 114.49 -13.63 -29.98 -141.75 29.98 -35.44 -5.45 -76.33 -81.78 -5.45 -100.86 -62.7 -32.71 -84.5 -119.94 -49.07 43.61 -40.89 62.7 -29.99 16.35 -62.7 -27.25 -38.16 -92.69 16.36 -19.08 -87.23 -46.34 -27.26 -84.51 10.9 -8.18 -92.68 -65.42 -2.73 -49.07 27.26 70.88 -128.12 73.6 -16.35 16.36 -111.77 -5.45 -62.7 24.53 -119.94 65.42 -76.33 -32.71 -5.45 21.8 -65.42 169.02 -57.25 27.26 70.88 -10.91 81.77 -43.61 70.88 -49.07 5.45 8.18 38.17 73.6 0 59.97 65.42 16.36 70.88 -27.26 84.5 45.63 14.33z"/>
   <path class="fil1" d="M4982.47 2813.88l-46.34 -34.08 29.99 -40.89 29.98 -69.51 10.91 -29.99 17.71 -34.08 44.99 -64.04 29.98 -49.07 100.86 -84.51 19.08 29.99 29.99 79.05 10.9 62.7c0,0 84.51,-57.24 103.59,-57.24 19.08,0 125.39,-89.96 125.39,-89.96l0 -76.33 84.51 -40.89 122.67 19.08 51.79 -29.99 54.52 0 13.63 70.88 2.73 111.76 -49.07 62.7c0,0 24.53,76.33 38.16,57.25 13.63,-19.08 70.88,-125.4 70.88,-125.4l59.97 -89.96 5.45 -76.32 -70.87 -51.79 -2.73 -119.95 62.7 -16.35 65.42 -54.52 32.71 40.89 73.6 35.44 21.81 29.98 -29.98 70.88c0,0 -51.79,92.68 -32.71,92.68 19.08,0 87.23,43.61 87.23,43.61l13.63 -117.21 76.33 -32.71 73.59 19.08 16.36 81.78 21.81 59.97 -8.18 98.13 46.34 62.7 35.44 43.61 -16.36 70.88 -106.31 32.72 -70.88 27.25 68.15 139.03c0,0 -65.42,5.45 -49.06,19.08 16.35,13.63 43.61,35.44 43.61,35.44l-10.9 81.78 -24.53 54.52c0,0 10.9,43.61 10.9,62.69 0,19.09 54.52,59.97 59.97,76.33 5.45,16.36 -73.6,10.91 -73.6,10.91l-21.81 59.97 -54.52 59.97 -117.21 19.08c0,0 -5.45,-54.52 -16.36,-70.88 -10.91,-16.35 -87.23,-84.5 -87.23,-84.5l130.84 32.71 46.35 -24.53c0,0 -35.44,-8.17 -43.62,-27.26 -8.18,-19.09 -8.18,-62.7 -8.18,-62.7l-16.35 -29.99 49.06 -35.43 49.07 40.88 8.18 -62.69 24.53 -43.62 -70.87 -51.79 -89.96 10.9 -81.78 -35.43 -81.78 24.53 -89.95 -51.8c0,0 -100.86,-24.53 -114.49,-40.88 -13.63,-16.36 -62.7,-57.25 -62.7,-57.25l-29.99 -51.79 -40.89 40.89 -84.65 36.07 -57.1 105.68 -119.94 73.6 -158.11 -46.34 -136.3 -125.4zm620.77 -251.86c8.18,0 104.96,-34.07 113.13,-36.8 8.18,-2.73 46.34,-81.78 46.34,-81.78l-46.34 20.44c0,0 -40.89,35.44 -51.79,35.44 -10.91,0 -49.07,-2.73 -49.07,-2.73l-12.27 65.43z"/>
   <path class="fil1" d="M6599.65 3347.51c0,0 17.72,53.84 14.99,58.61 -2.72,4.77 -23.85,16.35 -23.85,16.35l-47.02 15.68 -61.34 -32.03 -44.29 -41.58 10.22 -53.83 65.42 21.12 68.15 -17.72 55.89 -42.25c14.08,3.28 81.77,38.16 81.77,34.08 0,-4.09 -6.13,-62.02 -6.13,-62.02l45.66 -5.45 26.58 25.89c0,0 29.99,29.99 34.08,33.4 4.08,3.41 22.49,-46.35 22.49,-46.35l41.57 21.81 46.34 40.21 8.18 43.62 134.7 23.47c0,0 26.61,42.6 58.56,42.6 31.95,0 106.48,-47.92 106.48,-47.92l95.84 -101.16 73.9 55.33 -24.53 68.15 -76.33 27.25 -46.34 109.05 27.26 40.89 -38.17 70.87 -38.16 89.96 49.07 32.71 -10.91 38.16 -125.39 19.09 -27.26 27.26 73.6 5.45 -2.73 119.94 -51.79 152.66 87.23 -10.91 -8.18 -81.78c0,0 -13.62,-73.6 5.46,-73.6 19.08,0 46.33,24.54 59.97,0 13.63,-24.53 49.06,-122.67 49.06,-122.67l70.88 -27.26 65.42 19.09 21.81 139.02 89.96 -29.99 62.69 -40.89 38.17 95.41c0,0 -2.72,54.52 16.36,54.52 19.08,0 38.16,-5.45 38.16,-5.45l-24.53 73.6 10.9 89.96 62.7 -111.77 139.02 -8.18 147.21 70.88 -19.09 109.04 -117.22 73.6 -32.71 109.04 -54.52 59.97 -122.67 2.73 -8.17 68.15 -73.61 54.52 -100.86 21.81 -10.9 54.52 -24.53 87.22 -160.84 62.7 -182.64 -40.88 -152.65 46.33 -111.76 10.91 -54.52 136.3 -256.25 49.06 -21.8 158.11 -114.49 54.52 -125.4 -76.32 29.39 -147.49 188.69 -141.47 59.97 0 141.75 -201.72 -92.68 -76.33 -59.97 -114.49 92.68 -21.81 179.91 -152.65 234.44 -16.36 -76.33 -147.2 -158.11 54.52 -130.84 16.35 -70.88 49.07 -81.78 -147.2 -152.65 -70.88 81.78 -147.2 -16.36 -169.01 267.15 -147.2 92.68 -109.04 -5.45 -109.04 -89.96 -21.81 -59.97 -49.07 -77.63 15.42zm312.08 537.97l51.79 -84.51 100.86 -32.71 38.16 -171.74 -152.65 21.81c0,0 -10.91,35.44 -29.99,51.79 -19.08,16.36 -98.13,29.99 -98.13,29.99l-106.32 38.17 -43.61 62.69 -16.36 51.8 106.32 13.62 92.68 0 57.25 19.09zm408.89 580.63l40.89 -103.59 81.78 -49.06 10.91 -79.06c0,0 5.45,-65.42 -10.91,-65.42 -16.36,0 -114.49,19.08 -114.49,19.08l-46.34 57.25 -51.8 -8.18 -54.53 21.32 27.28 114.98c0,0 0,59.96 19.08,62.69 19.08,2.73 81.78,-13.62 81.78,-13.62l16.35 43.61z"/>
   <polygon class="fil1" points="7520.96,3559.73 7586.38,3464.32 7659.99,3442.51 7695.42,3371.63 7790.83,3368.91 7812.64,3287.13 7700.87,3205.35 7640.9,3289.85 7559.12,3311.66 7520.96,3311.66 7444.63,3385.26 7387.39,3445.24 7469.17,3499.75 "/>
   <path class="fil1" d="M7152.95 3355.28l87.23 -109.04 98.14 -2.72 130.85 -40.9 100.86 -76.32 -10.91 -59.97 -84.5 29.98 -19.09 -46.34 38.17 -84.5 -111.77 19.08 -92.68 27.25 62.7 68.16 57.24 70.87 -89.95 -5.45 -8.18 -59.97 -89.96 -89.96 -73.6 -59.97 -2.73 -106.31 -76.32 -13.64 29.98 -70.87 -62.7 -92.68 109.04 29.98 57.25 32.71 -49.07 24.54 27.26 84.5 103.59 -70.87 38.16 5.45 62.7 -35.44 8.18 -171.73 -8.18 -62.7 32.71 2.72 54.52 119.95c0,0 109.04,-2.73 125.4,-5.46 16.35,-2.72 49.06,27.27 49.06,27.27l160.84 -89.96 24.53 -149.93 57.25 49.07 -13.63 49.06 35.43 24.54 -2.72 59.97 76.33 -2.73 19.08 -109.03c0,0 29.98,-10.9 32.71,13.63 2.72,24.53 89.95,95.4 89.95,95.4l27.27 46.34 84.5 51.8 -27.26 87.23 -32.71 59.97 40.89 49.07 -46.34 79.05 -46.35 38.17 -70.87 -40.89 -70.87 32.71 24.53 76.33 57.25 24.53c0,0 49.06,29.99 65.42,21.81 16.36,-8.18 149.93,-106.32 149.93,-106.32l16.35 51.8c0,0 10.91,106.31 -5.45,106.31 -16.35,0 -109.04,0 -109.04,0l-87.23 -19.08c0,0 -38.16,59.97 -21.81,59.97 16.36,0 79.06,-16.36 79.06,-16.36l51.79 59.98c0,0 -13.63,40.89 10.9,29.98 24.53,-10.9 76.33,-46.34 76.33,-46.34l19.08 68.15 57.25 19.08 19.08 32.71 43.61 2.73 65.43 -155.38 -49.07 -128.12 -46.34 -119.94 147.2 -117.22 0 -59.97 87.23 -32.71 -35.43 -79.06 -87.24 43.62 -57.24 2.72 -27.26 -57.24 19.08 -43.62 92.68 24.53 70.88 -16.35 -13.63 -106.31 68.15 -40.89 98.14 0 79.05 40.9 -21.82 35.44 62.7 35.43 98.14 19.08 16.35 24.54 92.69 19.08 79.05 59.97 -122.67 152.66 68.15 38.16 79.06 -29.3 28.62 6.13 50.44 23.17c0,0 57.93,6.13 62.7,6.13 4.77,0 65.42,-34.07 65.42,-34.07l-26.58 -89.96 25.22 -145.16 65.43 -103.59 -49.07 -54.51 19.08 -49.07 -19.08 -35.44 -59.97 -8.18 -19.08 -155.38 -89.96 -62.7 -29.99 -65.42 8.18 -117.22 -40.89 -79.05 -43.61 -27.26 -59.98 54.52 -54.51 54.52 -73.61 5.45 24.54 73.6 103.58 -5.45 62.7 59.97 -5.45 114.49 -13.63 49.07c0,0 -5.46,-59.97 -24.54,-59.97 -19.08,0 -65.42,8.17 -65.42,8.17l-84.5 -5.45 -68.15 -54.51 -24.53 21.8 -5.46 73.61 147.2 100.86 -16.35 46.34 -59.97 -49.07 -84.51 -29.99 -54.52 -35.43 -49.06 -5.46 -119.95 32.71 -106.31 35.45 24.54 62.69 -87.24 -103.59 -139.02 -32.71 -76.33 24.54 -21.81 32.71 5.45 -70.88 -87.23 -40.89 21.81 -35.44 -119.95 62.7 -27.25 10.91 -29.99 40.89 -57.25 -27.26 -19.08 43.61 -65.42 13.63 -109.04 -68.15 -163.56 -40.89 -51.79 70.88 -16.36 68.15 13.63 43.61 -149.93 2.73 29.99 -79.06 35.44 -2.72 0 -158.11c0,0 -158.1,-49.07 -133.57,-54.52 24.53,-5.45 179.91,-2.72 179.91,-2.72l49.07 -114.49 -29.99 -38.17 65.42 -100.86 51.8 57.25 95.41 -65.42 -49.07 -119.95 10.91 -76.32 -73.61 -57.25 130.85 -81.78 13.63 -114.49 -13.63 -122.67 -100.86 -92.68 -95.41 -103.59 -19.08 -51.8 -76.33 -13.62 -84.51 84.5 -38.16 128.12 -43.61 13.63 38.16 89.96 111.76 -13.63 49.07 57.25 24.54 114.49 35.43 24.53 -13.63 35.43 -70.87 -27.25 -54.52 10.9 -2.73 79.05 57.25 139.03 68.15 -19.08 40.88 54.52 -35.43 43.61 -62.7 27.26 -29.99 106.32 -70.87 -10.91 -87.23 59.97 -133.57 0 -79.06 -89.96 -73.6 -125.39 -114.49 -130.84 -59.97 -152.66 27.26 -59.97 -43.62 -46.34 128.12 -49.07 -54.52 -122.67 -125.39 29.99 -100.86 57.24 -68.15 -10.9 -106.32 19.08 -106.31 128.12 24.53 32.71 -65.42 79.06 19.08 49.06 -49.06 81.78 100.86 -76.33 117.22 -13.63 65.42 51.8 -43.62 70.87 -38.16 -46.34 -81.78 81.78c0,0 -65.43,87.23 -40.89,87.23 24.54,0 109.03,54.52 117.21,73.6 8.19,19.09 10.91,62.7 10.91,62.7l21.81 84.51 133.57 -139.03 2.73 54.52 -21.81 54.52 -21.81 106.31 59.97 51.8 81.78 -19.09 89.96 -117.21 59.97 -62.7 40.89 -51.79 0 54.52 -70.88 84.5 0 51.8 106.32 -19.09c0,0 32.71,-2.73 49.07,-5.45 16.35,-2.73 133.57,-19.08 133.57,-19.08l79.05 49.07 13.63 81.77 -68.14 -5.45 -2.73 65.43 19.08 62.7 -95.41 95.41 106.31 62.69 16.36 79.05 -59.97 57.25c0,0 -111.77,-5.45 -111.77,-29.99 0,-24.53 -27.26,-136.29 -27.26,-163.55 0,-27.27 -49.06,-84.51 -49.06,-84.51l-89.96 -59.97 -27.26 -87.23 -81.78 -27.26 -27.26 103.59 -51.79 103.58 8.17 62.7c0,0 65.43,8.18 40.89,24.53 -24.53,16.36 -70.88,40.9 -70.88,40.9l103.6 62.69 70.87 51.8 87.23 21.8 76.33 65.43 -79.06 81.77 -76.32 -24.53 49.07 -27.26 -2.73 -62.7 -103.59 -27.26 -59.97 38.17 54.52 40.89 -26.59 17.04 -11.58 20.44 -7.5 53.16 8.86 32.71 37.49 37.48 51.11 -9.54 17.03 17.04 -10.9 13.63 -32.71 9.54 -23.86 31.35 -85.87 17.71 -65.42 -68.14 -29.99 -21.81 -39.53 23.17 21.81 43.61 -20.45 34.08 36.81 59.97 38.16 43.61 50.43 38.17 69.51 -53.16c0,0 44.98,-49.06 55.89,-55.88 10.9,-6.81 57.24,-44.98 57.24,-44.98l102.23 13.63 -9.55 29.99 81.78 10.9 4.09 84.51 -27.26 54.52 9.54 35.44 -16.35 64.05 61.34 61.34 70.87 12.94z"/>
   <path class="fil1" d="M7267.45 2962.09l84.5 -77.69 13.64 -43.61 -94.05 -6.81c0,0 -31.35,40.89 -43.62,42.25 -12.27,1.36 0,66.78 16.36,70.87 16.36,4.09 23.17,14.99 23.17,14.99z"/>
   <polygon class="fil1" points="7659.99,2868.05 7612.28,2808.08 7538.68,2821.71 7533.23,2763.1 7615.01,2749.47 7650.45,2761.74 7710.42,2678.59 7792.2,2688.13 7863.08,2738.57 7917.59,2816.26 7890.33,2861.23 "/>
   <polygon class="fil1" points="4345.2,4330.55 4368.37,4325.1 4391.54,4319.65 4418.81,4359.17 4461.06,4308.74 4368.37,4203.79 4271.6,4254.22 4323.4,4322.37 "/>
   <path class="fil1" d="M4128.2 4034.6c0,0 34.37,-2.55 38.45,12.45 4.09,14.99 4.09,42.25 4.09,42.25l66.79 -38.16 19.08 -122.67 17.72 -85.87c0,0 -89.96,-87.23 -99.5,-80.42 -9.54,6.82 -62.7,44.98 -62.7,44.98l-31.35 -35.44c0,0 12.27,-36.79 0,-44.97 -12.27,-8.18 -46.34,-15 -46.34,-15l-27.26 -87.23 -99.5 -57.25 -111.77 58.61 0 65.43 57.25 118.58 6.82 51.79 128.12 -70.87c0,0 32.71,55.88 35.44,64.06 2.72,8.17 -21.81,51.79 -21.81,51.79l59.97 89.96 66.79 6.81 -0.29 31.17z"/>
   <path class="fil1" d="M5077.12 6473.17l115.86 1.36 38.16 -49.07 -12.26 -110.4 -54.53 -96.77 -95.41 43.62 32.72 58.6 -39.53 65.43c0,0 -91.32,16.35 -83.14,20.44 8.17,4.09 72.24,59.98 72.24,59.98l25.89 6.81z"/>
   <polygon class="fil1" points="4895.84,6906.6 4850.87,6877.98 4804.53,6875.25 4774.54,6818 4834.51,6734.87 4878.13,6725.32 4939.46,6786.66 4950.37,6845.27 4916.29,6892.97 "/>
   <path class="fil1" d="M5761.34 7079.7l-76.33 2.73 -44.97 -65.43c0,0 -35.44,-62.69 -35.44,-72.23 0,-9.54 25.9,-61.34 28.62,-73.61 2.73,-12.26 51.79,-74.96 51.79,-74.96l57.25 -4.09 50.44 17.72 51.79 89.95 -31.35 61.34 -72.24 23.17 -8.18 46.35 25.9 31.34 2.72 17.72z"/>
   <path class="fil1" d="M5859.48 7128.77l-42.25 70.87 -31.35 9.54 21.81 83.15 -16.36 96.77c0,0 -40.89,-5.46 -42.25,-13.63 -1.37,-8.18 -57.25,-83.14 -57.25,-83.14l10.91 -175.83 49.06 12.27 81.78 -42.26 25.9 42.26z"/>
   <polygon class="fil1" points="6655.47,6208.77 6731.8,6200.59 6805.41,6137.9 6767.24,6020.68 6727.71,5992.06 6685.46,6058.84 6636.39,6125.63 "/>
   <path class="fil1" d="M6496.01 5610.43l-43.62 125.39 65.43 92.69 139.02 27.26 125.4 35.43 43.61 70.88 125.4 27.26 147.2 -81.78 177.19 54.52 98.14 62.7 128.11 81.77 149.94 32.72 8.17 76.32 0 46.35c0,0 65.42,51.79 98.14,35.43 32.71,-16.35 27.26,-70.87 27.26,-70.87l73.6 65.42 128.12 54.52 24.53 -128.12 -147.2 -40.89 -76.33 -27.26 43.62 -57.25 109.03 0 59.98 5.46 -35.44 -76.33c0,0 -29.99,-51.79 -49.07,-51.79 -19.08,0 -95.41,38.16 -95.41,38.16l-40.89 -68.15 -46.34 68.15 -46.34 -62.7 76.33 -59.97 46.34 -27.26 -29.99 -70.87 125.4 -57.25 16.35 49.07 174.47 -103.59 106.31 46.34 59.97 -54.52 2.73 54.52 -35.44 65.43 -29.99 68.15 -98.13 -10.91 -43.61 62.7 54.51 87.23 43.62 0 -2.73 114.49 95.41 27.26 87.24 57.25 114.49 -38.17 65.42 59.97c0,0 24.53,117.22 40.89,117.22 16.35,0 70.87,-57.24 70.87,-57.24 0,0 -21.81,-54.52 -5.45,-54.52 16.36,0 95.41,-2.73 95.41,-2.73l49.07 119.94 111.76 0 -19.08 51.8 -8.18 46.34 35.44 51.79c0,0 68.15,5.46 98.13,0 29.99,-5.45 95.41,-27.26 95.41,-27.26l79.06 46.34 38.16 59.98 133.58 -32.71 149.92 -89.96 2.73 -73.61c0,0 32.72,-13.62 57.25,-13.62 24.53,0 117.21,0 117.21,0l46.34 21.8 70.88 -76.33 16.35 -46.34 -95.41 -103.58 -122.66 -54.52c0,0 -89.96,-40.89 -106.32,-46.34 -16.35,-5.45 -103.58,-38.17 -103.58,-38.17l65.42 -32.71 68.15 -8.18 32.71 0 -2.72 -46.34c0,0 -32.72,-5.45 -49.07,-5.45 -16.36,0 -122.67,-13.63 -122.67,-13.63l-46.35 -51.79 -70.87 19.08 43.62 -68.15c0,0 51.79,-5.45 70.87,-2.73 19.08,2.73 79.06,13.63 79.06,13.63 0,0 -5.46,-179.91 8.17,-141.75 13.63,38.16 51.8,95.41 51.8,95.41l8.17 51.79 92.69 29.99 98.13 -51.79 -19.08 -130.85 -19.08 -81.78 92.68 -35.44 -32.7 -24.53 26.58 -12.95 25.89 9.54 36.12 -57.93 16.36 -108.35 -35.44 -49.07 -46.34 2.73 -2.73 79.05 -51.79 100.86 -35.44 -49.06c0,0 -38.17,13.62 -38.17,-10.91 0,-24.53 -89.95,-122.67 -89.95,-122.67l-49.07 51.8 -57.25 128.12c0,0 19.09,-54.52 0,-59.98 -19.08,-5.45 -114.49,-27.26 -114.49,-27.26l-122.67 -24.53c0,0 73.61,-166.29 100.87,-158.11 27.25,8.18 51.8,46.35 62.7,29.99 10.9,-16.36 98.13,-79.05 98.13,-79.05l-8.18 -70.88c0,0 -100.86,-51.79 -130.85,-68.15 -29.98,-16.35 -95.41,-35.44 -95.41,-35.44l-141.75 65.43 -2.72 57.24 -111.77 144.48 -79.05 10.9 -111.76 106.32 -68.15 59.97 -65.43 -24.54c0,0 -19.08,-43.61 -19.08,-62.69 0,-19.08 35.44,-70.88 -8.18,-73.6 -43.61,-2.73 -106.31,13.63 -106.31,13.63l-109.04 49.07 -81.78 68.14 -49.06 10.91 -38.17 -13.63 -38.16 24.53 -133.57 35.44c0,0 -98.14,27.26 -109.05,46.34 -10.9,19.08 -79.05,70.88 -79.05,70.88l-103.58 122.66c0,0 -51.8,2.73 -51.8,-19.08 0,-21.8 19.08,-38.16 2.73,-40.89 -16.36,-2.72 -119.95,-2.72 -119.95,-2.72l106.32 -46.35 19.08 -51.79c0,0 54.52,21.81 68.15,5.46 13.63,-16.36 38.16,-46.35 38.16,-46.35l-16.35 -149.92 46.33 -40.9 147.21 -13.63 73.6 -158.1c0,0 -76.32,-10.91 -38.16,-5.45 38.16,5.45 95.41,-54.52 95.41,-54.52l133.57 2.72 47.66 -49.05 27.26 -6.82 28.62 -46.34 55.88 27.26 98.14 -10.91 29.98 -55.88 -35.43 -106.31 -40.89 -68.15 -51.8 14.99 -137.66 32.71 -49.07 -20.44 -43.61 -6.82 -58.61 42.25 -64.06 5.46 -13.63 40.89 -58.61 24.53 -133.57 57.25 -29.99 21.81 -19.08 -8.18 -49.07 29.98 -20.44 74.97 -46.34 65.42c0,0 -23.17,20.45 -35.44,20.45 -12.27,0 -53.16,6.81 -53.16,6.81l-4.09 57.25 -49.07 2.73 -29.98 -4.09 -38.16 -28.63 -36.81 53.16 -40.89 62.69 -74.96 27.27 -66.79 72.23 -77.69 38.17 -23.17 -21.81 -23.17 58.61 -20.44 42.25 -61.34 15 -49.07 0 -40.89 34.07 -74.97 16.36 -29.98 0 -39.52 -29.99c0,0 34.07,-64.06 44.97,-72.24 10.91,-8.18 19.08,-29.98 19.08,-29.98l-36.8 -6.82 28.63 -40.89 19.08 -17.72c0,0 57.25,-50.43 59.97,-59.97 2.73,-9.54 20.44,-43.62 20.44,-43.62l128.13 -49.06 80.41 -76.33c0,0 31.36,-42.26 32.72,-54.52 1.36,-12.27 -54.53,-49.07 -54.53,-49.07l-88.59 23.17 -83.14 51.8 -99.5 55.88 -62.7 50.43 -38.16 53.16 -25.9 14.99 -31.35 12.27 -25.89 9.54 -36.81 17.72 -92.68 46.34 -39.52 36.8 -79.06 2.73 -25.9 42.25 10.91 51.79 55.93 74.27zm1898.58 484.59l16.35 -54.52 -4.09 -136.3 38.16 -55.88 -66.78 -34.08 -61.34 50.43 -34.07 35.44 57.24 57.25 -6.81 69.51c0,0 -17.72,10.91 -24.53,19.08 -6.82,8.18 23.17,38.16 23.17,38.16l62.7 10.91zm681.49 65.42l104.95 107.68 14.99 -40.89 9.55 -100.86 -36.8 -24.53 -46.35 24.53 -46.34 34.07zm-535.66 -321.66l-59.97 -27.26 62.7 -53.16 126.76 -42.25 84.5 -4.09c0,0 -2.73,-55.89 -10.9,-61.34 -8.18,-5.45 -83.14,-49.07 -83.14,-49.07l94.04 -20.44 126.76 13.63 -2.72 28.62 62.69 -38.16 68.15 14.99 115.86 -109.04 59.97 -49.06 43.62 62.69 14.99 36.8 -44.98 35.44 -54.52 21.81 -17.72 50.43 -51.79 4.09 -72.24 27.26 -79.06 58.61 -29.98 27.26 -49.07 -4.09 -42.25 -8.18 -76.33 8.18 -28.62 43.62 -46.35 -2.73 -51.79 -13.63 -43.61 25.9 -15 23.17z"/>
   <path class="fil1" d="M8352.34 4415.8l39.53 38.16 40.89 21.81 32.71 32.71 40.89 -42.25 34.07 10.9 62.7 0 29.99 -2.72 51.79 13.63 115.86 -53.16 38.16 -42.25 -117.22 -68.15 5.45 -49.07 -20.44 -13.63 -68.15 24.53c0,0 -46.34,-35.43 -51.79,-25.89 -5.45,9.54 -39.53,-28.63 -39.53,-28.63l-10.91 -25.89 -121.3 28.62 -17.72 46.34 -17.72 84.51 -27.26 50.43z"/>
   <path class="fil1" d="M5239.24 2355l57.24 -19.09 50.44 -35.43 115.85 14.99 98.14 -35.44c0,0 -4.09,-17.72 -19.08,-46.34 -15,-28.62 -98.14,-74.96 -98.14,-74.96l-20.45 17.72 -51.79 35.43 -43.62 35.44 -66.78 16.36 -42.26 49.06 20.45 42.26z"/>
   <polygon class="fil1" points="5175.18,2265.04 5141.1,2220.06 5158.82,2150.54 5188.81,2067.41 5237.87,2033.33 5308.75,2042.87 5348.28,2083.76 5319.65,2136.92 5301.94,2203.7 5274.68,2237.78 5201.07,2285.48 "/>
   <path class="fil1" d="M5627.99 1971.33l-32.71 34.07 2.73 32.71 59.97 23.18 47.71 -68.16 64.06 -31.34 -5.45 -74.97 -32.72 -61.34 47.71 -39.52 -35.44 -59.97 106.31 55.88 31.35 -57.25 -38.16 -53.15 -94.05 -55.89 -14.99 27.26c0,0 -31.35,-40.89 -32.71,-49.06 -1.37,-8.18 24.53,-50.44 24.53,-50.44l-31.35 -38.16 -65.42 -16.35 -76.33 40.89 -31.35 57.24 -29.98 6.82 -40.9 44.97 -47.7 23.18 -40.89 23.17 -1.36 51.79 -29.99 110.4 6.82 95.41c0,0 58.61,38.16 62.7,27.26 4.08,-10.9 65.42,-88.59 65.42,-88.59l46.34 44.98 40.89 -27.26 -57.24 -51.8 1.36 -46.34 47.7 -6.81 36.8 34.07 62.7 61.34 59.97 35.43 -76.33 46.35z"/>
   <path class="fil1" d="M6042.34 1881.37c0,0 28.63,-36.81 32.72,-49.07 4.09,-12.27 36.8,-77.69 36.8,-77.69l43.62 -16.36 -54.53 -62.69c0,0 -51.78,-32.71 -43.61,-47.71 8.18,-14.99 47.7,-50.43 47.7,-50.43l76.32 -74.97 59.97 -36.8 57.25 -4.09 34.07 25.9 -38.16 61.33 2.72 46.35 -8.18 29.98 -55.88 29.98 39.53 83.15 -38.17 44.98 -74.96 61.33 -57.25 50.43 -59.96 -13.62z"/>
   <path class="fil1" d="M5945.56 1678.28l63.13 -48.04 34.31 -16.46 43.91 -52.16 4.12 -91.94 32.93 2.74 38.43 -9.6 59.01 -94.7 23.33 31.57 56.27 -26.08 43.91 -23.33 -28.81 -27.44 -72.74 -16.48 60.67 -23.35 70.87 -95.41 13.63 29.98 53.16 -20.44 92.68 -32.72 27.26 -6.81 44.98 36.8 50.43 24.53c0,0 34.07,-10.9 42.25,-14.99 8.18,-4.09 85.87,-111.76 85.87,-111.76l53.16 -9.54 35.44 4.08 6.81 -47.7 96.77 -5.45 95.41 32.71 59.97 -53.16 42.26 -99.5 -14.99 -64.06 -50.44 5.45 -58.6 13.63 -27.27 -20.44 -43.61 24.54 -94.05 54.51 -10.9 20.45 -50.43 -31.35 -51.79 -69.51 21.8 -25.9c0,0 31.35,-10.9 39.53,-10.9 8.17,0 23.17,34.07 42.25,23.17 19.08,-10.91 58.61,-40.89 58.61,-40.89l-58.61 -40.89 -40.89 -6.82 -74.96 9.54 46.34 -49.06 -66.79 -118.58 -70.87 25.89 -85.87 17.72 -57.25 1.36 -29.98 15 -29.99 -21.81 -44.98 -46.35 -38.16 -66.78 -16.36 -29.98 -51.79 0 -106.31 49.06 -76.33 34.07 -51.79 55.89 -57.25 12.27 -24.53 -40.89 -24.54 -21.81 -49.07 0 -61.33 27.26 -66.79 0 -21.8 38.16 -5.45 20.45 81.77 -6.82 39.53 -2.72 19.08 13.62 -54.52 32.72 -17.72 13.63 -36.8 -2.73 -28.62 9.54 0 27.26 -40.89 64.06 -28.62 55.88 10.9 65.43 28.62 53.16 42.26 -8.18 27.26 42.25 -6.82 31.35 -38.16 68.15 -25.9 74.97 16.35 -1.37 -4.08 38.17 28.62 23.17 47.7 42.25 -16.35 20.44 -59.97 17.72c0,0 -44.98,39.53 -54.52,43.62 -9.54,4.09 -31.35,32.71 -31.35,32.71l40.89 14.99 32.71 -12.26 23.17 43.61 21.81 64.06 -9.54 28.62 12.27 49.08 62.69 39.52 46.34 38.17 47.71 8.18zm-84.5 -174.47l5.45 -55.88 64.05 -34.08 35.45 -38.16 -23.18 -91.32 -9.54 -36.8c0,0 -51.79,73.6 -59.97,76.32 -8.18,2.73 -53.16,74.97 -53.16,74.97l1.37 81.78 39.53 23.17zm310.76 -498.86c8.17,-1.36 68.14,-19.08 68.14,-19.08l2.73 -19.08 43.62 21.81 34.07 -50.43 99.5 -40.89 13.63 -50.43 -21.81 -64.06 -29.98 -23.18 -43.62 17.73 -54.52 -5.46 -38.17 -19.08c0,0 24.54,-14.99 16.36,-14.99 -8.18,0 -58.61,8.17 -58.61,8.17l-29.98 47.71 -29.99 0 -12.27 36.8 -44.97 25.9 44.97 73.6 42.26 19.08 -1.36 55.88z"/>
   <polygon class="fil1" points="4804.5,2431.06 4852.21,2420.83 4843.69,2287.94 4860.73,2211.27 5002.13,2098.82 5046.43,2080.08 5051.54,1991.49 5077.1,1908.01 5058.35,1812.6 4997.02,1873.94 4979.98,1819.42 4901.61,1850.08 4874.35,1897.79 4908.42,1925.05 4860.72,2064.75 4809.6,2081.79 4782.35,2163.57 4795.97,2255.57 4748.27,2313.5 "/>
   <polygon class="fil1" points="4533.6,1986.38 4594.93,2013.64 4690.34,1955.72 4687.78,1885.01 4641.79,1910.56 4591.52,1859.45 4560.86,1846.67 4554.04,1889.27 4461.19,1902.04 "/>
   <polygon class="fil1" points="4988.49,1697.61 5032.79,1697.61 5053.23,1676.31 5084.75,1686.53 5099.23,1668.65 5108.6,1603.9 5097.53,1555.35 5060.05,1523.83 5040.45,1504.23 4980.82,1555.35 4951.01,1610.72 4960.38,1649.9 "/>
   <path class="fil1" d="M4409.18 1372.2l5.11 -44.3 76.67 -35.78 42.59 -78.37 34.08 -52.82 -73.26 -30.66c0,0 -30.67,-20.45 -35.78,-44.3 -5.11,-23.85 -20.44,-3.41 -20.44,-3.41l-20.45 103.93 -13.63 80.08 -54.52 27.25 -1.7 37.49 61.33 40.89z"/>
   <polygon class="fil1" points="5087.25,654.93 5129.84,644.71 5117.92,597 5141.77,559.52 5243.99,641.3 5293.4,625.97 5329.18,581.67 5305.33,568.04 5346.22,515.22 5407.55,441.96 5387.11,384.03 5337.7,411.29 5284.88,418.11 5208.21,285.22 5160.51,402.77 5117.92,435.15 5036.14,465.81 5085.55,530.56 5073.62,573.15 5058.29,597 "/>
   <polygon class="fil1" points="4504.57,683.89 4395.53,687.3 4349.53,665.15 4364.86,629.37 4395.53,583.37 4398.94,528.85 4387.01,493.07 4446.64,459 4497.76,467.52 4553.98,499.89 4555.68,549.3 4552.27,605.52 4485.83,627.67 "/>
   <polygon class="fil1" points="6375.25,402.77 6472.36,411.29 6513.25,377.22 6550.74,404.48 6613.77,353.37 6680.22,414.7 6734.74,411.29 6787.56,395.96 6845.49,302.25 6825.04,259.66 6763.71,225.58 6668.3,252.85 6620.59,280.1 6586.51,300.55 6528.59,273.29 6475.77,281.81 6453.62,327.81 6393.99,338.03 6336.06,295.44 6327.54,348.26 "/>
   <polygon class="fil1" points="7017.52,2353.56 7101.01,2367.19 7155.53,2341.63 7126.56,2310.97 7073.75,2254.74 7046.49,2215.56 6956.19,2218.97 6920.41,2215.56 6940.86,2287.11 6983.45,2326.3 "/>
   <polygon class="fil1" points="7842.14,2154.22 7910.29,2181.48 7971.62,2125.26 8007.4,2074.15 7954.59,2006 7891.55,2006 7854.07,1988.96 7791.03,2069.04 "/>
   <path class="fil1" d="M7308.87 1808.37l-25.56 -6.82 -9.38 22.15 -36.63 -17.04 -99.67 -52.81c0,0 -39.19,-108.19 -51.96,-99.67 -12.78,8.51 -74.97,60.48 -74.97,60.48l-43.44 -25.56 18.72 -78.37 28.11 -27.26 43.44 -33.22 36.63 61.33 17.89 2.56 86.04 -41.75c0,0 17.89,32.38 16.19,38.34 -1.71,5.96 -38.34,60.48 -38.34,60.48l34.08 5.11 33.22 -18.74 65.63 150.79z"/>
   <polygon class="fil1" points="7116.28,1494.88 7078.8,1445.47 7089.02,1399.47 7073.69,1328.77 7081.35,1263.17 7109.47,1230.8 7115.43,1281.91 7144.39,1328.77 7173.36,1365.39 7186.98,1425.88 7132.47,1487.21 "/>
   <path class="fil1" d="M7733.03 1523.85c10.22,0 57.93,6.81 57.93,6.81l30.66 34.07 35.78 -27.26 -10.22 -69.85 -40.89 -66.45 63.04 -30.66 78.37 0 1.7 -37.48 90.3 18.74 20.44 51.11 -13.62 97.11 -28.97 54.52 -23.85 52.82 -78.37 64.74 -34.07 35.78 -42.6 -54.52 -40.89 -8.52 -40.89 -57.93 -23.85 -63.03z"/>
   <polygon class="fil1" points="8315.71,850.86 8315.71,884.94 8377.05,951.38 8411.12,862.79 8421.34,808.27 8383.86,758.86 8363.42,712.86 8298.68,745.23 8266.3,792.94 "/>
   <polygon class="fil1" points="7638.48,255.42 7632.52,205.16 7664.89,160.01 7578,102.08 7503.04,181.31 7531.15,247.75 7523.48,277.57 7438.29,320.16 7413.59,326.13 7384.63,320.16 7348.84,328.68 7341.18,381.5 7390.59,441.13 7487.7,383.2 7618.89,310.79 7627.41,352.53 7642.74,363.61 7721.11,249.46 "/>
   <polygon class="fil1" points="7790.12,377.24 7818.23,324.42 7850.6,352.53 7894.9,288.64 7940.04,290.34 8021.83,312.49 8055.05,366.16 8061.01,407.9 7982.64,441.98 7913.64,458.17 7846.34,417.28 "/>
   <path class="fil1" d="M8661.55 565.51l119.26 -34.07c0,0 105.63,3.41 54.52,78.37 -51.11,74.96 -226.6,30.67 -226.6,30.67l-85.19 -71.56 3.41 -78.37 -23.85 -51.11 -15.33 -92.01 42.59 -44.3 73.26 61.34 57.93 -54.52 -1.71 76.67 -30.66 88.59 32.37 90.3z"/>
   <polygon class="fil1" points="8664.95,1211.23 8709.25,1137.97 8641.1,1105.6 8491.17,1156.71 8497.99,1207.82 8520.14,1289.6 8581.47,1294.71 8617.25,1347.53 8678.59,1402.05 8734.81,1439.53 8816.59,1483.82 8908.59,1451.45 8903.48,1385.01 8889.85,1299.82 8915.4,1223.16 8883.03,1178.86 8843.85,1160.12 8823.4,1190.78 8799.55,1243.6 8739.92,1301.53 8680.29,1274.26 "/>
   <path class="fil1" d="M8249.26 3746.41l102.23 -81.78 0 -109.04 170.37 13.63 -68.15 -81.78 67.31 -149.92 51.96 -73.26 49.41 -60.49 87.74 -52.81c0,0 96.26,-3.41 103.93,-0.85 7.66,2.55 102.22,-46 102.22,-46l32.37 28.96 8.52 30.67 -45.15 81.78 -44.29 68.14 -15.34 44.3 19.6 15.34 67.29 -7.67 82.63 -94.56 73.27 -132.89 -101.38 17.89 -26.4 -27.26 54.51 -64.74 -1.7 -68.15 80.95 -24.71 65.6 54.52 -9.37 63.89 47.7 5.12 34.08 68.15 34.08 3.41 -64.75 109.04 37.49 88.59 -23.86 57.93 37.49 132.89 -54.53 40.89 -71.55 -27.26 -44.3 23.85c0,0 17.04,54.52 37.48,74.97 20.45,20.44 6.82,136.29 6.82,136.29l-3.41 88.6 17.04 44.3 -98.82 74.96 -68.15 6.81 -17.03 -74.96 -71.56 6.82 -37.48 -6.82 -23.86 44.3 -95.41 27.26 -44.29 -51.11 -109.04 -13.63 23.85 -68.15 -40.89 -105.63 -129.48 -17.04 -40.89 47.7 -144.86 -60.49z"/>
   <path class="fil1" d="M9489.65 3370.75l13.63 71.56 -71.56 6.82 -49.41 -25.56 -69.85 -88.6 115.86 -146.52 90.29 109.04 81.78 18.74 -46 -115.85 15.33 -100.52c0,0 17.04,-63.04 6.82,-57.93 -10.22,5.11 -27.26,27.26 -27.26,27.26l-49.41 -28.97 -30.67 -59.62 32.37 -40.9 -18.73 -119.25 1.7 -41.74 66.45 -60.48 51.11 -49.41 57.93 44.3 -10.22 22.14 -3.41 56.23 -54.52 42.59 8.52 25.56 40.89 80.08 3.41 76.66 -6.81 64.74 66.44 13.63 64.74 88.6 20.45 47.7 -63.04 1.7 -71.56 46.01 20.45 61.33 8.51 69.85 -49.4 25.56 -39.19 -23.85 -85.18 -68.15 -20.46 27.25z"/>
   <path class="fil1" d="M9784.41 2885.19c0,0 85.19,-63.03 93.7,-92 8.52,-28.96 5.11,-40.89 5.11,-40.89l-83.48 -52.81c0,0 -68.15,23.84 -64.74,34.07 3.41,10.23 18.74,98.82 18.74,98.82l30.67 52.81z"/>
   <path class="fil1" d="M9547.58 1946.44l88.59 -40.89 -88.59 -105.63 -57.93 44.3c0,0 -40.89,47.71 -10.22,64.74 30.66,17.04 68.15,37.48 68.15,37.48z"/>
   <path class="fil1" d="M10034.85 1632.96c-17.04,20.44 -61.34,71.55 -61.34,71.55l-32.36 42.6 -51.11 -3.41 -25.56 -73.26 39.19 -54.52 28.96 -127.78 18.74 -40.89 64.75 110.74 56.22 -54.52 68.15 -86.89 0 -74.96 112.45 -22.15 105.63 35.78 23.85 66.44 -69.85 -6.81 -68.15 27.26 -30.67 69.85 -23.86 46 -44.29 -27.26 -15.33 28.97 32.37 57.92 59.63 35.78 42.59 8.52 -64.74 54.52 -44.3 42.6 -8.52 -54.53 -49.4 -25.55 -63.05 -46z"/>
   <polygon class="fil1" points="8959.8,1183.18 9019.43,1150.8 9009.2,1096.29 9029.65,1065.62 8975.13,1031.54 8881.42,1040.06 8855.87,1094.58 8874.61,1154.21 8920.61,1167.84 "/>
   <path class="fil1" d="M9147.21 1239.4l86.89 -63.04 32.37 -37.48 81.78 13.63 27.26 13.63 -20.45 -61.34 64.75 -30.66 64.74 -32.38 32.37 28.97 40.89 39.19 -40.89 35.77 -34.08 34.08 30.67 10.22 39.19 -23.85 56.22 -40.89 98.82 -76.67c0,0 42.59,-44.29 54.52,-54.51 11.92,-10.22 66.44,-71.55 66.44,-71.55l102.22 -105.64 57.92 68.15 3.41 54.52 61.34 -30.67 61.33 -68.15 74.96 57.93 61.34 126.07 -10.22 51.12c0,0 -47.71,85.18 -71.56,105.63 -23.85,20.44 -61.33,-10.22 -61.33,-10.22l6.81 -109.04 -57.93 54.52 -20.44 85.18 27.26 47.71 -27.26 85.18 -81.78 51.12 -132.89 -3.41 -85.19 -81.78 -34.07 40.89 -153.34 47.7 -109.04 27.26 -71.55 -88.59 -34.08 51.11c0,0 -51.12,27.26 -71.56,30.67 -20.44,3.41 -98.81,-27.26 -98.81,-27.26l-34.07 -85.19 17.04 -57.93z"/>
   <path class="fil1" d="M8244.21 6224.54l-129.49 102.23 13.63 95.41 149.93 0 -8.51 59.63 -95.41 100.52c0,0 34.07,86.89 47.7,93.7 13.64,6.82 100.52,88.6 100.52,88.6l30.67 40.89 66.45 -46c0,0 -23.85,-117.57 -11.93,-102.23 11.93,15.34 30.67,37.48 44.3,44.3 13.63,6.81 34.07,-5.11 34.07,-5.11l0 -54.52 25.56 -15.34 85.19 156.75 52.82 -17.04 -3.41 -134.6 -63.04 -92 46 11.93 10.22 -63.04 42.59 -37.48 -136.29 -85.18 -44.3 5.11 -100.52 -57.93 -22.15 -64.75 -134.6 -23.85z"/>
   <path class="fil1" d="M7392.34 6316.56l68.15 6.81c0,0 34.07,-22.15 29.81,-27.26 -4.26,-5.11 -41.74,-50.26 -41.74,-50.26l-14.48 -41.74 -39.19 -37.48 -39.19 -54.52 -31.51 5.11 -41.74 -9.37 -82.64 -5.11 -40.04 1.7 -71.55 46c0,0 15.33,43.45 23,51.97 7.66,8.52 24.7,53.66 24.7,53.66l33.23 53.67 -24.71 56.23 -11.93 37.48 -17.03 26.41 -21.3 28.11 -42.61 39.19 11.92 81.78 10.22 64.74 -3.4 73.26 -114.15 34.08 -18.74 81.78 59.63 40.89 49.41 25.56 -1.71 -56.23c0,0 37.48,35.79 47.71,49.41 10.22,13.63 76.66,34.07 76.66,34.07l141.41 3.41 149.93 0c0,0 61.33,-39.18 42.59,-57.92 -18.74,-18.74 -34.08,-61.34 -34.08,-61.34l73.27 -13.63 64.74 35.78 22.15 22.15 -37.48 59.63 -109.04 30.67 0 32.37 -102.23 46 -64.74 20.45 -170.37 18.75 -61.33 34.07 -66.45 51.11 -66.45 64.74 -51.11 56.23c0,0 -1.7,49.4 -1.7,69.85 0,20.45 8.51,73.26 18.74,78.37 10.22,5.11 37.48,28.97 46,42.6 8.52,13.63 -27.26,85.19 -23.85,100.52 3.4,15.33 11.92,73.26 -3.41,73.26 -15.33,0 -73.27,-15.33 -64.75,-1.7 8.52,13.62 35.78,78.37 46.01,86.88 10.22,8.52 57.92,30.67 57.92,30.67l15.34 42.59c0,0 20.44,18.74 22.15,30.67 1.7,11.93 -98.82,71.56 -83.49,85.19 15.34,13.63 44.3,66.44 44.3,66.44l-5.12 68.17 37.49 49.41 -20.45 98.81c0,0 37.48,17.04 68.15,25.56 30.67,8.52 124.38,32.37 124.38,32.37l-6.82 40.89c0,0 -64.74,34.08 -46,44.3 18.74,10.22 64.74,18.74 64.74,18.74l74.96 40.89 60.47 43.47 109.04 -10.22 25.56 32.36c0,0 -15.33,27.27 -5.11,28.97 10.22,1.71 267.49,-20.44 267.49,-20.44l-27.26 -27.26 47.7 -83.49 69.85 39.19 68.16 -81.78 73.25 35.78 102.23 -73.26 52.82 47.7 103.92 -136.3 34.08 57.93 57.93 -37.48 78.37 23.85 85.19 -25.55 68.14 -23.86 -42.59 51.12 -74.96 28.96 -49.41 46 -110.75 42.59 -39.18 20.45 -5.11 25.56 -23.85 30.66 -59.64 17.04 -42.59 49.41 364.6 1.7 17.04 -57.93 -23.85 -117.55 40.89 -34.08 80.07 17.04 34.08 -10.22 17.03 40.89 15.34 52.81 46 42.6 69.85 -22.15 74.97 -32.38 -6.82 -76.66 -52.81 -52.82 10.22 -52.81 -90.3 27.26 -42.59 54.51 -22.15 8.52 -30.67 -23.85 3.41 -49.41 44.29 -27.26 -47.7 -54.52 -47.71 0 -61.33 1.71 -8.52 -25.56 56.23 -51.11 37.48 20.44 -35.78 -143.11 51.11 27.26 37.48 -56.22 56.23 -13.64 18.74 -35.77 17.04 -126.08 -56.23 -3.4 -74.96 28.96 -42.6 -8.52 -5.11 -27.26 44.3 -52.82 -47.7 -40.88 -11.93 -54.53 80.08 -45.99 59.62 -30.68 27.27 -18.74 51.11 28.97 42.59 -3.41 34.08 -32.37 32.38 -78.37c0,0 35.79,-34.07 46.01,-28.96 10.22,5.11 86.89,28.96 86.89,28.96l88.59 -18.74 28.97 -30.66 39.18 44.29 42.6 32.38 66.44 -17.05 -6.82 40.9 -34.07 54.51 35.78 32.38 93.7 30.66 80.08 -28.96 46 25.56 25.56 25.55 54.52 -68.14c0,0 37.49,5.11 39.19,15.33 1.7,10.22 -13.63,63.03 -13.63,63.03 0,0 20.44,69.86 32.37,63.04 11.92,-6.81 63.04,-131.18 73.26,-131.18 10.22,0 64.74,-10.22 64.74,-10.22l5.11 42.59c0,0 44.3,23.85 56.22,25.55 11.93,1.7 74.97,10.22 74.97,10.22l1.7 42.6 63.04 11.92 34.08 -63.04 -22.15 -81.78 30.66 -34.07 -52.81 -66.45 25.56 -37.48 -32.38 -59.62 -51.11 68.14 -8.52 -74.96 -27.25 -90.3 -1.71 -22.15c0,0 -46,3.4 -51.11,13.63 -5.11,10.23 -22.15,56.23 -22.15,56.23l20.44 100.52 -63.04 35.77 -102.22 -3.4 -56.22 -42.6 -42.6 -28.96 17.04 -61.33 18.74 -66.45c0,0 -73.26,-44.3 -83.48,-44.3 -10.22,0 -80.08,-23.84 -63.04,3.41 17.04,27.26 34.08,73.26 34.08,73.26l-54.53 51.11 10.23 74.97 -1.71 47.7 -37.48 5.11 -10.22 -68.15 -32.37 -105.63 -66.45 3.41 -25.56 46 -46 1.7 -78.37 17.04 -61.34 11.92 -35.77 -68.14c0,0 -78.38,30.67 -90.3,42.59 -11.93,11.93 -56.22,44.3 -56.22,44.3 0,0 11.93,-39.19 28.96,-56.23 17.04,-17.03 40.89,-93.7 40.89,-93.7 0,0 22.16,-3.41 35.78,8.52 13.63,11.92 61.33,37.48 61.33,37.48l37.49 6.82 69.85 -56.23 92 -46 92 3.41c0,0 17.03,-120.97 28.97,-122.67 11.93,-1.71 23.85,-10.22 23.85,-10.22l63.04 71.55 28.96 0 40.89 -47.7 47.71 18.74 42.59 -30.67 42.59 -30.66 -40.89 -39.19 -44.29 -35.78 -117.56 49.41 -25.56 -40.89 -74.96 -10.22 -37.49 34.07 -66.44 -35.78 -42.59 -27.26 -158.45 187.42 -57.93 -28.97 -5.11 17.04 -32.37 61.34 -57.93 -30.67 -1.7 -81.78 -81.78 44.3 -103.93 103.92 1.7 59.63 -46 5.12 6.81 -37.49 -64.74 32.37 0 13.64 -40.89 1.7 -52.81 37.48c0,0 -51.12,-10.23 -56.23,0 -5.11,10.22 -37.48,37.48 -37.48,37.48l-61.33 22.15 -17.04 51.11 -1.7 22.15 -25.56 28.97 -37.48 -10.23 -35.78 -37.48 -56.23 34.08 20.45 -73.27 -23.85 -54.52 -54.52 -28.96 -59.63 32.37 -42.6 35.78 -73.26 11.93c0,0 -39.19,6.81 -54.52,6.81 -15.33,0 -37.48,0 -37.48,0l-13.63 40.89 22.15 54.52 -1.71 22.15 -80.07 13.63 -80.07 3.41 -47.71 -13.63 -20.45 -47.71 32.37 -39.19 -5.11 -51.1 66.45 -20.45 71.56 -32.37 42.59 8.52c0,0 15.33,10.22 27.26,10.22 11.92,0 83.48,-20.45 83.48,-20.45 0,0 49.42,-23.85 59.64,-23.85 10.22,0 23.85,10.22 23.85,10.22l13.63 -54.52 56.22 -6.81 51.11 -59.63c0,0 10.22,-46.01 -8.52,-54.52 -18.74,-8.52 -98.81,-64.75 -98.81,-64.75 0,0 -100.52,39.19 -109.04,51.12 -8.52,11.92 -95.41,71.56 -95.41,71.56l-23.85 47.7 -5.11 -47.7 -8.52 -25.56 -59.64 -10.22 -27.25 -68.15 45.99 -54.52 83.49 -5.11c0,0 20.44,13.62 39.18,17.03 18.75,3.41 40.9,-5.11 59.64,-6.81 18.74,-1.7 83.48,-34.07 83.48,-34.07l-32.37 -92.01 -10.23 -54.52 -13.63 -20.44 -81.77 0 -42.6 -6.82 47.71 -86.89 34.07 -30.66 69.86 20.44 61.33 -15.33 -95.42 -103.92 -100.52 0 -44.3 -25.55 -80.07 -13.63c0,0 -57.93,18.74 -57.93,28.96 0,10.22 -25.56,85.19 -25.56,85.19l-20.44 57.92 -76.67 22.16 -57.93 25.55 -34.07 78.37c0,0 -51.11,5.11 -59.63,-6.81 -8.53,-11.93 -56.23,-51.12 -56.23,-51.12 0,0 -15.33,-37.48 15.34,-37.48 30.66,0 90.29,-15.33 90.29,-15.33l-5.11 -30.67 -47.7 6.82 -66.45 -11.93 -20.44 -57.92 1.7 -57.93c0,0 -1.7,-46 18.74,-49.41 20.45,-3.41 66.45,-15.34 66.45,-15.34l64.74 0 44.3 -17.03 42.59 -28.97c0,0 66.45,-30.67 80.08,-30.67 13.63,0 73.26,-23.85 73.26,-23.85l-51.12 -51.11 -92 25.56 -107.33 66.45 -40.89 -18.75 -78.37 6.82 -57.93 30.67 8.52 -37.49 23.85 -56.22 80.07 -22.15 23.05 -9.45zm385.84 1271.92l68.15 0 6.81 51.11 78.37 3.41 61.34 -23.85 81.77 23.85 54.53 -51.11 71.56 -23.86 68.14 -64.74 129.49 10.22 81.78 17.04 -13.64 74.97 -85.18 -10.23 6.82 85.19 -61.34 -23.85 -112.45 30.67 -40.89 44.29 -112.44 -30.66 -47.71 10.22 -40.89 23.85 -95.41 -23.85 -98.81 0 -17.04 -40.89 17.04 -81.78zm-368.01 405.49l119.26 -51.12 98.82 -10.22 64.74 -57.93 68.15 95.41 95.41 -23.85 34.08 -44.29 68.14 -47.71 88.6 10.22 98.81 0 88.6 -17.04 0 40.9 71.56 44.29 95.41 0 34.07 30.67 -27.26 88.59 -81.78 -20.44 -34.07 -23.85 -81.78 40.89 6.81 51.11 0 44.29c0,0 -27.26,17.04 -57.93,17.04 -30.66,0 -139.7,0 -139.7,0l6.81 -85.19 23.85 -30.66 -78.37 -40.89 -27.26 54.52 -57.92 -30.67 13.63 61.34 -44.3 64.74 -40.89 -71.56 -54.52 34.08 -37.48 54.51 0 61.34 -23.85 57.93 -115.86 -3.41 -20.44 -44.3 -17.04 -54.52 68.15 -34.07 23.85 -98.82 -57.93 -10.22 -64.74 13.63 -92 -3.41 -13.63 -61.33zm-330.53 -51.09l88.6 -6.53c40.89,19.61 88.59,-6.54 88.59,-6.54l-37.48 -75.21 -23.85 -29.42 34.08 -39.24 -44.3 -95.24 81.78 13.63 71.55 -54.52 37.48 6.82 54.53 6.81 92 -102.22 30.66 -61.33 -37.48 -81.78 -54.52 -34.08 -37.48 6.81 -61.34 -30.66 -105.63 6.81 -40.88 37.49 13.63 71.55 54.51 44.3 30.67 47.7 -10.22 37.49 -54.52 -13.63 -54.52 -64.75 -30.67 44.3 -51.11 78.37 -40.89 0 20.45 71.56 40.89 68.15 -47.71 115.85 -6.82 37.51z"/>
   <polygon class="fil1" points="8705,8123.46 8769.74,8128.57 8771.45,8021.24 8776.56,7982.05 8725.44,7925.83 8667.51,7908.79 8628.33,7965.01 8611.29,8034.86 8650.48,8051.9 "/>
   <path class="fil1" d="M8896.69 8026.35l86.89 -11.93 41.7 -37.48 -33.01 -47.71 29.54 -39.18 36.49 -34.08 88.63 30.67 8.68 40.89 48.66 -10.22 36.49 -129.48 39.97 20.44 78.2 25.55 15.64 -42.59 -1.74 -54.52 -41.71 1.7 -1.72 -64.7 -34.75 -22.16 -53.88 0 -46.91 20.45 -34.76 3.41 -29.54 -23.86 -55.61 -17.03c0,0 -66.02,8.51 -72.98,18.74 -6.95,10.23 -52.13,25.56 -57.34,37.48 -5.22,11.93 -34.76,44.3 -31.28,64.74 3.47,20.45 10.42,34.08 0,54.52 -10.43,20.45 -60.82,39.19 -50.59,39.19l-61.34 -27.26c0,0 -34.07,44.3 -22.15,57.93 11.93,13.63 13.63,8.52 23.85,28.96 10.23,20.44 23.86,30.67 34.08,49.41 10.22,18.74 5.11,27.26 13.63,37.48 8.51,10.22 46.86,30.64 46.86,30.64z"/>
   <path class="fil1" d="M8903.93 7551.89l64.3 46 -25 35.78 -39.3 40.89 -41.33 -25.56c0,0 -42.59,-45.99 -40.89,-61.33 1.7,-15.33 1.7,-34.08 1.7,-34.08 0,0 -13.63,-17.03 6.82,-30.66 20.44,-13.63 59.63,-35.78 71.56,-46 11.92,-10.22 13.63,-23.86 32.37,-18.75 18.74,5.11 51.11,8.53 51.11,8.53l44.3 25.55 -1.71 54.52c0,0 -1.71,1.7 -28.96,1.7 -27.26,0 -94.97,3.41 -94.97,3.41z"/>
   <path class="fil1" d="M9159.07 8379.91l-30.67 0 -30.67 0 -68.15 -7.34 -68.15 -58.78 51.11 -95.52 23.85 -56.43 122.68 -98.82 81.77 44.3c0,0 17.04,23.85 40.89,23.85 23.86,0 30.67,-13.63 64.74,-30.67 34.08,-17.04 47.71,-34.07 47.71,-34.07l34.07 23.85c71.56,40.89 119.27,30.67 201.04,47.7 81.78,17.04 139.71,47.71 139.71,47.71l71.56 -13.63 34.07 136.3 -129.48 61.33 -88.59 -10.22 85.18 54.52c0,0 109.04,52.67 37.48,45.07 -71.55,-7.59 -132.88,0 -132.88,0l-23.86 0 -105.63 -34.85c0,0 -51.11,-34.07 -68.15,-57.92 -17.04,-23.86 -61.33,-95.42 -30.67,-47.71 30.67,47.71 47.71,102.22 47.71,102.22l0 38.26 -78.37 0 -57.93 -21.22 -30.67 21.22 -122.67 -45.07 -17.03 -34.08z"/>
   <path class="fil1" d="M6752.02 7378.12c0,0 -13.63,30.67 -1.7,37.48 11.92,6.82 -8.52,98.82 -8.52,98.82l-8 38.33 -15.33 15.34c0,0 -13.63,2.56 -30.67,-5.96 -17.04,-8.53 -31.52,-9.38 -26.41,-17.9 5.11,-8.51 11.93,-18.74 11.93,-18.74 0,0 -10.22,-35.77 -11.93,-47.7 -1.7,-11.92 -14.48,-23.01 -14.48,-28.97 0,-5.96 -14.48,-20.44 -4.26,-37.48 10.22,-17.03 46,-36.62 46,-36.62l63.37 3.4z"/>
   <path class="fil1" d="M6821.87 6924.07l-26.74 64.74 56.22 27.26 35.78 -95.41c0,0 8.52,-30.66 -6.82,-42.59 -15.33,-11.93 -64.74,-39.19 -69.85,-51.11 -5.11,-11.93 -54.52,-76.67 -54.52,-76.67 0,0 -10.22,-18.74 -35.77,-18.74 -25.56,0 -74.97,0 -74.97,0l-30.67 -39.19c0,0 -42.59,10.23 -20.44,40.89 22.15,30.67 49.41,59.64 56.22,71.56 6.82,11.93 17.03,18.74 46,42.59 28.97,23.85 34.08,40.9 34.08,51.12 0,10.22 0,22.14 0,22.14l44.29 8.52 47.19 -5.11z"/>
   <path class="fil1" d="M9136.05 6801.42l73.27 18.74 45.99 -54.52 73.27 51.11 69.85 -39.18c0,0 47.7,20.44 59.63,20.44 11.93,0 76.67,-17.04 76.67,-17.04 0,0 1.71,-22.15 17.04,-11.92 15.33,10.22 61.33,61.33 61.33,61.33l117.56 -8.52 85.19 -59.63 -6.82 -81.78 -23.85 -80.07 -57.93 8.51 -78.37 83.49 -59.63 -54.52c0,0 -54.52,-13.63 -64.74,-13.63 -10.22,0 -74.97,-15.34 -74.97,-15.34l-63.03 -8.51 -34.08 59.62 -46 57.93 -34.07 -51.11c0,0 -40.9,-42.59 -61.34,-46 -20.44,-3.41 -57.93,23.85 -42.59,34.07 15.33,10.23 3.4,3.42 -25.56,-8.51 -28.96,-11.93 -78.37,-42.6 -78.37,-42.6l-35.78 81.78c0,0 -47.71,40.89 -44.3,51.11 3.41,10.23 59.63,46.01 59.63,46.01l92 18.74z"/>
   <path class="fil1" d="M2724.87 896.29l-61.24 7.21 -58.02 9.83 -102.23 57.93 -13.63 68.14 3.41 85.19 -40.89 92 6.81 64.75 187.41 54.51 40.9 -88.59 61.33 -88.59 42.59 -39.19c0,0 -51.11,5.12 -63.04,-8.51 -11.92,-13.63 -37.48,-49.41 -37.48,-69.86 0,-20.44 -13.63,-49.41 -6.82,-64.74 6.82,-15.33 20.45,-40.89 20.45,-40.89l20.45 -39.19z"/>
   <path class="fil1" d="M2709.31 1414.23l47.33 13.53 35.5 28.73 16.91 62.54 37.18 -43.94 23.67 13.52c0,0 27.05,113.25 27.05,123.39 0,10.15 -32.12,54.09 -32.12,54.09l-52.4 -8.45 -49.03 -15.21 -30.42 35.5 -42.26 42.26 30.43 38.88 81.13 -65.93c0,0 43.95,1.69 47.33,13.53 3.38,11.83 3.38,37.18 3.38,49.02 0,11.82 -27.04,52.4 -38.87,52.4 -11.84,0 -49.03,25.35 -77.33,40.6 -27.26,11.92 -129.48,-10.23 -129.48,-10.23 0,0 -22.14,-25.55 -39.19,-13.63 -17.04,11.93 -40.89,73.26 -40.89,73.26 0,0 -1.7,28.97 0,46.01 1.71,17.03 -6.81,59.62 -17.03,59.62 -10.23,0 -20.45,18.74 -40.9,5.11 -20.44,-13.62 -37.47,-8.52 -34.07,-23.85 3.41,-15.33 30.67,-78.37 30.67,-78.37l-34.08 -59.63c0,0 -10.22,-6.81 -6.81,-18.74 3.41,-11.93 52.81,-66.44 52.81,-66.44 0,0 52.82,-22.15 63.04,-22.15 10.22,0 6.81,20.44 28.96,0 22.16,-20.45 39.19,-71.56 39.19,-71.56 0,0 22.15,-20.44 37.48,-32.37 15.34,-11.93 40.9,-76.67 40.9,-76.67l34.07 -32.37 -56.23 -8.52 -6.81 -20.45 11.92 -57.92 38.97 -25.56z"/>
   <path class="fil1" d="M1942.85 1468.54l36.41 -13.42 31.74 -30.67 35.78 102.23 46 23.85 5.11 56.22c0,0 -23.85,56.23 -37.48,49.41 -13.63,-6.81 -46,-40.89 -46,-40.89l-39.19 -47.7 -35.78 -20.44 -30.66 -40.9 34.07 -37.69z"/>
   <path class="fil1" d="M2737.27 2129.51l48.89 -8.22c0,0 -40.16,54.26 -45.4,64.13 -5.24,9.87 -50.64,0 -50.64,0l-36.68 3.29 -41.91 -3.29c0,0 -29.69,-27.95 -29.82,-17.61 -5.11,11.23 -3.4,110.7 -3.4,110.7l44.3 47.23c0,0 47.7,20.44 59.62,22.15 11.93,1.7 49.41,-39.19 49.41,-39.19l52.82 -27.26c0,0 46,0 64.74,0 18.74,0 57.93,-49.41 57.93,-59.63 0,-10.22 22.15,-74.96 22.15,-74.96l34.07 -34.08 -28.96 -11.93 -42.6 -11.92 -25.55 -47.7c0,0 -5.11,-23.86 -30.67,-23.86 -25.55,0 -78.37,1.7 -78.37,1.7 0,0 -13.63,30.67 -23.85,42.6 -10.22,11.92 -40.89,57.92 -40.89,57.92l44.81 9.93z"/>
   <polygon class="fil1" points="3380.86,1935.59 3333.05,1894.7 3373.21,1879.37 3416.54,1870.85 3460.83,1898.11 3481.28,1921.96 3522.17,1916.85 3540.91,1933.89 3549.43,1974.78 3505.13,1983.29 3508.54,2025.89 3527.28,2061.67 3532.39,2117.89 3479.57,2134.93 3433.57,2099.15 3365.42,2082.11 3343.27,2031 3370.53,1974.78 "/>
   <path class="fil1" d="M2532.29 2726.13l23.85 -57.93 51.11 -28.96c0,0 44.29,3.4 59.63,-3.41 15.33,-6.81 44.29,-47.71 44.29,-47.71l47.71 -59.63c0,0 22.15,-11.92 30.67,-1.7 8.51,10.22 6.81,49.41 6.81,49.41l-34.07 30.66c0,0 -44.3,32.37 -57.93,47.71 -13.63,15.33 -56.22,61.34 -56.22,61.34 0,0 -34.08,18.73 -47.71,20.44 -13.63,1.7 -37.48,6.81 -37.48,6.81l-30.66 -17.03z"/>
   <path class="fil1" d="M1992.16 3267.92l-17.03 49.41 -17.04 35.78c0,0 -8.52,27.26 3.41,35.78 11.92,8.52 76.66,30.67 76.66,30.67l76.67 -10.23 49.41 -54.52 40.89 -52.81 -8.52 -49.41 -63.04 -39.19 -86.89 -13.62 -1.7 37.48 34.08 40.88 -20.45 35.78 -20.45 -15.33 -46 -30.67z"/>
   <path class="fil1" d="M1712.71 3964.77l64.74 3.41 39.18 -44.29 28.97 9.37 12.77 35.78 -7.66 38.33 -21.3 54.52 -22.15 25.56 -58.78 1.7c0,0 -17.04,27.26 -25.55,26.41 -8.52,-0.86 -41.74,-7.67 -47.71,-15.34 -5.96,-7.66 -15.33,-34.92 -15.33,-41.74 0,-6.82 6.81,-38.33 13.63,-46 6.81,-7.67 31.52,-26.41 35.78,-31.52 4.26,-5.11 3.41,-16.19 3.41,-16.19z"/>
   <path class="fil1" d="M2111.34 4480.16l28.11 36.55 0 40.97 36.63 34.08 35.78 10.22 28.11 -41.74c0,0 -4.26,-38.34 0,-44.3 4.26,-5.96 13.63,-14.48 13.63,-14.48 0,0 12.78,5.96 17.04,13.63 4.26,7.66 15.33,24.7 11.92,33.22 -3.4,8.52 -16.18,28.11 -16.18,28.11 0,0 51.11,26.41 60.48,17.89 9.37,-8.52 42.6,-25.55 40.89,-40.03 -1.7,-14.49 2.55,-28.12 -5.11,-37.49 -7.67,-9.37 -24.71,-28.11 -30.67,-32.37 -5.96,-4.26 -25.55,-17.89 -27.25,-28.11 -1.71,-10.22 2.55,-18.74 -3.41,-21.3 -5.97,-2.55 -51.12,-11.07 -51.12,-11.07 0,0 -14.48,-5.97 -30.66,-5.97 -16.19,0 -39.2,0.85 -43.45,9.37 -4.26,8.52 -5.96,22.15 -19.59,23 -13.63,0.86 -32.37,2.56 -32.37,2.56l-12.78 27.26z"/>
   <path class="fil1" d="M2418.02 4667.57c0,0 40.88,8.52 52.81,-3.4 11.92,-11.93 27.26,-40.89 37.48,-49.41 10.23,-8.52 42.6,-10.23 42.6,-10.23l19.59 -1.7c0,0 11.07,-17.04 21.29,-25.56 10.23,-8.51 22.16,-22.14 23.01,-33.22 0.85,-11.08 -18.75,-40.89 -31.53,-49.41 -12.77,-8.52 -29.81,-31.52 -45.14,-27.26 -15.34,4.26 -57.93,27.27 -70.71,35.78 -12.78,8.52 -30.67,38.33 -33.22,48.55 -2.56,10.23 -12.78,40.04 -17.04,48.56 -4.26,8.52 -29.82,32.37 -29.82,32.37l10.23 11.08 20.45 23.85z"/>
   <path class="fil1" d="M343.71 4194.47l64.74 30.14 37.48 -103.93c0,0 22.15,-32.37 49.41,-39.19 27.25,-6.81 8.51,-56.22 8.51,-56.22l-61.33 -51.11 -56.22 44.29 -11.93 40.89 -20.44 52.82 -32.38 1.7 22.16 46.01 0 34.6z"/>
   <path class="fil1" d="M568.57 4747.67l47.7 64.74 53.66 -28.96c0,0 5.97,-1.7 9.38,8.52 3.4,10.22 19.59,48.56 19.59,48.56 0,0 5.96,13.63 0,23.85 -5.97,10.22 -26.41,36.63 -30.67,41.74 -4.26,5.11 -23.01,33.22 -31.52,38.33 -8.52,5.11 -17.04,17.04 -28.11,12.78 -11.08,-4.26 -42.6,-21.29 -48.56,-27.26 -5.96,-5.97 -27.26,-20.45 -27.26,-20.45 0,0 -40.03,-2.55 -34.92,-10.22 5.11,-7.66 15.33,-24.7 23.85,-30.66 8.52,-5.97 23,-22.15 23,-22.15l-25.56 -14.49c0,0 -0.85,-23.84 7.67,-35.77 8.52,-11.93 11.92,-20.45 21.29,-27.26 9.38,-6.82 12.79,-13.63 12.79,-13.63l7.67 -7.67z"/>
   <path class="fil1" d="M819.86 4722.96c0,0 7.66,5.11 17.89,7.67 10.22,2.55 25.56,-6.82 31.52,-19.59 5.96,-12.77 24.71,-59.63 24.71,-59.63 0,0 31.34,-15.41 39.01,-17.11 0,0 -14.61,-41.98 -14.61,-41.98 0,0 -17.2,-19.79 -17.2,-19.79 0,0 38.67,-68.05 38.12,-67.13 -3.62,6.3 -67.48,-0.51 -76.84,-0.51 -9.37,0 -24.71,-28.97 -31.53,-20.44 -6.81,8.51 -12.77,50.25 -12.77,50.25 0,0 -24.71,45.16 -23,57.07 1.7,11.93 7.66,48.56 7.66,57.08 0,8.52 0,30.67 4.26,38.33 4.26,7.68 14.48,25.56 14.48,25.56l-1.7 10.22z"/>
   <path class="fil1" d="M471.45 4722.11c0,0 34.93,21.3 45.15,19.6 10.22,-1.7 40.89,-31.53 45.15,-48.56 4.26,-17.04 16.19,-34.08 8.52,-44.3 -7.67,-10.22 -6.82,23 -20.45,-25.56 -13.63,-48.55 -16.18,-55.36 -17.04,-60.47 -0.85,-5.12 -12.78,-22.15 -12.78,-22.15l-43.44 -16.19 -37.48 -8.52c0,0 -31.53,-5.96 -40.04,-5.96 -8.52,0 -45.15,11.92 -45.15,11.92l13.63 52.82c0,0 22.15,13.63 22.15,19.59 0,5.97 -11.93,34.08 -11.93,34.08l-8.51 8.51 3.4 37.49c0,0 3.41,-5.11 7.67,5.11 4.26,10.22 20.44,36.63 20.44,36.63 0,0 28.12,3.41 34.08,3.41 5.96,0 36.63,2.55 36.63,2.55z"/>
   <path class="fil1" d="M1111.18 4475.92l5.96 53.67 -21.29 31.52 -9.37 24.7 -21.3 41.74 11.07 42.6 22.15 32.37 45.15 31.51c0,0 44.3,-19.59 51.97,-23 7.66,-3.4 -6.81,-51.96 -9.37,-61.33 -2.56,-9.37 11.07,-20.44 17.03,-17.04 5.96,3.41 29.82,22.15 29.82,22.15 0,0 11.07,-54.52 11.07,-63.89 0,-9.37 -10.22,-67.3 -10.22,-67.3 0,0 28.11,-6.81 37.48,-5.96 9.37,0.85 33.22,21.29 51.11,15.33 17.89,-5.96 45.15,-47.7 45.15,-63.88 0,-16.19 -0.85,-50.27 -0.85,-50.27 0,0 -15.34,-25.55 -24.71,-25.55 -9.37,0 -74.96,-6.82 -82.62,-6.82 -7.67,0 -33.22,5.96 -47.71,21.3 -14.48,15.33 -45.14,53.67 -48.55,58.78 -3.41,5.11 -35.79,9.37 -35.79,9.37l-16.18 0z"/>
   <path class="fil1" d="M2049.92 5924.11c0,0 45.99,57.92 57.92,57.92 11.93,0 93.71,3.41 93.71,3.41l1.7 -49.41 46 -85.19 -69.85 -40.89 -56.22 8.53c0,0 -47.7,3.4 -56.22,17.03 -8.52,13.63 -13.64,68.15 -13.64,68.15l-3.4 20.45z"/>
   <path class="fil1" d="M2066.96 6203.52l17.97 -62.12 29.73 -63.96 73.26 18.74 40.89 -10.22c0,0 47.71,-35.78 66.45,-35.78 18.74,0 71.55,0 71.55,0l63.04 37.48 -39.18 47.71c0,0 -22.15,52.81 -22.15,63.03 0,10.23 0,28.97 0,28.97l-49.41 6.82 -90.3 8.51 40.89 47.71c0,0 -49.41,5.11 -66.45,11.92 -17.03,6.82 -44.29,20.45 -44.29,20.45l-15.34 -61.34 -73.26 -11.92 -3.4 -46z"/>
   <path class="fil1" d="M1893.15 6551.08l-51.11 -37.48c0,0 -49.41,-13.63 -49.41,-23.85 0,-10.22 0,-71.56 0,-71.56 0,0 18.74,-45.99 25.56,-57.92 6.81,-11.93 32.37,-57.93 32.37,-57.93l132.89 1.7 -15.34 27.26c0,0 -46,11.93 -46,22.15 0,10.22 11.93,68.15 13.63,78.37 1.71,10.23 20.45,30.67 6.82,40.89 -13.63,10.22 -35.78,6.82 -37.48,17.04 -1.71,10.22 -11.93,61.33 -11.93,61.33z"/>
   <path class="fil1" d="M1517.87 6402.44l63.04 0c0,0 5.12,-46 22.15,-52.81 17.04,-6.82 47.71,-47.71 47.71,-47.71l42.59 -10.22 24.7 52.81 -1.7 33.23c0,0 -3.41,20.44 -7.67,26.4 -4.26,5.96 -12.78,24.7 -8.52,33.22 4.26,8.52 14.48,32.38 14.48,37.49 0,5.11 -17.03,40.03 -17.03,40.03 0,0 -17.04,3.41 -28.97,5.97 -11.92,2.55 -53.67,-27.26 -53.67,-27.26l-29.81 -9.37 -54.52 -7.67c0,0 -43.44,-14.48 -40.89,-22.15 2.56,-7.67 5.97,-23.85 13.63,-32.37 7.67,-8.52 14.48,-19.59 14.48,-19.59z"/>
   <path class="fil1" d="M1551.1 6688.67l28.96 -42.59c0,0 25.55,-12.78 31.52,-13.64 5.96,-0.85 56.22,5.11 56.22,5.11 0,0 13.63,-28.96 23.85,-26.4 10.23,2.55 39.19,18.74 39.19,18.74l27.26 43.44 29.82 29.82 -31.52 34.92 -41.75 -2.55 -38.33 -24.71 0.85 -28.11 -23.85 24.71 -28.11 21.29 -74.11 -40.03z"/>
   <path class="fil1" d="M1337.26 5779.72l35.78 -49.41c0,0 23.85,-40.88 8.52,-61.33 -15.33,-20.45 -46,-57.93 -46,-57.93l5.11 -32.37 -39.19 -35.78c0,0 -47.7,-18.74 -49.41,0 -1.7,18.74 3.41,81.78 3.41,81.78 0,0 -8.52,51.12 6.82,64.75 15.33,13.63 52.81,37.48 52.81,37.48l22.15 52.81z"/>
   <path class="fil1" d="M1214.59 5871.33l59.08 -33.76c0,0 43.89,-8.44 57.4,-8.44 13.51,0 67.53,0 69.23,0l5.11 78.37 42.59 20.45 30.67 -22.15 40.89 40.89c0,0 -5.11,25.55 -25.55,28.96 -20.45,3.41 -40.9,40.89 -40.9,40.89 0,0 -13.62,105.63 -28.96,93.71 -15.33,-11.93 -52.81,-57.93 -57.92,-68.15 -5.12,-10.23 -23.86,-71.56 -23.86,-71.56 0,0 -30.66,-25.56 -46,-32.37 -15.33,-6.82 -63.04,-27.26 -63.04,-27.26l-18.74 -39.58z"/>
   <path class="fil1" d="M682.5 1980.84l8.71 -20.23 -8.71 -61.98 -97.62 32.88 -31.38 50.97c0,0 12.2,78.91 13.94,88.78 1.75,9.87 5.24,62.48 5.24,71l95.87 1.71 34.86 49.4 38.35 47.71 74.96 -5.11c0,0 38.34,28.96 38.34,5.11 0,-23.85 0,-66.45 0,-66.45l-44.29 -71.56 117.55 -100.52 -100.52 -49.4 -8.51 107.33 -78.38 14.09 -32.37 -90.76 -26.04 -2.97z"/>
   <path class="fil1" d="M1235.04 2157.59l-8.06 40.89 40.32 23.86 29.04 -20.45c0,0 1.61,-163.56 -9.68,-163.56 -11.29,0 -30.65,25.56 -30.65,25.56l-46.77 -5.11 -40.69 13.63 27.26 88.59 39.23 -3.41z"/>
   <path class="fil1" d="M1059.51 2302.41c0,0 10.23,32.37 20.45,32.37 10.22,0 44.29,1.7 57.92,-6.81 13.63,-8.52 40.89,-30.67 40.89,-30.67l32.38 42.6 8.52 32.36 47.7 -8.51 20.45 -11.93 0 74.97 -11.93 54.51 6.82 35.78 -30.68 34.08 -3.4 34.07 -51.11 -34.07 -5.11 -52.82 -69.86 -46 -52.82 -22.15 -40.88 -42.59 -13.63 -63.04 44.29 -22.15z"/>
   <path class="fil1" d="M924.91 2704.51l56.22 22.15c0,0 25.56,-17.05 35.78,-18.75 10.22,-1.7 34.07,-1.7 34.07,-1.7l1.71 54.52 -28.96 56.22c0,0 -18.74,37.49 -39.19,40.89 -20.45,3.41 -73.26,5.11 -73.26,5.11l-39.19 -32.37 34.08 -42.59 6.81 -63.04 11.93 -20.44z"/>
   <path class="fil1" d="M820.98 2957.52c0,0 28.97,-25.55 34.93,-29.81 5.96,-4.26 27.25,8.52 27.25,8.52l24.71 37.48 -11.92 41.74 -6.82 23.85 -17.04 22.15c0,0 -47.7,2.55 -52.81,2.55 -5.11,0 -43.45,0 -43.45,0l-27.26 -26.4 -6.81 -55.38 21.29 -31.51 29.81 -5.97 28.12 12.78z"/>
   <polygon class="fil1" points="1214.54,3075.09 1245.2,3098.95 1262.24,3235.24 1194.09,3299.99 1112.31,3262.5 1183.87,3143.24 "/>
   <path class="fil1" d="M1442.83 3245.48l61.34 -23.85 57.92 -68.15 -70.71 -74.96 -39.18 -10.22 22.15 -18.75 31.52 -0.85 46 16.18 63.89 0 34.93 -28.96 -12.78 -14.48 -34.93 -23 -62.19 -54.52 42.6 4.26 71.56 -1.7 33.23 -49.41 7.67 -31.52 -41.75 -18.74 -5.11 -41.74c0,0 5.11,-29.81 6.82,-34.92 1.7,-5.12 -5.97,-24.71 -5.97,-24.71l-37.48 -10.22 -47.7 14.48 -28.11 1.7 9.37 -17.89c0,0 11.07,-22.99 16.18,-26.4 5.11,-3.41 2.56,-40.9 2.56,-40.9 0,0 -0.86,-22.99 -15.34,-45.14 -14.48,-22.15 -30.66,-42.6 -30.66,-42.6 0,0 -19.6,-6.82 -24.71,9.37 -5.11,16.19 2.56,39.19 2.56,39.19l-14.49 7.66 -5.96 19.6 -3.41 28.96 11.08 17.89 47.71 1.71 0 19.59 -28.97 19.59 -20.45 0 -3.4 32.38 -16.19 4.25 3.41 32.37 -11.07 31.52 -14.49 23 5.97 27.26 -21.3 33.23 0 17.88 -14.48 6.82 5.11 46 -7.67 42.59 -24.7 24.71 -23.86 36.66 2.55 17.03 22.97 36.65 8.52 51.11 28.97 35.78 22.15 30.67 -1.68 -26.46z"/>
   <path class="fil1" d="M1548.43 2557.22l32.37 7.67 -7.66 26.41 26.4 27.25c0,0 22.16,18.75 27.27,18.75 5.11,0 12.78,-27.27 20.44,-33.23 7.67,-5.96 33.22,-22.99 38.33,-26.4 5.11,-3.41 34.93,-36.64 34.93,-36.64l10.23 -28.96 65.59 -6.81c0,0 -35.78,-28.97 -40.89,-28.97 -5.11,0 -54.52,-13.63 -54.52,-13.63l-36.63 -23.85 9.37 -44.3c0,0 -16.19,-18.73 -25.56,-19.59 -9.37,-0.85 -25.56,0.01 -36.63,-2.55 -11.07,-2.56 -38.33,-4.26 -38.33,-4.26l-17.04 8.51 13.63 23 18.74 20.45 -16.18 36.63 -17.04 26.41 -35.78 31.52 -19.6 1.7 -5.96 13.63 -8.52 31.52 20.45 -3.41 31.52 -4.25 11.07 3.4z"/>
   <polygon class="fil1" points="1593.58,2335.73 1622.55,2294.85 1619.14,2201.14 1641.29,2167.07 1671.95,2083.58 1636.17,2012.03 1556.1,1986.47 1523.73,2003.51 1498.17,2049.51 1481.13,2090.4 1482.84,2141.51 1474.32,2177.29 1493.06,2233.51 1525.43,2277.81 1559.51,2320.4 "/>
   <path class="fil1" d="M1504.98 1896.17l35.78 15.34 44.3 20.44 19.59 -35.78 -5.96 -24.7 -10.23 -35.78 -3.41 -60.48c0,0 -23.85,-43.45 -26.41,-37.49 -2.55,5.96 -1.7,21.29 -7.66,23 -5.97,1.7 -29.82,10.23 -29.82,10.23l-26.41 20.44 -4.26 24.7 0.85 37.48 13.64 42.6z"/>
   <path class="fil1" d="M703.37 4450.08l10.22 35.77 49.41 8.52c0,0 30.88,-30.96 49.41,-20.44 18.53,10.51 22.15,-28.96 37.48,-30.67 15.34,-1.7 51.11,10.22 51.11,10.22l16.62 14.91c0,0 8.09,-5.11 8.09,-8.09 0,-2.99 -2.98,-39.19 -2.98,-43.02 0,-3.84 5.11,-32.8 5.11,-32.8l-14.05 -36.2 -46.85 -48.55 -34.93 -42.6 -42.6 -6.81 -51.96 17.89c0,0 -41.74,45.15 -41.74,51.11 0,5.97 -21.3,49.41 -21.3,49.41l-7.66 38.34 14.48 30.66 22.14 12.35z"/>
   <polygon class="fil1" points="720.41,7258.13 756.19,7298.22 744.27,7353.34 783.45,7401.78 844.79,7421.83 907.82,7370.04 919.75,7286.53 897.6,7251.45 860.12,7248.04 800.49,7253.15 783.45,7219.08 759.6,7213.97 "/>
   <path class="fil1" d="M526.18 7224.19c-15.33,20.45 -47.7,39.19 -47.7,39.19l63.04 39.18 -18.75 23.86 -35.77 35.77 46 3.41 20.45 56.23c0,0 69.85,-20.46 80.07,-23.86 10.22,-3.41 37.48,-64.74 37.48,-64.74l-32.37 -37.48 -28.96 -22.15 -22.15 -6.82 -34.07 -46 -27.27 3.41z"/>
   <path class="fil1" d="M201.34 7234.43c0,0 76.08,-27.26 96.52,-44.3 20.45,-17.04 54.52,-78.37 54.52,-78.37l17.04 -68.15 37.48 -88.6 -51.11 -47.71 -20.45 -91.99 -57.92 0 -57.93 85.18 -18.15 61.34 24.96 51.11 30.68 30.67 -55.64 40.88 0 149.94z"/>
   <path class="fil1" d="M698.24 8001.96l60.49 -20.45 40.88 25.56 31.52 18.74 -6.81 38.33 -10.23 26.41c0,0 -6.81,29.82 -4.25,34.93 2.55,5.11 3.4,17.04 3.4,17.04 0,0 -27.25,7.66 -33.22,5.96 -5.96,-1.71 -40.89,-3.41 -47.71,-9.37 -6.81,-5.97 -34.92,-42.59 -34.92,-42.59l-15.33 -53.67 16.18 -40.89z"/>
   <path class="fil1" d="M258.68 8114.4c6.81,0 41.74,-26.41 41.74,-26.41l16.18 -26.4 15.33 22.14c0,0 12.78,20.46 13.63,26.42 0.85,5.96 -17.03,35.77 -17.03,35.77l-5.97 30.67 -23.85 17.04 -30.66 0 -35.79 11.93 -7.66 17.03 -23.26 0 0 -113.3c0,0 16.45,3.41 22.41,3.41 5.96,0 34.93,1.7 34.93,1.7z"/>
  </g>
  <g id="_2560596847392">
   <g id="_2595911771312">
    <path class="fil2" d="M7544.01 3092.26c-98.53,58.83 -19.15,22.95 -140.14,70.27 -188.64,73.76 -147.9,33.99 -220.33,6.4 -54.73,-20.86 -130.68,-59.18 -179.25,-68.04l-21.62 -3.49c-21.56,-4.4 -36.87,-17.21 -65.65,-18.92 -33.58,0.27 -51.89,-0.51 -88.18,19.92 0.21,2.56 10.21,19.54 14.94,33.22 31.07,0.45 62.9,-4.08 87.46,-13.59 10.09,14.35 50.87,30.86 66.68,37.32 34.16,16.38 74.72,32.13 110.36,45.51 13.19,4.96 43.63,16.22 54.1,22.15 26.13,14.77 11.93,14.96 36.43,28.84 65.63,19.04 57.11,9.11 119.65,3.18l13.65 -2.31 14.6 -1.63c27.21,-22.97 151.5,-56.73 194.79,-86.49l87.62 -56.12c35.25,-7.59 66.92,36.82 74.08,55.65 -15.27,23.82 -86.89,97.18 -131.11,122.89l-6.27 6.41 -36.52 85.19c19.6,46.51 21.26,7.32 30.32,78.26l-9.98 22.14 -7.62 14.56 -23.91 46.16c-17.61,23.91 -33.49,27.39 -63.06,50.4 -50.94,39.66 -10.25,139.55 -58.68,190.84 -18.12,61.1 -67.58,162.42 -96.85,221.79 -54.66,110.95 -64.35,129.63 -73.14,241.38 -10.82,137.92 9.87,112.47 -80.21,193.91l-66.18 56.59c-28.8,20.66 -13.03,17.75 -36.87,39.17 -10.57,9.51 -12.45,8.38 -23.01,15.72l-353.76 312.77c-27.4,19.61 -13.97,16.44 -36.06,40.04 -26.34,28.17 -64.65,46.77 -88.47,72.87 -16.8,18.38 -12.72,22.97 -33.56,42.65 -14.87,14.06 -25.77,21.33 -42.05,34.74 -50.31,41.47 -50.29,152.51 -85.57,219.97 -16.54,66.24 -16.89,143.9 41.42,158.23l78.11 0.49 16.26 237.56c-24.2,21.49 -50.83,33.09 -66.28,62.41 4.89,52.59 34.47,80.93 -17.95,114.33 -52.13,33.24 20.71,62.55 -38.75,114.77 -43.36,38.07 -176.11,10.39 -252.87,45 -56.09,25.28 -56.83,29.18 -111.36,-6.98 -28.55,-0.4 -56.59,7.4 -73.57,0.05 -4.96,-2.14 -16.15,-12.7 -27.05,-18.73 -13.24,-7.34 -12.61,-6.37 -27.37,-10.25l-21.4 0.36c-8.12,41.04 -23.37,58.38 -41.11,95.9 -16.31,34.5 -2.96,4.24 -14.09,35.13l15.14 -11.89c22.86,-17.94 -10.63,-1.03 17.03,-12.98 31.31,15.54 13.09,32.61 20.99,10.11 24.79,-6.1 21.53,-15.03 34.32,-42.52 36.81,18.46 20.83,28.33 77.18,20.38 45.6,-6.45 48.41,8.69 90.62,17.21 40.73,9.08 59.33,-17.63 97.44,-28.44 28.95,-8.21 95.31,-11.19 125.12,-12.74 101.72,-5.25 142.65,-31.76 178.81,-90.35l-3.9 -58.86c14.1,-17.05 16.98,-12.52 28.78,-33.31 8,-14.06 11.3,-33.87 18.73,-50.9l-5.08 -42.63c-4.43,-25.84 1.19,-21.42 22.14,-37.67 54.38,-42.25 37.78,-33.89 33.47,-70.69l-12.94 -177.95c-3.63,-60.99 -4.8,-52.51 -25.48,-99.45l-101.77 -9.13c-14.2,-33.76 1.77,-99.21 21.58,-124.83 2.09,-31.51 12.9,-58.22 21.51,-88.89 14.02,-49.82 9.94,-41 39.72,-66.08 24.61,-20.75 24.1,-33.1 50.63,-56.37l82.03 -71.23c46.3,-59.92 43.92,-35.29 78.89,-74.29l164.48 -149.32c44.09,-33.74 20.34,-8.19 57.55,-49.67 21.6,-24.08 41.63,-28.64 60.74,-46.94 12.97,-12.4 8.57,-13.82 24.54,-28.65l51.91 -47.66c23.93,-22.81 39.83,-24.22 60.42,-47.02 44.33,-49.19 25.8,-21.96 53.19,-46.51 13.36,-11.98 10.65,-14.49 25.19,-28.04 25.14,-23.42 38.31,-15.89 51.11,-47.44l12.16 -219.2c6.42,-51.05 111.05,-250.43 136.02,-317.32 17.77,-47.55 32.1,-64.03 45.08,-122.85 14.52,-65.94 13.01,-100.38 44.94,-122.29 11.1,-7.6 39.88,-24.5 49.84,-34.9 13.18,-13.77 17.65,-36.29 28.03,-57.44 27.86,-56.84 27.86,-59.69 14.54,-129.95l-15.39 -9.91c24.88,-100.24 66.93,-46.83 101.7,-118.3 15.34,-31.53 22.86,-26.67 53.79,-56.25l18.46 -20.73c-1.03,-54.17 1.05,-35.19 -44.68,-96.79 -17.52,-23.62 -22.61,-14.64 -36.57,-31.76 -18.5,-22.67 -8.65,-56.5 -64.17,-20.3 -30.57,19.92 -27.29,11.22 -42.08,18.74 -15.67,7.96 -1.9,-1.01 -13.03,9.73 -16.21,15.65 8.73,3.43 -23.35,25.68l0 0z"/>
    <path class="fil2" d="M4464.39 3269.5c1.01,-18.34 5.85,-21.6 13.19,-35.05 14.84,-27.15 24.27,-14.63 25.48,-12.28 0.71,1.38 3.12,-3.67 4.14,-4.48 30.71,-25.06 23.45,-6.08 54.76,-30.44 109.21,-85.03 60.38,-74.27 118.57,-182.36 23.19,-43.09 48.38,-90.42 62.24,-136.44 20.39,-67.65 -6.42,-50.63 102.4,-103.03l51.43 -41.69c108.74,-72.72 101.96,74.89 248.39,165.38 249.36,154.11 293.39,93.94 354.83,104.41l46.79 5.38c14.96,25.68 45.15,68.62 56.68,96.34 40.2,96.5 11.91,31.33 67.18,88.15 13.14,18.94 22.81,22.54 45.74,12.2 57.95,-23.97 96.24,-66.71 165.6,-81.69 11.53,15.41 21.08,31.36 37.35,48.56 29.85,31.54 23.1,16.89 61.08,31.57 33.17,6.82 68.07,19.94 101.2,30.27 39.66,12.34 74.16,11.87 93.38,41.95l5.32 11.19c55.94,18.62 43.78,5.88 99.88,-9.85 149.4,-41.92 156.97,-9.48 219.48,-33.62 39.92,-15.43 47.66,-33.6 69.65,-51.45 17.25,-5.95 44.5,13.12 84.81,-8.64 48.54,-26.22 29.2,-8.39 61.01,-23.21 79.83,-37.15 89.72,6.97 150.21,-19.68 7.83,-20.52 7.83,-16.17 1.64,-34.52 -37.59,13.13 -47.01,-3.4 -68.32,-22.16 -62.29,1.57 -58.57,-10.14 -114.62,17.83l-36.25 4.25 -27.91 22.49c-58.42,17.14 -48.09,-28.89 -103.24,31.25 -21.11,23.03 -48.49,35.89 -92.26,32.95 -40.13,-2.69 -125.88,11.87 -163.13,24.29 -16.58,5.52 -25.11,11.3 -43.39,15.86l-25.05 -27.28 -119.04 -40.64 -52.31 -15.16c-55.45,-14.16 -48.51,-11.85 -73.63,-44.91 -122.34,-4.3 -44.04,-16.11 -106.19,-0.31 -7.88,-15.21 -31.52,-7.4 -31.52,-7.4 -20.94,12.53 -29.33,4.23 -58.16,16.7 -21.44,9.27 -25.5,17.61 -48.18,26.76 -55.74,-32.23 -9.76,-16.1 -68.52,-104.09 -56.53,-84.66 -38.25,-83.81 -94.7,-89.07l-5.86 -1.1 -49.48 -11.47c-109.8,10.86 -67.18,17.81 -168.23,-19.49 -59.33,-21.91 -156.58,-69.37 -193.49,-119.11 -30.81,-41.51 -27.47,-22.24 -49.77,-48.83 -22.5,-26.84 -18.1,-44.77 -44.56,-64.08 -24.88,-18.15 -37.82,-13.91 -64.52,-34.97 -39.14,-1.3 -70.23,9.51 -94.49,28.09l-79.27 57.66c-132.41,67.09 -68.13,42.93 -119.71,159.24 -12.57,28.37 -28.22,57.98 -43.7,82.97 -9.64,29.18 -49.15,122.29 -70.1,146.11 -8.54,9.71 -110.46,89.3 -125.98,95.98 1.79,18.05 -7.93,21.44 -12.14,57.73 0,0 -1.93,4.49 -1.93,4.49 -58.57,40.55 -87.66,29.97 -123.44,8.48 4.54,0 -11.93,-2.35 -11.93,-2.35 -89.45,13 -300.07,-21.85 -331.54,73.3 92.59,-12.03 292.44,-1.8 309.98,-5.5 16.76,-3.54 28.78,-15.86 46.95,-13.81 43.03,4.91 103.23,50.47 135.86,-20.19 9.81,-21.24 5.84,-22.16 21.34,-41.48l0 0z"/>
    <path class="fil2" d="M6034.58 1937.9l7.92 0.69c20.21,15.62 39.39,37.4 69.22,43.11 0.7,0.12 31.87,8.78 57.89,3.73 26.77,-5.21 48.46,-24.16 49.22,-24.05 11.3,-28.5 -14.76,-7.18 -18.53,-27.27 -2.62,-0.25 -49.97,-6.87 -52.44,-7.22 -53.43,-7.27 -77.95,-33.04 -108.97,-65.79 -19.6,-7.68 -10.65,-7.4 -32.16,-18.67 -109.19,9.97 -64.9,15.12 -147.44,-31.02 -22.38,-12.51 -108.86,0.94 -142.1,1.68l-9.46 7.86c-21.58,20.75 -36.45,31.58 -64.02,36.92 -18.93,34.38 -23.13,22.13 -48.31,21.85 -26.59,-0.28 -33.11,3.29 -58.57,13.05 -21.2,8.14 -105.63,47.01 -119.58,27.45 -21.24,-29.81 -15.9,-40.35 -42.48,-65.05 -34.14,-25.37 -27.25,-41.06 -73.3,-66.01l-8.73 -7.31c-43.51,-2.09 -46.25,6.21 -84.24,12.76 -37.55,6.48 -37.65,-5.65 -76.9,-15.14 -81.31,-19.71 -70.9,-19.62 -142.92,21.02 -8.59,20.25 -7.36,16.73 -21.94,28.78l-13.98 15c-17.43,32.8 -22.74,31.81 -28.89,76.67 -4.1,29.83 -6.86,40.89 -23.05,66.33 -20.15,31.72 -75.31,59.64 -110.72,72.41l-43.32 1.18c-41.78,0.92 -64.42,-23.23 -95.62,-43.35 13.6,-34.7 21.42,-32.98 18.24,-72.45 -23.24,-15.95 -31.38,-12.95 -62.31,-21.42 -39.99,-5.7 -63.32,-46.3 -87.21,-73.6 -30.13,-2.67 -8.99,-1.64 -39.34,-14.24 -1.64,-0.68 -3.61,-1.55 -5.3,-2.22 -93.46,-37.03 -100.15,-17.95 -131.98,20.97 -33.89,-1.73 -61.79,-8.01 -91.65,1.55 -28.11,9.01 -40.73,26.1 -68.16,24.74 -24.48,-22.79 -9.33,-18.76 -24.41,-50.96 -16.94,-36.14 -15.68,-20.62 -50,-37.1 -34.2,-16.42 -99.72,-109.22 -233.45,-67.14 -62.45,19.67 -85.67,0.49 -127.66,44.43 -11.12,24.34 19.86,24.14 -3.29,116.76 -10.19,40.78 5.32,3.09 -15.61,38.84 -12.99,22.19 -18.71,39.01 -29.79,62.76 -19.69,42.11 -29.9,37.64 -40.82,57.65 -15.71,28.8 2.21,38.25 -17.77,74.45 -32.81,59.44 -5.38,29.36 -27.45,71.26 -0.09,0.16 -31.81,17.47 -3.73,63.95 18.12,30.01 38.09,26.65 60.65,15.09 7.95,-35.17 -19.35,-44.95 25.94,-118.72 23.41,-38.11 6.28,-38.4 17.87,-68.55 6.59,-17.13 17.83,-15.9 32.03,-51.09 21.76,-53.97 55.47,-105.09 55.52,-105.29 14.06,-41.92 11.66,-85.75 9.01,-127.63 143.6,-30.23 142.28,-45.58 245.97,32.57 33.85,25.5 39.28,11.89 54.94,50.96 10.16,25.37 26.08,41.93 53.88,56.1 29.49,15.03 47.59,0.16 77.07,-13.01 82.49,-36.88 107.7,17 149.56,-51.05 24.23,3.57 93.65,29 114.02,44.1 56.83,42.16 -8.03,46.22 89.9,64.75 -16.11,106.62 42.17,101.93 63.76,110.83 22.39,9.24 84.25,53.74 163.37,13.08 216.74,-111.37 121.14,-180.18 181.53,-233.05 41.69,-36.5 44.66,-50.07 81.08,-44.42 43.25,6.73 75.98,30.24 111.98,27.15 54.99,-4.69 76.75,-45.72 138.48,34.38 20.64,26.8 24.27,105.11 113.5,93.13 35.89,-4.82 69.15,-22.38 103.04,-35.37 50.5,-19.34 49.98,8.34 99.06,-23.8 23.15,-15.16 52.87,-44.3 86.33,-52.01 40.17,-9.22 13.8,5.38 54.19,0.19 29.36,-3.79 22.68,-14.77 50.88,-4.59 40.64,14.67 40.08,41.88 97.45,39.36 17.97,-0.8 40.09,-6.34 56.84,-1.41l37.26 30.46 0 0zm119.13 -0.07l-6.48 7 6.48 -7zm-22.39 23.73l-7.13 6.26 7.13 -6.26z"/>
    <path class="fil2" d="M3699.42 3576.76c35.35,-15.46 57.82,5.09 66.12,35.95 61.75,-20.05 27.89,-27.88 69.2,-47.98l68.55 -86.51c11.19,-7.54 31.96,-12.32 50.6,-24.94 22.01,-14.92 24.99,-19.9 34.45,-44.39 0.19,-0.48 -1.29,-21.94 -5.62,-39.64 -3.1,-12.72 -9.49,-23.35 -9.34,-23.75 0,0 -23.62,5.47 -23.12,4.98 -0.07,0.65 -4.42,2.62 -1.6,15.45 3.08,14.07 8.75,21.87 9.25,22.23 5.78,3.93 -0.68,18.28 -9.9,26.92 -28.91,3.45 -31.76,29.29 -55.04,30.35 -24.27,23.12 -76.08,88.53 -129.6,113.89 -1.64,-1.81 -3.73,-7.11 -4.47,-5.78 -4.53,8.03 -13.27,-20.14 -17.08,-27.61 -5.97,-11.71 -10.93,-23.29 -17.14,-35.71 -10.05,-20.14 -25.48,-58.63 -34.28,-73.91 -12.81,-22.32 1.19,-6.5 -24.24,-22.75 -57.16,-36.54 -54.94,-29.69 -119.31,-41.63 -47.44,-142.81 -46.57,-126.89 -153.63,-124.78 -50.17,-67.35 -55.42,-28.24 -109.46,-64.68 -85.84,-57.83 -91.58,-38.16 -92.84,-92.08 121.04,-52.17 24.48,-119 46.99,-177.14 17.55,-45.37 64.2,-36.44 11.82,-138.42l-22.65 -25.16c-1.46,-1.06 -3.68,-2.35 -5.07,-3.28l-10.54 -6.52c-0.18,-31.83 6.66,-77.5 -6.86,-103.81 -38.03,-73.98 -59.07,-106.26 -119.25,-158.43 -20.21,-17.52 -7.26,-15.61 -36.54,-33.37 -28.24,-17.1 -17.89,11.3 -30.14,-35.91 0,0 -5.23,-19.48 -12.4,-24.34 -41.25,-33.45 -29.99,-48.09 -57.32,-62.58 67.19,3.02 14.22,22.22 59.38,29.81 44.46,-13.33 57.38,-2.79 91.99,-16.31l12.98 -0.49c50.34,7.62 154.7,57.35 271.95,43.26 53.65,-6.44 58.07,15.89 112.37,-6.93l11.08 12.81c14.95,14.53 40.42,19.49 65.39,20.46 39.19,1.52 58.5,0.49 77.14,-18.51 3.65,-3.72 18.35,-85.91 20.17,-102.78 -3.86,-12.55 -32.84,-11.16 -34.82,-14.91l-5.85 -11.02c-0.81,-1.81 -1.71,-3.74 -2.45,-5.56 -4.39,-10.88 -4.06,-21.24 -9.22,-33.66 -47.55,3.05 -2.8,121.66 -14.19,137.41 -34.95,48.38 -25.44,-2.38 -63.41,-8.4 -27.12,-4.32 -32.24,-5.42 -59.67,-5.58 -25.48,-29.94 -22.34,-31.4 -98.89,-25.71 -49.15,3.66 -136.61,-20.72 -172.68,-14.71 -9.15,1.51 -13.43,2.92 -26.37,4.37 -16.92,1.87 -31.92,3.08 -50.67,0.32l-25.35 -13.91c-0.22,-0.36 -0.43,-2.22 -0.87,-3.25 -13.22,8.53 -10.34,14.87 -29.68,7.07 -4.57,-2.87 -22.16,-10.86 -26.64,-1.86 0,0 -6.73,12.33 -6.73,12.33 -13.31,18.66 -6.71,2.89 -10.06,10.43 -95.03,-16.22 -134.19,-48.61 -233.2,-87.3 -19.61,21.22 -4.13,5.25 -17.68,29.77l-62.13 -0.92c27.55,48.25 209.86,47.42 211.12,73.1 -2.58,15.65 7.13,6.17 2.87,15.47 -4.87,10.66 12.94,-0.56 10.83,28.24 -0.38,15.64 0.56,11.44 7.33,17.34l4.13 15.37c1.41,0.81 4.2,1.86 5.94,3.32 4.04,72.96 33.92,61.1 70.64,96.05 13.46,12.82 -15.72,-13.06 7.53,8.18 26.81,24.49 62.47,42.95 79.72,79.92 25.53,54.73 29.61,80.35 28.13,143.04 -1.01,42.66 3.81,27.84 26.85,48.7 21.58,19.53 18.97,29.11 36.74,48.81 -13.41,44.59 -40.8,34.7 -39.66,80.3 1.03,42.16 26.05,57.62 14.99,107.79 -43.95,46.42 -77.97,49.75 -48.63,141.32 6.19,5.11 3.97,4.15 15.57,10.67l61.09 30.6c50.47,36.52 55.09,32.93 112.45,56.55 29.77,12.27 12.79,9.75 32.95,27.83 29.4,26.36 57.8,13.46 94.03,12.63 41.87,69.4 28.77,121.4 133.79,135.28 58.44,7.74 90.49,97.1 110.16,158.6l0 -0.01z"/>
    <path class="fil2" d="M4723.16 5920.38l6.29 -6.8c7.87,-16.44 -27.26,17.36 17.02,-10.23 1.73,-1.08 4.89,-2.91 7.22,-4.57 -55.6,-47.56 39.97,-11.24 -124.93,-151.45 -50.52,-42.98 -40,-14.32 -61.29,-60.07 -46.9,-100.87 -62.06,-27.73 -24.85,-169.84 10.07,-38.47 17.75,-83.56 34.84,-118.24 67.42,-136.84 16.03,-122.65 6.64,-176.52 -1.91,-10.91 20.61,-121.11 -138.49,-94.19 -18.06,-176.62 31.7,-139.56 45.45,-189.99 9.5,-34.81 -18.1,-38.04 -41.88,-104.75 -9.74,-27.36 1.66,-0.51 -4.31,-11.54l-6.53 -9.45c-18.61,-21.06 -95.14,-46.7 -117.66,-45.44 -98.65,5.45 -90.96,56.88 -177.45,-12.83 -39.08,-31.49 -21.42,-39.5 -56.44,-71.31 -36.33,0.11 -41.07,16.22 -69.98,6.53 -0.09,-0.03 -29.81,-16.2 -29.85,-16.22 -9.92,-6.77 -3.19,-1.97 -12.5,-9.87 -36.79,-31.22 -22,-11.57 -94.21,15.19 -66.95,24.81 -30.8,29.69 -69.89,39.61 -22.1,5.61 -60.12,14.62 -85.57,10.03 0.62,-0.23 -24.88,-10.79 -50.81,-14.85 -26.87,-4.22 15.7,-57.07 15.08,-56.86 -0.14,-0.05 -43.5,-26 -72.7,-0.81 -9.24,7.96 -19.87,85.95 -7.6,96.69 59.71,9.29 40.66,24.74 111.75,4.94 34.15,-9.51 28.97,-9.51 53.4,-0.34 1.23,0.47 3.25,1.64 4.58,2.07 1.45,0.47 3.59,1.41 5.15,1.79 66.38,16.13 104.08,-24.18 134.88,-34.5 29.18,-9.8 -10.72,-15.34 34.1,-3.03 59.68,16.36 45.12,79.47 113.7,24.41 8.09,30.01 28.5,41.83 50.49,57.42 99.72,70.7 -15.7,68.05 156.9,32.21 51.2,-10.65 21.03,-5.63 53.96,2.89 101.52,26.27 30.87,-15.58 99.59,76.9 -3.99,23.62 -36.87,49.84 -45.57,115.49 -4.31,32.59 -2.99,51.81 2.93,83.58 23.78,127.71 31.88,44.84 138.6,75.05 -3.94,67.74 18.75,53.31 25.26,103.04 5.16,39.3 -23.24,66.49 -35.37,104.53 -99.28,311 -47.45,181.66 2.04,323.51 10.18,29.14 47.69,47.74 71.46,68.08 53.14,45.51 68.84,37.08 87.9,86.14 6.65,17.15 12.95,34.9 18.33,52.82 29.76,-5.83 19.4,-11.31 30.32,-9.22l0 0z"/>
    <path class="fil2" d="M6586.84 2075.85c-34.12,21.66 -111.75,37.37 -132.94,52.96 -27.91,20.58 -16.64,34.31 -25.82,68.2 -16.26,59.92 -59.42,46.86 11.58,93.94 51.56,34.17 36.76,103.66 92.18,127.45l-1.34 49.2c8.12,46.42 28.04,17.09 20.95,73.19 -4.69,37.21 -5.05,48.27 12.8,77.38l4.89 9.53 5.52 6.87c60.27,23.01 10.63,65.92 68.1,104.5 61.89,41.56 66.84,14.91 58.97,111.01 21.07,31.49 53.43,52.02 62.83,79.4 32.03,54.73 2.51,144.56 58.39,170.16l38.15 7.58 7.02 -6.95c5.02,-8.44 0.58,-9.65 6.89,-2.25l44.1 -10.58 -68.55 -107.85c-9.17,-89.36 -19.18,-80.52 -68.03,-128.32 -33.43,-32.69 -2.94,-71.62 -40.15,-118.97 -22.97,-17.59 -61.78,-29.75 -74.2,-56.75 -5.72,-12.45 -8.51,-38.2 -12.45,-48.66 -15.39,-41.02 -0.77,-5.2 -35.31,-36.27 -33.53,-30.17 9.92,-42.01 -4.53,-90.24 -3.88,-12.91 -19.94,-30.7 -23.3,-45.44 -5.34,-23.37 1.21,-34.81 -6.28,-64.44 -11,-19.97 -11.76,8.34 -53.72,-69.74 -28.42,-52.87 13.45,-58.05 -55.66,-75.63 7.27,-20.97 10.82,-45.04 14.02,-70.57 33.94,-9.35 70.75,-14.78 97.62,-36.18 68.68,-36.56 57.47,-21.8 62.81,-111.26l-29.64 -1.83 -25.01 6.63c-1.25,26.67 2.18,25.58 -9.89,43.93l0 0zm259.7 994.45l-6.79 6.1 6.79 -6.1z"/>
    <path class="fil2" d="M4023.22 4144.54c-10.43,-46.66 0.03,-13.59 -21.39,-38.34 -6.69,-7.76 -10.34,-5.9 -18.11,-19.37 2.02,-12.79 -12.8,-31.05 -25.86,-57.05 -24.78,-49.26 10,-25.08 -40.48,-45.89 -41.93,-17.29 -66.65,-38.24 -75.12,-77.09l-57.49 -4.44c0.18,52.53 -9.52,34.99 58.77,103.15 16.34,16.29 12.08,9.06 33.41,21.89 40.94,24.64 5.84,16.87 40.99,56.87 14.35,16.31 85.3,85.14 33.66,131.03l-62.93 43.47c-56.48,41.16 -67.34,84.23 -47.96,153.9l-78.15 33.38c-38.22,14.49 -43.33,31.33 -54.98,71.42 -23.19,79.62 2.85,21.3 -44.54,68 -33.11,32.6 11.61,13.31 -42.37,66.02 -1.19,1.19 -3.32,3.45 -4.31,4.42 -1.01,0.99 -3.07,2.89 -4.31,4.57l77.01 -3.76c36.24,-34.68 -2.61,-37.37 75.38,-60.26 1.6,-44.45 -11.28,-75.47 24.86,-97.59 43.45,-26.62 66.03,-16.53 103.43,-35.77 33.78,-76.2 -47.81,-112.25 49.14,-172.05 49.5,-30.53 112.62,-81.46 81.35,-146.51l0 0z"/>
    <path class="fil2" d="M2809.47 2212.36l-5.25 -6.31c-65.9,-33.19 -137.32,-5.8 -191.18,-56.41 -29.27,-10.41 -142.76,-39.63 -171.38,-36.72 -117.21,11.94 -86.3,103.84 -181.47,125.44 -40.37,9.15 -56.25,-2.58 -95.75,12.04 -34.39,12.72 -40.18,18.14 -64.58,36.85 -25.3,19.43 -58.18,-16.35 -90.64,-5.7 19.72,16.76 -143.08,12.68 -113.68,17.68 3.14,0.52 -337.28,-30.1 -327.91,-14.85 -7.24,-10.16 -1.59,-69.84 -1.75,-69.56 -19.34,-16.41 -80.97,39.78 -81.47,-4.89 -0.16,0.18 -1.28,76.25 12.16,98.23 11.6,24.51 24.36,24.9 66.1,24.97 23.53,-11.71 113.41,11.9 234.67,15.7 142.36,4.48 296.24,-14.52 287.45,-28.09 45.95,1.75 51.45,4.62 92.18,-8.36 42.91,-13.67 51.44,-1.89 89.06,-10.52 97.41,-22.35 87.83,-28.99 119.37,-82.23 35.17,-59.36 70.43,-43.61 141.67,-29.83 80.37,15.58 76.53,42.27 150.96,49.74 15.74,-9.08 85.07,53.14 131.44,-27.18l0 0z"/>
    <path class="fil2" d="M4725.59 5896c7.15,2.86 -38.96,28.03 -32.75,33.6 10.79,9.68 32.08,8.14 53.41,10.42 25.5,2.7 50.98,9.41 63.88,18.04 7.91,5.27 17.36,19.38 34,30.84 22.75,15.66 53.68,29.36 63.7,36.27 26.72,18.46 69.78,22.12 75.64,27.23 25.17,21.94 23.82,35.02 52.19,48.48 31.2,14.8 111.64,16.32 164.02,35.39 56.83,20.72 80.54,70.84 149.36,46.63 77.38,-27.23 -15.19,-14.85 112.26,-26.2 94.3,-0.4 202.4,13.01 281.4,-13.43 72.94,-15.34 103.83,-30.46 135.09,-57.18l-39.07 -20.37c-80.86,27.39 -169.35,34.88 -247.14,20.91l-157.55 9.04c-123.44,8.3 -50.85,30.24 -139.68,33.31 -44.34,-45 -111.85,-68.71 -179.21,-75.32 -123.53,-12.12 -56.46,-60.65 -156.97,-49.32 -20.95,-16.51 -41.9,-33.04 -62.85,-49.55 -24.02,-13.57 -39.52,-27.14 -71.91,-34.39l-69.72 -21.62 -28.1 -2.78 0 0z"/>
    <path class="fil2" d="M6453.99 1889.81c-25.96,-4.01 -59.22,-0.14 -79.02,-4.91 -37.93,-9.11 -9.05,-19.7 -66.08,-17.5 -72.19,2.8 -78.83,27.77 -111.96,71.19l21.9 22.79c29.56,-12.8 35.41,-38.69 95.62,-32.56 46.34,4.73 13.79,21.62 122.38,16.89 18.3,-9.47 3.81,-7.88 33.02,-8.66l26.3 4.96c1.1,-1.85 38.85,-3.8 37.02,-2.76 1.1,-0.85 3.22,-1.44 3.87,-1.62l8.08 -2.49c1.05,-0.2 3.36,-0.54 4.51,-0.69 28.31,-3.8 42.84,-2.43 52.02,1 12.72,4.76 15.23,13.53 29.98,18.1 7.09,2.18 -30.93,43.21 -34.98,79.88 35.97,-10.48 19.85,1.73 53.92,8.93 1.5,-33.2 2.08,-36.23 14.66,-68.6 12.54,-32.29 13.46,-11.07 5.46,-52.71 -117,-66.77 -115.65,-0.74 -216.7,-31.24l0 0zm-236.78 78.06l-6.8 -6.31 6.8 6.31z"/>
    <path class="fil2" d="M3756.55 3591.98c-18.71,20.04 -40.69,-29.65 -57.13,-15.22 13.3,20.68 35.24,180.85 49.28,215.53 42.82,160.18 36.11,116.7 95.3,126.39l-7.98 -86.17c-58.5,-124.33 -48.5,-149.32 -57.55,-166.19 -14.77,-27.57 -4.11,-75.08 -16.31,-81.82l-5.61 7.48 0 0zm-14.02 9.14l6.33 -6.78 -6.33 6.78z"/>
    <g>
     <path class="fil3" d="M6821.02 3043.79c31.31,-14.61 15.72,-14.61 47.03,0 52.35,52.35 -90.95,94.11 -47.03,0zm-7.03 -27.89l-8.94 2.9 -9.06 9.01 -2.77 9.69 -8.79 7.88 0.03 44.48c27.58,24.29 39.76,45.69 88.44,28.69 61.01,-51.41 35.78,-107.31 -49.19,-109.44l-9.72 6.79z"/>
     <path class="fil4" d="M6821.02 3043.79c-43.92,94.11 99.38,52.35 47.03,0 -31.31,-14.61 -15.72,-14.61 -47.03,0z"/>
    </g>
    <g>
     <path class="fil3" d="M6147.11 1939.07c32.17,-15.01 16.15,-15.01 48.32,0 53.75,53.76 -93.42,96.65 -48.32,0zm-7.26 -28.65l-21.17 22.23 -9.47 8.34 -2.91 43.58 12.78 14.79 18.15 15.81 12.96 12.54c54.08,-10.01 47.13,-7.99 81.35,-40.51l1.37 -46.14 -9.04 -8.41c-28.42,-33.6 -24.54,-26.06 -75.39,-31.56l-8.63 9.33 0 0z"/>
     <path class="fil4" d="M6147.11 1939.07c-45.1,96.65 102.07,53.76 48.32,0 -32.17,-15.01 -16.15,-15.01 -48.32,0z"/>
    </g>
    <g>
     <path class="fil3" d="M1505.65 2192.3c32.15,-15.02 16.15,-15.02 48.3,0 53.76,53.75 -93.42,96.64 -48.3,0zm-7.26 -28.64l-21.18 22.23 -9.46 8.34 -2.9 43.58 12.75 14.79 18.16 15.81 12.95 12.52c54.08,-9.99 47.15,-7.97 81.35,-40.51l1.37 -46.12 -9.04 -8.41c-28.42,-33.6 -24.54,-26.07 -75.39,-31.56l-8.61 9.33 0 0z"/>
     <path class="fil4" d="M1505.65 2192.3c-45.12,96.64 102.06,53.75 48.3,0 -32.15,-15.02 -16.15,-15.02 -48.3,0z"/>
    </g>
    <g>
     <path class="fil3" d="M3696.05 3593.85c31.32,-14.6 15.73,-14.6 47.04,0 52.35,52.35 -90.96,94.11 -47.04,0zm-7.02 -27.9l-8.93 2.91 -9.08 9 -2.76 9.69 -8.79 7.89 0.02 44.5c27.59,24.27 39.77,45.69 88.43,28.67 61.03,-51.41 35.79,-107.31 -49.17,-109.44l-9.72 6.78 0 0z"/>
     <path class="fil4" d="M3696.05 3593.85c-43.92,94.11 99.39,52.35 47.04,0 -31.31,-14.6 -15.72,-14.6 -47.04,0z"/>
    </g>
    <g>
     <path class="fil3" d="M4721.13 5935.56c31.33,-14.62 15.74,-14.62 47.05,0 52.35,52.33 -90.97,94.08 -47.05,0zm-7.01 -27.92l-8.94 2.91 -9.07 9 -2.76 9.69 -8.79 7.91 0.02 44.48c27.59,24.27 39.77,45.69 88.43,28.67 61.03,-51.41 35.79,-107.31 -49.17,-109.44l-9.73 6.78 0.01 0z"/>
     <path class="fil4" d="M4721.13 5935.56c-43.92,94.08 99.4,52.33 47.05,0 -31.31,-14.62 -15.72,-14.62 -47.05,0z"/>
    </g>
   </g>
  </g>
 </g>
</svg>
